<svg xmlns="http://www.w3.org/2000/svg" viewBox="0 0 405 464">
  <defs>
    <style>
      .cls-1 {
        fill: none;
        stroke: #fff;
        stroke-miterlimit: 10;
      }
    </style>
  </defs>
  <g id="Layer_2" data-name="Layer 2">
    <g id="Layer_1-2" data-name="Layer 1">
      <g>
        <path class="cls-1" d="M404.439,30.594V457.5c-4.107-.437-2.377,2.937-3.07,4.69,2.825,1.175,1.984-1.849,3.07-2.69v4H.5V.6Q201.344.6,402.189.622c.967,0,2.654-.752,2.25,1.478-3.889-.884-7.746-1.257-11.411.265a5.423,5.423,0,0,0-1.678-.64c-2.151-.087-4.307-.035-6.461-.048-1.281-.008-1.983.4-1.944,1.893.09,3.366.028,6.737.028,10.223,2.917.691,2.122,3.127,1.864,5.415l3.049.285.122.779-6.219,1.915c.113.927.581,1.978.259,2.649-1,2.069.316,3.359,1.327,4.7.9,1.194,1.889,1,2.777-.373-.695-.5-1.555-.8-1.81-1.371a7.277,7.277,0,0,1-.694-3.339c.027-.391,1.337-.778,2.108-1.009s2.122-.007,2.335-.429c1.343-2.659,4.35-4.56,3.274-8.392-.493-1.754.4-3.9.666-5.863l.841.1a7.746,7.746,0,0,1,1.111,6.755,15.565,15.565,0,0,0-.317,4.134c-.086,2.823,1.546,6.245-2.94,7.623-.469-3.14-2.8-3.007-5.119-2.666-.538.079-.981.8-1.925,1.625h5.278c-.635,1.344-1.117,2.285-1.527,3.256-.314.745-.539,1.529-.8,2.295l.9.6c.882-2.8,2.905-3.421,5.437-3.722-1.344,4.36-.714,5.27,2.767,4.546V28c2.161-.879,4.7-1.253,6.978.294-1.476,1-3.376,1.634-4.065,2.92-.761,1.423-.413,3.439-.595,5.8l-4.371-2.768c.293,2.635.565,5.083.868,7.816.553-.476,1.547-.959,1.516-1.366-.171-2.294,1.547-2.973,3.04-3.716a5.223,5.223,0,0,0,2.661-3.513C402.144,32.34,403.512,31.541,404.439,30.594ZM75.287,455.358l2.956.375c-1.385-3.439-2.014-3.7-4.153-2.192.428.633.846,1.251,1.275,1.877l-4.15,1.414c1.373.69,2.529,1.748,3.207,1.5A1.813,1.813,0,0,0,75.287,455.358ZM11.624,249.924l-1.21,3.642-3.062-1.437c-.466-1.347-.466-1.347-2.492.14l.762-2.847a6.432,6.432,0,0,1-1.31-1.055,8.028,8.028,0,0,1-.746-1.666c-2.452,1.119-2.482,1.12-2.371,3.728.129,3.042.319,6.082.487,9.208H4.744L6.5,257.2c-2.27-1.927-.785-3.544.925-5.133.251.84.278,2.216.79,2.429,2.624,1.095,1.809,3.375,2.017,4.672l2.534,3.009a1.391,1.391,0,0,0,.542-2.491c-1.591-1.65-1.1-3.409-1.02-5.3a20.738,20.738,0,0,0-.725-4.406c.307-3.288.649-6.574.857-9.868.019-.3-.795-.76-1.294-.921-.23-.074-.935.563-.918.594.951,1.7-1.058,2.042-1.427,3.125a11.516,11.516,0,0,1-1.116,1.964l2.387.345C9.052,248.764,9.258,249.383,11.624,249.924ZM132.33,459.2c.8-5.077-2.753-4.882-6.287-4.454.193-.873.243-1.183.332-1.482.147-.493.343-.973.451-1.472a1.329,1.329,0,0,0-.592-.294c-.334.4-.844.835-.861,1.278-.086,2.238-.039,4.481-.039,7.226,1.232-1.167,2.061-1.953,2.891-2.738l.341.284-.978,2.634c1.908-.415,2.8-3.329,4.775-1.029-.5,1.936,1.132,2.112,2.19,2.19,1.074.079,2.958-.267,3.17-.881a17.828,17.828,0,0,0,.81-9.064l-.775-.37-3.237,4.1a5.961,5.961,0,0,1,1.262,1.208,12.58,12.58,0,0,1,.839,2.214l-2.179.334C133.736,459,133.029,459.106,132.33,459.2ZM321.546,7.654c-.774-.583-1.481-1.5-2.337-1.671a17.524,17.524,0,0,0-3.983.076c.207.712.421,1.423.618,2.139a2.9,2.9,0,0,1,0,.59l-1.906-.526c-.175,2.084-.516,3.983,1.9,4.606l6.4-3.406c-.223-.544-.5-1.214-.774-1.884,3.283.936,6.221-.027,6.447-1.974-1.8.171-3.635.445-5.472.485C321.051,6.12,321.163,6.742,321.546,7.654ZM3.667,71.2c-1.726-.07-2.36.924-2.367,2.478-.014,3.111,0,6.223,0,8.72.985.892,1.945,1.409,2.325,2.2.4.83.116,1.957.345,2.9.432,1.789,2.041,2.317,3.652,1.3a7.35,7.35,0,0,1,.156,2.586c-1.1,3.43-.47,4.654,2.943,5.3.217.042.386.338.883.8-2.009.072-4.237-1.267-4.463,1.8l-2.765-.993,1.167-1.45L2.213,95.3l-1.146,6.679c1.669-.459,3.157-1.223,4.565-1.1.649.058,1.142,1.858,2.07,3.521l4.542.685.182.589-1.929.917.638.925c.954-.436,2.267-.618,2.792-1.359,1.4-1.969-.745-3.011-1.913-4.476l3.821-1.749-.015-.716L13,98.207l.987-3.55H11.861l.388-1.677,4.288-.308-.044-.978a21.124,21.124,0,0,0-4.594.065c-1.994.456-2.557-.472-2.828-2.082-.147-.878-.317-1.753-.477-2.629l-.737.037c-.071.59-.142,1.179-.22,1.755-2.295-1.982.71-2.786.87-3.5L2.29,81.467,4.731,78.74c-2.323.372-3.236-.06-2.339-2.3a34.339,34.339,0,0,0,1.315-3.393,5.708,5.708,0,0,0-.119-1.907c.182-.6.679-1.362.473-1.76-.305-.586-1.109-.913-1.7-1.351L.88,70.274C2.751,68.382,2.989,70.585,3.667,71.2Zm.488,367.692a20.18,20.18,0,0,0-.246,4.036c.023.215,1.852.232,2.847.341l.455-.664L4.1,438.941c-.16-1-.792-2.59-.4-2.906,1.953-1.572,2.154-3.414,1.648-5.614-.071-.309.35-.719.511-1.1,1-2.358,2-4.719,3.071-7.25-2.641.022-1.024,3.717-3.853,3.368-2.255-.278-3.516-1.164-3.733-3.524-.15,4.533-.24,8.948-.1,13.357C1.287,437.036,1.436,439.111,4.155,438.889Zm79.162,23.369c2.7-.957,6.088,1.786,7.636-1.064l4.516,1.34.952-1.393-3.628-1.485.731-.721c4.655.6,4.655.6,4.975-.994l-4.239-2.73c-.541-.574-1.644-.6-2.059-1.141-.4-.524-.086-1.59-.086-2.766a6.584,6.584,0,0,1-7.418,2.259,4.972,4.972,0,0,0-3.032.181c-.388.143-.394,1.319-.544,1.908l3.219-.877L83.6,456.71c0,.766.313,1.832-.058,2.191-1.2,1.161-.846,2.2-.211,3.355-1.968-.078-2.757-1.065-2.218-2.615l-7.464.432c.8,1.519.72,3.37,2.561,1.58.254-.247.87-.22,1.3-.169C79.446,461.712,81.38,462,83.317,462.258ZM8.506,346.467l3.448-3.576-.981-3.764c-1.835,1.449-1.913,1.432-3.032-.934L6.22,340.748c3.418,3.036,3.419,3.214-.78,4.655-1.858.638-1.489,1.738-1.234,3.177l4.367-2.192-.683,2.17c2.034-1.445,3.814-2.3,5.828-.024l-2.041.733c1.862,1,3.217,1.143,4.891-.192,1.08-.861,2.95-.731,4.257-1V361.2l-.639.677c-1.789-4.9-5.993-.553-8.35-3.137-1.09,2.477.232,4.8,2.689,4.966v-1.456a17.507,17.507,0,0,1,2.617.025c1.193.192,2.36.544,3.537.829-.322.837-.671,1.664-.957,2.513a7.493,7.493,0,0,1-.34,1.444c-.353.585-.81,1.378-1.367,1.522-1.966.506-1.409,1.4-.6,2.492.709.96,1.358,1.966,2.171,3.152h1.233l-.487,8.615c1.656,1.311,1.6,6.427-.3,9.737l1.128,3.445-.628.325a43.634,43.634,0,0,0-2.928-3.256,7.191,7.191,0,0,0-2.069-.943l.209,2.631c-1.125.183-2.659.043-3.665.705-1.048.69-1.588,2.153-2.381,3.323-3.161-3.839.366-8.429-1.972-12.338l-.271,3.851-.551.127q-.741-1.411-1.477-2.827c-.379-1.767,1.494-3.622-.224-5.384-.162-.166.157-.971.428-1.357.794-1.131,1.676-2.2,2.56-3.341l1.039.528.381-.468L7.549,375.32c-.868.94-1.552,1.685-2.24,2.425-.448.483-1.366,1.068-1.283,1.422.6,2.544-1.585,3.571-2.616,5.216a1.257,1.257,0,0,0-.159.591l4.237,2.59c-.121.973-.305,1.943-.349,2.918-.082,1.837-.662,3.934.015,5.457,1.034,2.326-.213,3.042-1.625,4.04-.13.092-.067.456-.112.857l2.294.219C3.392,402,3,403.129,4.543,404.222a61.578,61.578,0,0,1-.88,6.158c-.362,1.467-1.255,2.8-1.729,4.246a8.236,8.236,0,0,0-.509,3.41c.054.445,1.292.991,2.032,1.059,1.955.181,3.847-2.166,3.735-4.162-.2-3.572-.3-7.151-.321-10.728,0-.568.594-1.14.913-1.711.308.614.857,1.223.873,1.844a24.636,24.636,0,0,1-.391,3.578l.711.453,6.44-5.832c-.169,1.022-.3,1.5-.32,1.984-.156,3.091.051,3.248,3.174,2.665a3.9,3.9,0,0,1,1.722-.07,2.046,2.046,0,0,1,1.2,1c.152.352-.064,1.218-.314,1.308-.416.148-.989-.23-1.5-.227a4.62,4.62,0,0,0-2.38.274c-1.859,1.285-1.411,2.736,1.345,4.8l.048-.018a21.032,21.032,0,0,0-3.19.409,2.36,2.36,0,0,0-1.309,1.213c-.155.337.177.95.4,1.384.112.219.689.335.677.462-.293,3.138,2.257,2.725,4.533,3.864l-1.176-2.437c.587-.127.985-.22,1.385-.3.378-.073.759-.131,1.8-.307-1.646,7.859,1.074,14.078,6.392,19.51l-.3,1.96,2.308-1.572c-.129,1.657-.244,3.128-.36,4.6H27.312L27,440.778l-.782-.186a8.953,8.953,0,0,0-.841,2.864c.02.492,1.273,1.444,1.664,1.309a9.643,9.643,0,0,0,2.442-1.8l4.5-1.395-2.466-3.187,4.6,1.062c-1.1,1.763-2.151,3.433-3.117,4.974l3.327-.534c.55,2.814.973,4.987,1.419,7.269l-2.939.222a8.709,8.709,0,0,0,.474-2.449,21.555,21.555,0,0,0-.895-3.159,12.2,12.2,0,0,0-3.152,1.023,22.217,22.217,0,0,0-3.535,3.128,6.634,6.634,0,0,0-.82,1.934L24.211,453l-2.252-3.531c-2.631.82-5.048-.4-6.364-3-.247-.489-.835-.805-1.266-1.2-.213.655-.744,1.79-.59,1.892,1.674,1.109.936,2.72,1.1,4.165a13.254,13.254,0,0,0,1.1,2.822c1.745-3.307,3.808-2.3,5.817-1.339a6.589,6.589,0,0,1,1.308,1.206l-2.729-.175,1.659,1.572c-.182,1.227-.3,2.173-.467,3.107-.189,1.035-.43,2.06-.64,3.044,3.867,1.621,6.311,1.314,6.109-3.025l-3.754-1.273.013-.772c1.3-.689,2.617-1.337,3.884-2.077,1.606-.939,2.185-.26,2.088,1.315-.13,2.114-.377,4.221-.585,6.452h4.69c-.961-1.769-1.8-3.311-2.635-4.854l.74-.52c1.2,1.58,2.379,3.168,3.6,4.73a2.131,2.131,0,0,0,.929.726c1.176.381,5.249-1.309,5.839-2.195l1.991.9.341-2.613,1.823-.948-1.433-1.824,3.759-3.087-2.694-3.305,3.034-1.159-.664,2.514.65.369,3.326-4.591-.406-.453-3.455.934-.5-3.878,2.759-2.346-.385-.435-4.628,1.085c1.032-2.349,2.152-3.087,4.017-2.217a2.626,2.626,0,0,0,1.2.116c3.916-.2,7.831-.413,12.066-.641l-.713,1.345c1.645.547,1.546,1.972,1.77,3.3.038.222,1.081.582,1.336.407,1.091-.75,2.061-1.676,3.285-2.717l-2.963-1.118c3.724-1.471,3.724-1.471,7.245,2.253.247-1.235.427-2.135.677-3.381l5.251.4-.018.812c-1.3.854-2.49,2.034-3.914,2.47-1.391.426-3.015.092-4.607.092l-.368,1.829-2.6-.836c.926,1.352,3.246,2.092,1.425,3.654a54.308,54.308,0,0,0,4.9,3.6c.523.309,1.564-.259,1.944-.337l-4.653-3.669,6.8-4.2c.041,3.868.041,3.868,2.193,3.836l-1.637,2.024a5.441,5.441,0,0,0,7.812-2.727c.591-1.75,3.232-3.931,4.4-3.2.994.618,1.322,2.308,1.944,3.524.11.217.217.435.551,1.1,1.709-.284,3.532-.657,5.373-.862.866-.1,2.208-.193,2.553.28a3.779,3.779,0,0,1,.565,3.011c-.29.843-1.477,1.379-2.411,2.169.709,1.329-2.325,3.97,1.031,4.542v4.038c1.632.112,2.546-.1,2.391-1.849-.046-.521.622-1.264,1.155-1.614.277-.183.989.231,1.474.443,1.142.5,2.266,1.039,3.4,1.563l.584-.746c-2.638-.76-2.688-2.827-1.452-4.021,2.512-2.428,1.875-4.807.8-7.772l-6.057,4.016c.595-1.219.779-2.161,1.351-2.636a15.313,15.313,0,0,1,3.192-1.818,4.6,4.6,0,0,0,1.628-6.939H131.2l.079.688-3.023,1.163,1.095,2.043,4.072-2.308-.4-1.692c3,0,5.76.007,8.517,0,8.316-.026,16.632-.1,24.947-.073,7.482.023,14.963.225,22.444.208,5.054-.011,10.108-.283,15.163-.386a2.772,2.772,0,0,1,1.82.491,35.75,35.75,0,0,1,2.682,3.2c-.68.883-1.482,2.576.738,2.779,2.895.264,4.967.909,4.985,4.592l.645-.357c.7-1.857,1.4-3.713,2.2-5.857l.709-.248.124-.837a30.474,30.474,0,0,1-3.9-1.134,7.91,7.91,0,0,1-1.861-1.643c.664-.338,1.412-1.057,1.976-.934a13.423,13.423,0,0,1,2.982,1.369,15.637,15.637,0,0,1,2.785-1.364c.315-.09,1.213.639,1.269,1.069.282,2.146,1.32,1.485,2.359.721,1.652-1.214,3.15-1.779,4.332,1.172.349-2.752,1.855-3.559,3.7-2.437,1.378.839,2.157,1.587,3.476-.037.394-.485,1.76-.182,3.153-.269l-2.239,1.824,3.193,1.106-3.4,1.31c.856,1.477,1.556,2.685,2.257,3.893l.714-.023c.424-1.437.876-2.867,1.267-4.314,1.054-3.906,1.577-4.3,5.617-4.093,2.815.145,5.633.468,8.444.41,4.306-.088,8.607-.633,12.909-.633,9.616,0,19.231.29,28.846.32,6.886.021,13.773-.192,20.659-.291,3.059-.044,6.118-.128,9.176-.083,7.794.116,15.587.326,23.382.439q11.349.163,22.7.195a9.51,9.51,0,0,0,3.625-.412c1.071-.448,1.847-1.553,2.829-2.267a12.891,12.891,0,0,0,5.77-10.519c.133-7.813.05-15.631.009-23.446-.075-14.112-.24-28.224-.262-42.336-.017-10.635.138-21.269.2-31.9.023-3.688,0-7.376,0-11.144l2.438.4c-2.945-2.277-2.384-5.386-2.305-8.3.028-1.037.737-2.074.694-3.092-.1-2.455-.668-4.9-.692-7.347-.119-12.4-.153-24.8-.165-37.195-.014-14.735.041-29.471.037-44.206q0-20.953-.075-41.907c-.035-8.554-.225-17.107-.223-25.66,0-8.15.217-16.3.236-24.45.016-6.906-.163-13.812-.169-20.718-.013-14.308-.216-28.622.186-42.919.141-5.017-1.469-10.486,2.446-15.217h-2.222l.337-5.941.5.005c.179.519.358,1.037.714,2.066.823-2.275,1.446-3.995,1.958-5.411-1.08.285-2.662,1.038-2.932.711-.83-1.007-1.159-2.428-1.929-4.284-2.819-.166-2.994-3.179-3.8-5.934l-.31,1.333c-3.187-.407-6.108-.991-9.048-1.109-5.2-.21-10.421-.151-15.633-.179q-6.1-.033-12.2,0c-3.4.011-6.8.073-10.206.075-4.565,0-9.131-.05-13.7-.041-4.3.009-8.6.057-12.9.108-4.933.058-9.811-2.431-14.79-.326-.07.03-.165-.01-.248-.006-2.324.1-4.648.3-6.97.272-5.9-.058-11.8-.289-17.7-.312-6.539-.026-13.079.12-19.619.152-2.293.011-4.592-.036-6.879-.192a5.44,5.44,0,0,1-1.8-.884l.233-.529,1.754.112.279-.546a8.9,8.9,0,0,0-1.967-1.351c-.255-.095-1.169.628-1.185,1-.112,2.586-1.95,2.158-3.576,2.235-1.66.079-3.313.315-4.973.371-1.1.038-2.4.367-2.687-1.424-.05-.311-1.558-.757-1.632-.644-1.914,2.932-4.694,1.305-6.806,1.621l7.525-3.572-2.738-1.652,3.2-1.024c.063.29.162.751.122.566a16.462,16.462,0,0,0,3.673,1.2,7.771,7.771,0,0,0,2.818-.806c.1-.035.071-.428.106-.677l-2.279-.588,1.865-3.6-2.383.155c.059-3.681,5.59-4.192,4.234-8.274.628-.331,1.074-.556,1.51-.8.452-.251.894-.519,1.613-.939-1.882,4.178-1.882,4.178,1.671,4.881.553-2.113,1.69-2.673,3.5-.956l2.347-3.4,3.34,1.33c1.136-1.455,2.412-2.915,3.452-4.527A3.117,3.117,0,0,0,250,2.21c-.06-.233-.838-.279-1.314-.418l-.316,2.9c-1.039-1.356-1.5-2.34-2.265-2.868-1.255-.861-1.992.216-1.947,3.173-2.445-4.063-5.52.5-7.457-.727a9.832,9.832,0,0,1-2.665,1.553c-.317.058-1.071-.965-1.231-1.6-.611-2.42,1.775-1.391,2.788-2.1-2.536-.99-3.277-.765-4.484,1.247-1.521,2.535-3.106,2.841-5.012.71-1.885-2.109-4.076-2.673-6.843-2.6-5.76.153-11.529-.092-17.294-.068a23.526,23.526,0,0,0-4.125.844l1.907,1.2c-3.826,1.555-3.9,1.547-6.027-.8l3.138.83.132-.738c-2.334-1.655-5-.768-7.105-1.012.5,1.923,1.192,3.554,1.174,5.178,0,.515-1.91,1.011-3.49,1.781l-2.647,3.053-2.124-1.55c.225,1.668.383,2.836.48,3.561l2.773,1.341a14.806,14.806,0,0,1-2.34,2.122,11.988,11.988,0,0,1-2.793.859l-1.512-2.15c-.759,2.568-1.464,4.955-2.169,7.342l-.67-.1,1.373,1.438a10.233,10.233,0,0,1-5.483-1.465c-1.53-1.116-2.389-.913-3.217.452-.857,1.412-.734,2.665,1.247,3.377a9.5,9.5,0,0,1-2.754.538c-2.748.046-5.51.192-8.243-.014-3.679-.279-7.758.976-10.745-2.433-.016-.017-.139.061-.187.082v2.12a10.91,10.91,0,0,0-1.814-.742,5.421,5.421,0,0,0-1.47.108c-2.939.209-5.876.534-8.818.592-5.638.112-11.281.176-16.917.051-3.173-.07-7.036,1.052-8.331-3.578-.029-.1-.283-.145-.8-.389a26.313,26.313,0,0,0-2,2.46,10.486,10.486,0,0,0,1.28,1.148c-4.5,1.723-4.225-3.28-6.146-5.086-1.149-1.08-.233-3.9,1.88-5.359l-4.42.974c4.245-4.637,4.927-7.006,1.843-7.724,1.821,2.132.111,3-.867,4.182a9.654,9.654,0,0,0-1.209,1.882c-.82,1.664-1.733,2.867-3.819,1.586-.393-.242-1.484-.157-1.607.093-1.007,2.053-3.846,3.071-3.219,6.085.437,2.1-1.381,4.2-3.271,3.885a39.528,39.528,0,0,1-4.937-1.47,5.084,5.084,0,0,0-.713-.114l.145,1.591a49.672,49.672,0,0,0-6.265-.793c-2.584-.008-5.166.449-7.755.554a29.214,29.214,0,0,1-4.609-.288,29.547,29.547,0,0,1-3.061-.678c-1.712-.111-3.473.528-5.267.639-.6.037-1.91-1.411-1.8-1.959a20.375,20.375,0,0,1,1.94-5.276c1.475-2.844,1.241-3.5-1.989-3.924l.969-1.777c-1.472-2.031-2.39-.749-3.222.453L50.5,13.242l-.548,1.911-.634-.059V11.108c1.322.314,2.543,1,3.547.765,2.518-.594,4.032.067,4.555,3.088l2.658-7.949c2.4,3.307,2.892,3.363,4.84.863a8.651,8.651,0,0,0,.854-2.407c.347-.972.717-1.935,1.077-2.9l.769.207a21.727,21.727,0,0,0,.055,4.117c.287,1.464,5.939,5.211,7.434,5.126a1.26,1.26,0,0,0,.952-.568,1.208,1.208,0,0,0-.27-1.091c-2.273-1.9-.305-2.339.941-3.328a13.938,13.938,0,0,0,3.019-3.6c.194-.313-.6-1.8-1.061-1.859a42.9,42.9,0,0,0-5.676-.194q-9.169-.012-18.338.025a18.022,18.022,0,0,0-2.263.288l-.092.918,6.828,1.973-2.873,1.5,1.449,3.33c-1.34.13-2.6-.136-3.178.374-2.573,2.292-2.94.318-3.48-1.579a10.3,10.3,0,0,0-.8-1.486c-.071,3.62-1.888,2.177-3.5,1.524.267,1.367.865,2.561.57,3.462-.27.821-1.508,1.325-2.747,2.308V9.882c-2.767,2.027-3.124,4.441-3.342,7.5l2.893-2.21,1.124,1.87,1.63-1.905,1.144,2.353-4.248,2.085c1.1.562,2.035,1.451,2.627,1.263a59.721,59.721,0,0,0,6.1-2.624l2.262,2.925-.6.467L52.273,20.5l-2.224,3.651,1.551.7c-1.182.957-2.1,2.323-3.146,2.431-3,.309-6.052.108-9.63.108,1.2-3.221,3.357-6.314-1-9.029a37.381,37.381,0,0,0-.941,4.949,3.808,3.808,0,0,1-2.7,3.756,33.428,33.428,0,0,1-3.865.892L32.6,16.758l.966.1v9.274l.767.07c.906-5.03,1.811-10.059,2.738-15.211l2.252.492.612-.582A17.261,17.261,0,0,0,37.86,7.784c-2.158-2.1-2.074-3.323.346-4.777l3.375,1.321.291,1.916,2.712-1.876C43.069,1.276,42.941,1.316,40.169,1.4c-3.623.11-7.254.056-10.878-.041-1.642-.044-2.774.231-2.888,2.173a8.665,8.665,0,0,1-.661,2.085l-.615-.1-.259-3.65-.6-.089c-.449,2.1-.791,4.239-1.373,6.306-.724,2.568-.422,5.577-2.883,7.439-.451.34-1.205.278-1.82.4a5.127,5.127,0,0,1-.273-1.8c.364-1.613.969-3.172,1.343-4.784.475-2.047.817-4.125,1.216-6.19l-.671-.59L15.842,4.5l-.411-.243L17.48,1.86a2.75,2.75,0,0,0-.8-.252c-4.558-.1-9.118-.219-13.676-.183a2.311,2.311,0,0,0-1.578,1.4,10.289,10.289,0,0,0-.339,3.2c0,5.408.011,10.816.107,16.223.047,2.651.382,5.3.421,7.949.071,4.886.02,9.774.02,14.778L6.47,46.626c0-3.091.227-3.286,3.015-2.863l.162-3.186,3.158,1.036-.37-2.392c1.57,3.039,3.5,5.358,7.11,6.01.739.134,1.709,1.653,1.745,2.566.173,4.434.107,8.879.043,13.319-.06,4.151-.359,8.3-.307,12.451.073,5.8.475,11.592.512,17.389.011,1.708-.735,3.42-1.093,4.95a18.547,18.547,0,0,1,.856,3.777c.11,7.313.118,14.628.1,21.942a10.735,10.735,0,0,1-.57,2.413l-.734-.017a5.366,5.366,0,0,1-.359-2.1c.157-.618.859-1.1,1.321-1.638l-.628-.826a53.1,53.1,0,0,0-4.863,3.259c-.281.229.275,1.486.478,2.422l2.427-1.02c.349.422.748,1.209,1,1.165,1.982-.34,2,.928,2.007,2.254.013,3.494.039,6.989.026,10.483-.05,12.559-.132,25.117-.165,37.676-.013,4.971.12,9.944.089,14.915-.018,2.9-.175,5.809-.38,8.706-.079,1.116-.5,1.865-1.989,1.221-.813-.353-1.9-.063-2.87-.063l-.079.6-1.7-1.607-2.173,1.269.38,2.166a23.719,23.719,0,0,0,3.665,1.242,15.818,15.818,0,0,0,3.065.045c.428,1.665.854,3.089,1.146,4.541.226,1.129.283,2.292.381,3.135-1.8.122-3.453-.256-4.274.405-1.278,1.03-2.02,2.746-2.9,4.224-.125.21.14.832.4,1.047s.956.385,1.118.225c.952-.936,1.8-1.973,2.766-3.062l-.7-1.846,4.347,2.1-2.935.942c.369.615.765,1.671,1.021,1.638,2.152-.278,1.541,1.231,1.553,2.269.048,4.175-.031,8.352.105,12.523.088,2.687-.75,4.451-2.9,5.012l-.352-2.31a10.125,10.125,0,0,1-2.178.827c-2.394.288-3.352,2.1-2.271,4.187a7.032,7.032,0,0,1,.666,2.8c.1,1.888.03,3.785.03,6.209,1.307-1.465,2.177-2.534,3.15-3.5.716-.709,1.479-1.265.151-2.1-.14-.088-.115-.686.029-.931a30.813,30.813,0,0,1,1.741-2.614,11.037,11.037,0,0,1,1.12-1.15c.3.549.84,1.09.86,1.65.094,2.553.041,5.111.041,7.52l-6.008,2.176L13.8,253.57l1.094,1.4,2.357-3.168c.279,1.095.819,2.016.633,2.754a16.668,16.668,0,0,1-1.7,3.726c-1.137,2.094-.364,3.039,2.489,3.412l-.51-3.59c.529-1.788.858-3.085,1.3-4.34a14.742,14.742,0,0,1,1.053-1.983c.333.639.936,1.272.952,1.919.084,3.331-.02,6.667.016,10,.023,2.161-.578,3.912-2.936,5.006l-1.54-5.573c-2.685-.078-2.147,2.775-2.978,5.25L12.6,264.549l-1,.136v5.923l-2.545-.6c.024.9.03,1.8.078,2.7.022.406-.016,1.021.217,1.177,1.215.817,2.6,2.222,3.753,2.079,1.449-.179,1.375-1.937.743-3.278-.044-.093.112-.281.511-1.186l1.606,5.584c.93-1.518,1.567-2.4,2.035-3.358.757-1.556,1.756-1.924,3.45-.957l-1.294,1.576c.476,1.18,1.315,2.413,1.041,2.757a5.462,5.462,0,0,1-2.633,1.287,18.523,18.523,0,0,1-2.99.328c1.83,1.43,4.073,1.629,3.338,4.466-1.152-.946-2.054-1.729-3-2.455-1.54-1.179-3.178-.525-3.354,1.4a24.421,24.421,0,0,0-.039,4.467,4.183,4.183,0,0,0,1.041,1.861c.489.635,1.1,1.176,2.021,2.136-1.943-.735-3.08-1.412-4.283-1.563-1.867-.234-1.895-1.093-1.465-2.575a48.043,48.043,0,0,0,.856-4.766L8.35,283.044l-.518-1.083-2.07.771c-.455-2.183-3.5-.972-3.827-3.32l-.769.377.669,3.228c.19.827-.252,2.049.176,2.67.356.515,1.738.323,3.268.522l-1.331,4.148c1.516.3,2.04-.649,2.505-2.088a14.974,14.974,0,0,1,1.806-3l.833.414-.827,5.473c1.986-.218,5.928,2.338,6.137,3.8.055.388-.278.831-.49,1.4l-1.846-1.253-1.678,5.666,2.712,1.941-.8-4.751c2.137-.331,4.49.817,5.328-1.673l-1.717-1.013,1.377-.971c-.154-.846-.689-1.893-.368-2.421a7.236,7.236,0,0,1,2.648-2.412c.285-.158,1.766.858,1.783,1.367.11,3.116.737,6.352-1.242,9.2-.123.177-.084.465-.139.821h1.447c0,3.171.157,6.241-.047,9.288-.184,2.754-.69,2.966-3.143,2.289-.744.785-1.322,1.914-2.152,2.148a15.085,15.085,0,0,1-4.008.093l-.452,6.2c-.359.027-1.042.057-1.72.136-.608.071-1.209.2-1.813.3.453.683.8,1.793,1.386,1.937.7.173,1.6-.528,2.434-.75a8.016,8.016,0,0,1,1.53-.151c-1.329,2.147-2.391,3.864-3.454,5.58.513-1.981-.859-1.854-1.918-1.789l.312-2.29-3.638,1.278c.2.322.283.585.461.719,2.423,1.828,2.41,1.8,0,3.416a1.316,1.316,0,0,0-.373,1.224,1.435,1.435,0,0,0,1.165.559,23.732,23.732,0,0,0,2.714-.4,15.405,15.405,0,0,1,.236,2.838c-.241,2.1,1.9,2.268,2.649,3.489,1.068,1.745,1.823,1.579,3.226.325.892-.8,2.337-.976,3.565-1.444.938,3.665-2.624,2.482-3.566,4.385,1.822.665,3.53,1.248,5.2,1.924a2.71,2.71,0,0,1,1.206,1.027,1.135,1.135,0,0,1-.406,1,2.916,2.916,0,0,1-1.322-.291c-.634-.209-1.255-.458-2.52-.926l1.586,3.206c-1.677.241-3.311,1.011-4.232.5A5.431,5.431,0,0,0,8.506,346.467ZM368.3,6.68c.828-1.069,2.229-2.074,2.355-3.219.216-1.965-1.511-2.161-3.149-2.114-4.057.117-8.116.144-12.174.234-1.717.038-3.572-.219-4.894,2.327l5.225,4.68-.241.575-3.339-.678-.841,3.425c-1.6-1.931-3.337-3.265-3.914-4.987-.361-1.079,1.02-2.74,1.771-4.492L343.4,1.4l.486,1.625-3.566-1.567-.651.828c2.336,1.83,4.2,3.882,3.794,6.729-1.711,1.081-3.245,2.137-4.878,3.006-.313.167-1.193-.259-1.5-.654a32.144,32.144,0,0,1-1.956-3.094l2.454-1.063c-.638-1.223-1.129-2.162-1.461-2.8-1.224-.188-2.138-.388-3.061-.443a3.617,3.617,0,0,0-1.22.39c.259.358.441.861.791,1.045a28.215,28.215,0,0,0,2.994,1.129l-4.467,1.785a6.7,6.7,0,0,1,.221,2.066c-.746,3.007-.419,3.384,2.931,2.7.4,1.172,1.232,2.417,1.126,3.575-.229,2.53,1.521,2.943,3.049,2.82,3.311-.267,6.547.708,9.977-.166,2.238-.57,4.811-1.682,7.372-.63.219.09.711-.343,1.008-.609,1.392-1.249,3.633-1.258,4.5.283,1.119,2,2.1,1.209,3.893-.462l-2.143-.511a9.349,9.349,0,0,1,3.125-.471c.6-.062,1.526-.311,1.671-.708a12.344,12.344,0,0,0,.209-2.635c.027-.215.434-.384.7-.605,1.22,3.03,1.008,6.686,4.681,8.387.165-.727.286-1.264.283-1.251l4.635-1.625c-3.107-2.185-3.484-5.361-1.361-8.178-1.2-1.173-2.6-2.175-4.129-.948-.782.626-.973,1.991-1.567,3.328l-1.7-.947C371.078,8.936,367.31,8.291,368.3,6.68ZM123.331,14.171c3.27,1.535,7.269-.252,9.444,3.062,2.864-3.032,2.838-3.019,1.114-6.606a10.367,10.367,0,0,1-1.032-3.055c-.254-1.947-.281-3.924-.389-5.661H115.645l.544,2.883-2.683-.958c-.7,3.256.262,4.485,3.075,3.976,1.741-.315,2.714.089,3.01,1.931.329,2.045,1.159,3.246,3.549,2.1,1-.478,2.234-.448,4-.762ZM112.436,1.8c-5.367,0-10.741-.069-16.112.032-2.375.044-3.393,2.316-2.066,4.3a11.157,11.157,0,0,1,1.566,2.206c.186.546-.207,1.854-.493,1.9a2.284,2.284,0,0,0-2.175,2.715c.011.31-.374.7-.669.944-2.158,1.764-1.954,3.11.686,4.21l.822-4,.739-.436.461,1.917.588-.465.779-2.933,3.712,1.287.365-.575c-1.088-1.516-2.352-3.041.258-4.183,1.24-.542,2.457-1.137,3.73-1.729,1.977,1.935,3.033,1.978,4.807-.3A47.609,47.609,0,0,0,112.436,1.8ZM88.809,11.568c-.653-.349-1.387-.5-1.7-.952-.78-1.129,1.008-5.692,2.29-6.367A20.128,20.128,0,0,0,91.713,2.6L91.3,1.74H81.464a4.059,4.059,0,0,1-2.551,5.806c-.645,2-.126,3.069,2.171,3.24A10.725,10.725,0,0,1,84.6,12a30.945,30.945,0,0,1,2.92,1.74l.177.905c.882-.808,2.232-1.461,2.558-2.452C91.2,9.322,90.746,6,89.346,5.08Zm59.456,5.884c1.544-3.639,1.544-3.639-.624-5.319-.492.811-.978,1.612-1.566,2.579-2.71-3.616-2.137-7.273-1.43-10.956l2.993.54.171-.738c-.645-.487-1.248-1.312-1.942-1.4a47.677,47.677,0,0,0-5.338-.113c.043,1.064.094,2.127.128,3.19a11.752,11.752,0,0,1-.012,1.49c-.286,2.958-.54,5.921-.91,8.869-.213,1.705.554,2.484,2.117,2.7.568.077,1.263-.105,1.7.162,1.689,1.039,2.365.355,2.408-1.372ZM1.88,363.757.828,363.6c.48,1.594.587,3.49,1.555,4.69a4.97,4.97,0,0,0,3.993,1.671c1.286-.255,2.262-1.892.993-3.6-.173-.232.159-.859.288-1.294.673-2.275,1.356-4.547,2.124-7.115l-2.033.722c.205-.667.436-1.035.392-1.367a7.076,7.076,0,0,0-.5-1.441c-.39.21-.928.322-1.142.647-.893,1.358-1.663,2.8-2.528,4.174C3.314,361.737,2.58,362.737,1.88,363.757Zm.11,76.832-.673.067c-.045.61-.128,1.22-.128,1.83,0,5.517.2,11.042-.036,16.548-.109,2.6,1.088,3.057,3.38,3.222,0-4.049.2-7.949-.085-11.813-.144-1.947-.1-3.36,1.919-3.938-.338-3.231-2.444-.834-3.657-1.334ZM1.972,211.907l.982.063a17.973,17.973,0,0,0,.308-3.534c-.188-1.8-.612-3.482,1.873-4.09.514-.126,1.286-1.421,1.167-1.573-1.739-2.219-.114-4.2.226-6.285A3.851,3.851,0,0,0,5.78,194a1.806,1.806,0,0,0-1.751-.189c-1.06,1.158-2.683,2.491-2.706,3.785C1.239,202.359,1.71,207.135,1.972,211.907ZM143.519,454.965l-2.573-.466.65,2.743-1.061,3.079,1.221.935c.312-.646.61-1.3.94-1.936.282-.547.6-1.075,1.062-1.9,1.518,3.662,1.769,3.792,4.374,2.541l-1.46-2.225,3.151-.614-2.154-1.683.671-.114a13.194,13.194,0,0,0-.347-3.255c-.555-1.525-1.729-2-3.37-1.358a16.916,16.916,0,0,1-3.08.592ZM381.572,2.267c-2.287-.334-4.172-.678-6.073-.856a6.447,6.447,0,0,0-2.681.31c-.37.131-.841,1.189-.681,1.415,1.834,2.609,3.246,5.734,6.88,6.34.424-.818.627-1.924,1.269-2.322C382.724,5.641,381.835,3.681,381.572,2.267ZM178.751,448.75c-5.611.685-6.551,1.465-7.046,5.694l5,2.884c1.358-.852,3.927-1.246,3.17-4.255,1.345-.325,3.219.041,2.285-2.313l-3.412,1.29Zm-39.74-5.8c.718.876,1.114,1.7,1.426,1.67.693-.068,1.922-.58,1.913-.882a25.512,25.512,0,0,0-.728-4.142c-3.018.99-6.355.693-8.351,4.16,1.7.105,3.477-.218,2.879,2.071l-1.678-.5-.344.782L137.8,448C138.272,446.038,138.58,444.751,139.011,442.946ZM5.936,271.2l-2.244,1.754c3.145.8,3.2.737,3.945-4.311l-3.106.218L3.737,261.9l.7-.306-3-.59-.7.522,2.14,5.966-1.464-.9C.194,271.01,4.21,269.706,5.936,271.2ZM327.714,14.091c-.212-2.147-.358-3.631-.531-5.387l-2.948,1.9.937,1.787-4.368-.94.928,2.568-2.6,2.766c2.908,1.978,2.36-1.92,4.1-1.936A25.553,25.553,0,0,0,327.714,14.091ZM3.658,230.335l-.44-.48,2.65-3.386c-4.988,1.4-5.086,1.586-4.339,7.4l3.239.662,1.343-6.195Zm.664-17.091.168.941-.653,2.8c2.47-.647,5.6-.079,6.979-2.555.717-1.287-.364-3.575-.633-5.412l-.949.085c-.082,1.064-.159,2.129-.25,3.193-.05.59-.124,1.178-.188,1.767-.6-.079-1.208-.131-1.8-.243C6.1,213.648,5.212,213.437,4.322,213.244ZM199.314,459.607l1.321.874c.56-.9,1.081-1.83,1.69-2.7a20.586,20.586,0,0,1,2.228-2.836,17.422,17.422,0,0,1,2.661-1.765,13.678,13.678,0,0,0-2.2-1.722,21.408,21.408,0,0,0-2.948-.929c.5.941,1.006,1.878,1.5,2.825.07.135.059.313,0-.054ZM153.354,9.888A24.618,24.618,0,0,0,156.5,8.171c1.108-.841,2.893-1.9,2.875-2.831-.021-1.156-1.593-2.284-2.537-3.477ZM13.308,76.281l.406-2.925c-3.632.726-7.063,3.652-7.346,6.422a27.593,27.593,0,0,0,3.371-1.24C11,77.887,12.15,77.026,13.308,76.281ZM137.5,449.527c-2.541-2.342-5.155-.092-7.729-.258-.18-.012-.6.619-.555.681a16.064,16.064,0,0,0,2.574,3.041c.372.294,1.433-.281,2.179-.46l-.179-.6-1.287-.347-.1-.66ZM90.567,17.922l-.2-.917a36.4,36.4,0,0,0-4.7-1.765c-1.34-.314-2.717.756-1.806,1.862.935,1.135,2.873,1.593,4.461,1.968C88.944,19.218,89.811,18.335,90.567,17.922ZM17.349,58.853c-2.541-1.371-2.832-1.431-3.921.39-1.174,1.966-2.052,4.109-3.015,6.085l2.94,1.193c0-1.656-.49-3.424.133-4.605C14.148,60.663,15.864,59.965,17.349,58.853ZM75.027,15.985c-.675.453-1.321.958-2.032,1.345-1.359.741-1.71,1.743-1.337,2.785a26.748,26.748,0,0,0,3.022-.751c.866-.328,2.271-.748,2.365-1.309C77.289,16.61,76.738,15.253,75.027,15.985ZM12.6,392.87c2.18-1.891,4.025-3.319,6.639-1.7V388.08c-1.594-.068-3-.167-4.4-.157a1.2,1.2,0,0,0-.926.589C13.483,389.682,13.175,390.9,12.6,392.87Zm51.815,54.891-.862,2.281.683.359,2.938-4.1-5.785-2.571-.608.888ZM372.54,22.6c-.573,2.217-.189,3.99,2.6,4.4.685.1,1.368.214,2.052.321-.247-.869-.226-2.056-.8-2.539A22.156,22.156,0,0,0,372.54,22.6ZM49.437,462.308a7.748,7.748,0,0,0-.23-2.327,18.023,18.023,0,0,0-1.7-2.641,14.524,14.524,0,0,0-1.542,3.2c-.078.337,1.091,1.1,1.8,1.442A5.2,5.2,0,0,0,49.437,462.308Zm104.312-6.623c.6,5.139,3.256,7.529,5.472,6.23ZM153.671,6.637c.292-1.653,1.263-3.447-.56-4.757a2.9,2.9,0,0,0-4.15,1.445C152.809,1.409,151.134,6.45,153.671,6.637ZM4.711,188.671c-1.258-1.414-2.407-2.708-3.358-3.778-.391,3.256-.109,4.305,1.439,4.657a4.285,4.285,0,0,0,5.165-2.832ZM14.153,426.24v5.716l3.22-1.557-1.672-.963,1.953-1.5ZM8.841,451.378l.511.8c.812-.4,2.219-.679,2.326-1.218a25.584,25.584,0,0,0,.112-4.913l-.988-.157Zm193.4-2.179c3.535-.079,1.473-3.439,2.8-5.044-1.611-.346-3.058-.894-3.117,1.3A34.689,34.689,0,0,0,202.241,449.2ZM74.332,22.436l.794,2.307c3.361-2.116,3.962-3.3,3.2-5.034ZM8.773,119l.646.771,3.3-2.682L9.939,114.3ZM.887,134.612l1.1.731c1.035-1.249,2.115-2.466,3.067-3.775.178-.246-.041-.957-.3-1.275a1.134,1.134,0,0,0-1.094.026C2.687,131.712,1.8,133.172.887,134.612ZM166.725,15.6c.346,1.384,1.111,2.909,2.827,2.32.856-.293,1.2-2.07,2.11-3.8ZM3.145,387.765l-1.121.082.391,8.134.862-.022C4.566,393.226,2.926,390.5,3.145,387.765Zm174.391,50.808-2.675,3.276c.929.2,1.961.751,2.766.518C179.483,441.829,178.723,440.585,177.536,438.573ZM144.851,19.51c-.587,1.172-1.106,1.782-.972,2.011.676,1.158,1.521,2.217,2.307,3.311.345-.476,1.086-1.123.967-1.4A36.61,36.61,0,0,0,144.851,19.51ZM15.153,50.667l-.917-.183-.871,5.395C16.285,54.7,16.545,53.767,15.153,50.667ZM116.652,13.6a12.827,12.827,0,0,0-1.019-2c-1.586.493-3.122,1.149-4.67,1.767l.3.89ZM18.714,355.152c1.736-2.445,1.709-4-.076-5.352C18.381,351.564,15.671,353.24,18.714,355.152Zm92.173,91.44.741-.02c1.083-2.324.616-6.057-1.111-6.479ZM8.5,109.554a25.17,25.17,0,0,0,2.535,1.917,6.211,6.211,0,0,0,1.607.575l-2.419-4.619Zm52.711,352.3c3.4.843,4.117.346,5-3.531Zm180.362-18.575,1.173,1.074a28.026,28.026,0,0,0,2.5-2.287,11.871,11.871,0,0,0-1.229-1.49Zm11.637-435c1.113.664,1.81,1.367,2.15,1.223a8.187,8.187,0,0,0,1.949-1.625c-.444-.479-1.03-1.43-1.305-1.347A13.312,13.312,0,0,0,253.214,8.277ZM59.823,12.032c2.259,2.047,4.889,1.8,5.644,0ZM14.364,377.818l.824-2.551-2.577-.7.173-3.073-.227-.028-1.1,3.964ZM324.679,1.857l.013-.737c-1.964.407-3.938.778-5.873,1.294-.147.04-.019,1.108-.019,1.282ZM57.838,445.956,60.2,443.2l-.392-.526-4.292.434C56.319,444.094,56.921,444.833,57.838,445.956ZM53.3,459.805c.817.766,1.246,1.234,1.742,1.613a14.06,14.06,0,0,0,1.469.881c.167-.491.593-1.09.443-1.45a2.8,2.8,0,0,0-1.366-1.566C55.011,459.1,54.235,459.561,53.3,459.805Zm156.144-8.41c-2.008,2.475,1.015,2.664,1.432,4.448l1.757-2.157ZM89.662,21.661l-.493-.013-.57,1.9-3.21.6c2.262,2.923,3.368-.7,5.05.15ZM16.246,86.008c.264,3.35,2.373,1.157,3.615,2.074l-.329-2.944Zm129.481,354.88-1.371,4.728,2.7.843C146.583,444.476,146.223,442.964,145.727,440.888ZM45.879,1.782l-.22.762a8.418,8.418,0,0,0,2.546.919c.621.018,1.263-.676,1.9-1.053l-.28-.628ZM18.106,438.287c-3.327-.129-3.357,2.03-4.233,3.438l.7.619ZM9.375,142.773l-.231.707,3.935,1.722.235-.621-1.631-2.618ZM293.172,1.765h-4.2C291.621,4.716,292,4.7,293.172,1.765ZM12.638,126.2l-.067-.7-3.433-1.219-.5.682c.579.659,1.048,1.615,1.772,1.884C10.994,127.064,11.885,126.449,12.638,126.2Zm271.5-117.98.183-.62a21.02,21.02,0,0,0-2.362-1.979c-.351-.223-1,.019-1.508.049.122.5.1,1.3.393,1.439A26.014,26.014,0,0,0,284.138,8.223ZM2.193,102.585l1.481,2.7,2.242-2.874L5.6,101.9ZM226.536,446.106l.07,1.292,4.127-.646-.152-1.144ZM5.171,236.578c2.509-.723,3.2-2.283,1.92-4.806ZM54.225,457.4l-.27-.755-2.515.317.387,3.055ZM324.194,3.742c1.216.418,2.223,1.01,2.445.793A9.26,9.26,0,0,0,328.01,2.17l-.715-.518ZM95,449.122l-.805.483a11.365,11.365,0,0,0,1.658,2.305c.273.238,1.143-.209,2.161-.439ZM294.9,4.11l-.755,1.09c.815.533,1.615,1.092,2.471,1.548.068.036.52-.649.794-1Zm-33.759,1.5V1.7l-2.427-.138ZM10.044,194.313l-1.244.672L11,198.87l.62-.369Zm60.062,265.2a10.081,10.081,0,0,0-1.28,1.915c-.051.136.827.9,1.076.812a7.06,7.06,0,0,0,1.672-1.183ZM20.032,79.774c-1.016-2.344-1.9-2.24-3.907.428Zm291.654-61.52-.861-.281q-.7,2.12-1.409,4.237l1,.318ZM1.248,122.942l2.254,1.4,1.767-1.974-.357-.7Zm.358,116.283.766-.09.31-3.943c-.368.107-1.247.234-1.251.385C1.4,236.79,1.526,238.009,1.606,239.225ZM315.272,5.008l.789-.832A21.6,21.6,0,0,0,314,2.377c-.136-.1-.684.4-1.043.621ZM1.542,111.234l-.431,4.09C3.714,113.166,3.714,113.166,1.542,111.234ZM1.41,278.652l2.271.353.331-2.761-.65-.189Zm9.525-191v3.158l.626.247a12.508,12.508,0,0,0,1.159-2.317C12.764,88.594,11.725,88.127,10.935,87.656Zm159-85.726c-2.934-.041-3.274.377-2.562,2.776ZM4.612,76.542c2.565-.139,2.81-.557,2.053-3.236Z"/>
        <path class="cls-1" d="M404.439,30.594c-.927.947-2.3,1.746-2.673,2.877a5.223,5.223,0,0,1-2.661,3.513c-1.493.743-3.211,1.422-3.04,3.716.031.407-.963.89-1.516,1.366-.3-2.733-.575-5.181-.868-7.816l4.371,2.768c.182-2.362-.166-4.378.595-5.8.689-1.286,2.589-1.923,4.065-2.92-2.276-1.547-4.817-1.173-6.978-.294v5.3c-3.481.724-4.111-.186-2.767-4.546-2.532.3-4.555.917-5.437,3.722l-.9-.6c.265-.766.49-1.55.8-2.295.41-.971.892-1.912,1.527-3.256h-5.278c.944-.825,1.387-1.546,1.925-1.625,2.316-.341,4.65-.474,5.119,2.666,4.486-1.378,2.854-4.8,2.94-7.623a15.565,15.565,0,0,1,.317-4.134,7.746,7.746,0,0,0-1.111-6.755l-.841-.1c-.265,1.966-1.159,4.109-.666,5.863,1.076,3.832-1.931,5.733-3.274,8.392-.213.422-1.559.2-2.335.429s-2.081.618-2.108,1.009a7.277,7.277,0,0,0,.694,3.339c.255.571,1.115.872,1.81,1.371-.888,1.371-1.877,1.567-2.777.373-1.011-1.342-2.323-2.632-1.327-4.7.322-.671-.146-1.722-.259-2.649l6.219-1.915-.122-.779-3.049-.285c.258-2.288,1.053-4.724-1.864-5.415,0-3.486.062-6.857-.028-10.223-.039-1.49.663-1.9,1.944-1.893,2.154.013,4.31-.039,6.461.048a5.423,5.423,0,0,1,1.678.64c3.665-1.522,7.522-1.149,11.411-.265Z"/>
        <path class="cls-1" d="M368.3,6.68c-.987,1.611,2.781,2.256,1.339,5.055l1.7.947c.594-1.337.785-2.7,1.567-3.328,1.534-1.227,2.933-.225,4.129.948-2.123,2.817-1.746,5.993,1.361,8.178l-4.635,1.625c0-.013-.118.524-.283,1.251-3.673-1.7-3.461-5.357-4.681-8.387-.27.221-.677.39-.7.605a12.344,12.344,0,0,1-.209,2.635c-.145.4-1.072.646-1.671.708a9.349,9.349,0,0,0-3.125.471l2.143.511c-1.8,1.671-2.774,2.458-3.893.462-.864-1.541-3.105-1.532-4.5-.283-.3.266-.789.7-1.008.609-2.561-1.052-5.134.06-7.372.63-3.43.874-6.666-.1-9.977.166-1.528.123-3.278-.29-3.049-2.82.106-1.158-.729-2.4-1.126-3.575-3.35.684-3.677.307-2.931-2.7a6.7,6.7,0,0,0-.221-2.066l4.467-1.785a28.215,28.215,0,0,1-2.994-1.129c-.35-.184-.532-.687-.791-1.045a3.617,3.617,0,0,1,1.22-.39c.923.055,1.837.255,3.061.443.332.636.823,1.575,1.461,2.8l-2.454,1.063a32.144,32.144,0,0,0,1.956,3.094c.311.395,1.191.821,1.5.654,1.633-.869,3.167-1.925,4.878-3.006.41-2.847-1.458-4.9-3.794-6.729l.651-.828,3.566,1.567L343.4,1.4l5.7,1.027c-.751,1.752-2.132,3.413-1.771,4.492.577,1.722,2.311,3.056,3.914,4.987l.841-3.425,3.339.678.241-.575-5.225-4.68c1.322-2.546,3.177-2.289,4.894-2.327,4.058-.09,8.117-.117,12.174-.234,1.638-.047,3.365.149,3.149,2.114C370.526,4.606,369.125,5.611,368.3,6.68Zm-22.4,3.768c.736.97,1.189,1.681,1.757,2.287a22.759,22.759,0,0,0,1.915,1.694c.372.317.749.82,1.152.85a1.293,1.293,0,0,0,.984-.835,1.889,1.889,0,0,0-.611-1.491C349.6,12.111,348.011,11.444,345.9,10.448Zm13.875-7.295L355.14,3.7l2.3,1.627,3.939-.745Zm-1.009,8.891-1.413.343a18.363,18.363,0,0,0,.853,2.707c.076.163.953-.047,1.46-.085Z"/>
        <path class="cls-1" d="M123.331,14.171l3.8-3.093c-1.761.314-3,.284-4,.762-2.39,1.149-3.22-.052-3.549-2.1-.3-1.842-1.269-2.246-3.01-1.931-2.813.509-3.773-.72-3.075-3.976l2.683.958-.544-2.883h16.823c.108,1.737.135,3.714.389,5.661a10.367,10.367,0,0,0,1.032,3.055c1.724,3.587,1.75,3.574-1.114,6.606C130.6,13.919,126.6,15.706,123.331,14.171Z"/>
        <path class="cls-1" d="M112.436,1.8a47.609,47.609,0,0,1-3,4.893c-1.774,2.274-2.83,2.231-4.807.3-1.273.592-2.49,1.187-3.73,1.729-2.61,1.142-1.346,2.667-.258,4.183l-.365.575-3.712-1.287-.779,2.933-.588.465-.461-1.917L94,14.1l-.822,4c-2.64-1.1-2.844-2.446-.686-4.21.3-.241.68-.634.669-.944a2.284,2.284,0,0,1,2.175-2.715c.286-.047.679-1.355.493-1.9A11.157,11.157,0,0,0,94.258,6.13c-1.327-1.985-.309-4.257,2.066-4.3C101.7,1.728,107.069,1.8,112.436,1.8Z"/>
        <path class="cls-1" d="M7.644,88.853l.213-1.768.737-.037c.16.876.33,1.751.477,2.629.271,1.61.834,2.538,2.828,2.082a21.124,21.124,0,0,1,4.594-.065l.044.978-4.288.308-.388,1.677h2.128L13,98.207l2.818,1.01.015.716-3.821,1.749c1.168,1.465,3.311,2.507,1.913,4.476-.525.741-1.838.923-2.792,1.359l-.638-.925,1.929-.917-.182-.589L7.7,104.4c-.928-1.663-1.421-3.463-2.07-3.521-1.408-.126-2.9.638-4.565,1.1L2.213,95.3l3.326,1.544-1.167,1.45,2.765.993c.226-3.064,2.454-1.725,4.463-1.8-.5-.46-.666-.756-.883-.8-3.413-.651-4.042-1.875-2.943-5.3a7.3,7.3,0,0,0-.161-2.594C7.608,88.783,7.644,88.853,7.644,88.853Z"/>
        <path class="cls-1" d="M88.809,11.568l.537-6.488c1.4.919,1.849,4.242.905,7.111-.326.991-1.676,1.644-2.558,2.452l-.177-.905A30.945,30.945,0,0,0,84.6,12a10.725,10.725,0,0,0-3.512-1.212c-2.3-.171-2.816-1.24-2.174-3.239A4.06,4.06,0,0,0,81.464,1.74H91.3l.412.863A20.128,20.128,0,0,1,89.4,4.249c-1.282.675-3.07,5.238-2.29,6.367C87.422,11.064,88.156,11.219,88.809,11.568Z"/>
        <path class="cls-1" d="M148.265,17.452l-2.308-.366c-.043,1.727-.719,2.411-2.408,1.372-.434-.267-1.129-.085-1.7-.162-1.563-.214-2.33-.993-2.117-2.7.37-2.948.624-5.911.91-8.869a11.752,11.752,0,0,0,.012-1.49c-.034-1.063-.085-2.126-.128-3.19a47.677,47.677,0,0,1,5.338.113c.694.084,1.3.909,1.942,1.4l-.171.738-2.993-.54c-.707,3.683-1.28,7.34,1.43,10.956.588-.967,1.074-1.768,1.566-2.579C149.809,13.813,149.809,13.813,148.265,17.452Z"/>
        <path class="cls-1" d="M83.339,462.26c-.648-1.157-1-2.2.2-3.359.371-.359.058-1.425.058-2.191l.745-1.935-3.219.877c.15-.589.156-1.765.544-1.908a4.972,4.972,0,0,1,3.032-.181,6.584,6.584,0,0,0,7.418-2.259c0,1.176-.313,2.242.086,2.766.415.546,1.518.567,2.059,1.141l4.239,2.73c-.32,1.6-.32,1.6-4.975.994l-.731.721,3.628,1.485-.952,1.393-4.516-1.34c-1.548,2.85-4.935.107-7.636,1.064Zm.588-2.279-.018.73c1.777,1.156,3.755.211,5.036-.7a3.607,3.607,0,0,0,1.231-4.922c-.675.966-1.534,1.629-1.5,2.249.134,2.725-1.263,3.029-3.419,2.534A4.369,4.369,0,0,0,83.927,459.981Z"/>
        <path class="cls-1" d="M1.88,363.757c.7-1.02,1.434-2.02,2.092-3.068.865-1.377,1.635-2.816,2.528-4.174.214-.325.752-.437,1.142-.647a7.076,7.076,0,0,1,.5,1.441c.044.332-.187.7-.392,1.367l2.033-.722c-.768,2.568-1.451,4.84-2.124,7.115-.129.435-.461,1.062-.288,1.294,1.269,1.706.293,3.343-.993,3.6a4.97,4.97,0,0,1-3.993-1.671c-.968-1.2-1.075-3.1-1.555-4.69Z"/>
        <path class="cls-1" d="M1.99,440.589l.72,4.582c1.213.5,3.319-1.9,3.657,1.334-2.02.578-2.063,1.991-1.919,3.938.286,3.864.085,7.764.085,11.813-2.292-.165-3.489-.623-3.38-3.222.232-5.506.041-11.031.036-16.548,0-.61.083-1.22.128-1.83Z"/>
        <path class="cls-1" d="M1.972,211.907c-.262-4.772-.733-9.548-.649-14.314.023-1.294,1.646-2.627,2.706-3.785A1.806,1.806,0,0,1,5.78,194a3.851,3.851,0,0,1,.748,2.491c-.34,2.087-1.965,4.066-.226,6.285.119.152-.653,1.447-1.167,1.573-2.485.608-2.061,2.287-1.873,4.09a17.973,17.973,0,0,1-.308,3.534Z"/>
        <path class="cls-1" d="M4.161,438.883c-2.725.228-2.874-1.847-2.927-3.607-.135-4.409-.045-8.824.1-13.357.217,2.36,1.478,3.246,3.733,3.524,2.829.349,1.212-3.346,3.853-3.368-1.071,2.531-2.066,4.892-3.071,7.25-.161.377-.582.787-.511,1.1.506,2.2.3,4.042-1.648,5.614-.392.316.24,1.9.4,2.906Z"/>
        <path class="cls-1" d="M143.519,454.965l-1.976-3.659a16.916,16.916,0,0,0,3.08-.592c1.641-.641,2.815-.167,3.37,1.358a13.194,13.194,0,0,1,.347,3.255l-.671.114,2.154,1.683-3.151.614,1.46,2.225c-2.605,1.251-2.856,1.121-4.374-2.541-.463.823-.78,1.351-1.062,1.9-.33.637-.628,1.29-.94,1.936l-1.221-.935,1.061-3.079-.65-2.743Z"/>
        <path class="cls-1" d="M7.422,252.068c-1.7,1.585-3.19,3.2-.92,5.129l-1.758,2.44H1.682c-.168-3.126-.358-6.166-.487-9.208-.111-2.608-.081-2.609,2.371-3.728a8.028,8.028,0,0,0,.746,1.666,6.432,6.432,0,0,0,1.31,1.055l-.762,2.847c2.026-1.487,2.026-1.487,2.5-.142Z"/>
        <path class="cls-1" d="M381.572,2.267c.263,1.414,1.152,3.374-1.286,4.887-.642.4-.845,1.5-1.269,2.322-3.634-.606-5.046-3.731-6.88-6.34-.16-.226.311-1.284.681-1.415a6.447,6.447,0,0,1,2.681-.31C377.4,1.589,379.285,1.933,381.572,2.267Z"/>
        <path class="cls-1" d="M178.751,448.75v3.3l3.412-1.29c.934,2.354-.94,1.988-2.285,2.313.757,3.009-1.812,3.4-3.17,4.255l-5-2.884C172.2,450.215,173.14,449.435,178.751,448.75Z"/>
        <path class="cls-1" d="M3.6,71.142a5.875,5.875,0,0,1,.111,1.9,34.339,34.339,0,0,1-1.315,3.393c-.9,2.243.016,2.675,2.339,2.3L2.29,81.467l6.217,3.869c-.16.718-3.165,1.522-.866,3.51,0,.007-.033-.063-.028-.055-1.606,1.027-3.215.5-3.647-1.29-.229-.945.052-2.072-.345-2.9-.38-.8-1.34-1.312-2.325-2.2,0-2.5-.01-5.609,0-8.72.007-1.554.641-2.548,2.367-2.478Z"/>
        <path class="cls-1" d="M139.011,442.946c-.431,1.8-.739,3.092-1.208,5.053l-3.675-1.9.344-.782,1.678.5c.6-2.289-1.179-1.966-2.879-2.071,2-3.467,5.333-3.17,8.351-4.16a25.512,25.512,0,0,1,.728,4.142c.009.3-1.22.814-1.913.882C140.125,444.647,139.729,443.822,139.011,442.946Z"/>
        <path class="cls-1" d="M321.473,7.579l.772,1.883-6.4,3.406c-2.415-.623-2.074-2.522-1.9-4.606l1.906.526a2.9,2.9,0,0,0,0-.59c-.2-.716-.411-1.427-.618-2.139a17.524,17.524,0,0,1,3.983-.076c.856.17,1.563,1.088,2.337,1.671Z"/>
        <path class="cls-1" d="M5.936,271.2c-1.726-1.491-5.742-.187-4.529-4.6l1.464.9-2.14-5.966.7-.522,3.005.59-.7.306.794,6.953,3.106-.218c-.741,5.048-.8,5.114-3.945,4.311Z"/>
        <path class="cls-1" d="M132.321,459.215l2.122-.328,2.179-.334a12.58,12.58,0,0,0-.839-2.214,5.961,5.961,0,0,0-1.262-1.208l3.237-4.1.775.37a17.828,17.828,0,0,1-.81,9.064c-.212.614-2.1.96-3.17.881-1.058-.078-2.688-.254-2.19-2.19Z"/>
        <path class="cls-1" d="M132.363,459.156c-1.973-2.3-2.867.614-4.775,1.029l.978-2.634-.341-.284c-.83.785-1.659,1.571-2.891,2.738,0-2.745-.047-4.988.039-7.226.017-.443.527-.88.861-1.278a1.329,1.329,0,0,1,.592.294c-.108.5-.3.979-.451,1.472-.089.3-.139.609-.332,1.482,3.534-.428,7.088-.623,6.282,4.46Z"/>
        <path class="cls-1" d="M5.488,387.564l-4.237-2.59a1.257,1.257,0,0,1,.159-.591c1.031-1.645,3.216-2.672,2.616-5.216-.083-.354.835-.939,1.283-1.422.688-.74,1.372-1.485,2.24-2.425L9.611,377.6l-.381.468-1.039-.528c-.884,1.14-1.766,2.21-2.56,3.341-.271.386-.59,1.191-.428,1.357,1.718,1.762-.155,3.617.222,5.386Z"/>
        <path class="cls-1" d="M8.573,346.388,4.206,348.58c-.255-1.439-.624-2.539,1.234-3.177,4.2-1.441,4.2-1.619.78-4.655l1.721-2.555c1.119,2.366,1.2,2.383,3.032.934l.981,3.764c-1.163,1.207-2.306,2.391-3.447,3.574Z"/>
        <path class="cls-1" d="M11.632,249.918c-2.374-.535-2.58-1.154-1.578-4.705l-2.387-.345A11.516,11.516,0,0,0,8.783,242.9c.369-1.083,2.378-1.428,1.427-3.125-.017-.031.688-.668.918-.594.5.161,1.313.625,1.294.921-.208,3.294-.55,6.58-.857,9.868Z"/>
        <path class="cls-1" d="M327.714,14.091a25.553,25.553,0,0,1-4.476.756c-1.742.016-1.194,3.914-4.1,1.936l2.6-2.766-.928-2.568,4.368.94-.937-1.787,2.948-1.9C327.356,10.46,327.5,11.944,327.714,14.091Z"/>
        <path class="cls-1" d="M11.565,249.974a20.738,20.738,0,0,1,.725,4.406c-.084,1.894-.571,3.653,1.02,5.3a1.391,1.391,0,0,1-.542,2.491l-2.534-3.009c-.208-1.3.607-3.577-2.017-4.672-.512-.213-.539-1.589-.793-2.427l-.069.061c.968.458,1.94.914,3.059,1.439.341-1.028.776-2.335,1.214-3.645Z"/>
        <path class="cls-1" d="M3.658,230.335l2.453-2-1.343,6.195-3.239-.662c-.747-5.814-.649-6,4.339-7.4l-2.65,3.386Z"/>
        <path class="cls-1" d="M4.322,213.244c.89.193,1.776.4,2.671.573.595.112,1.2.164,1.8.243.064-.589.138-1.177.188-1.767.091-1.064.168-2.129.25-3.193l.949-.085c.269,1.837,1.35,4.125.633,5.412-1.378,2.476-4.509,1.908-6.979,2.555l.653-2.8Z"/>
        <path class="cls-1" d="M199.314,459.607l4.246-6.3c.061.367.072.189,0,.054-.489-.947-1-1.884-1.5-2.825a21.408,21.408,0,0,1,2.948.929,13.678,13.678,0,0,1,2.2,1.722,17.422,17.422,0,0,0-2.661,1.765,20.586,20.586,0,0,0-2.228,2.836c-.609.867-1.13,1.8-1.69,2.7Z"/>
        <path class="cls-1" d="M153.354,9.888l3.481-8.025c.944,1.193,2.516,2.321,2.537,3.477.018.935-1.767,1.99-2.875,2.831A24.618,24.618,0,0,1,153.354,9.888Z"/>
        <path class="cls-1" d="M13.308,76.281c-1.158.745-2.309,1.606-3.569,2.257a27.593,27.593,0,0,1-3.371,1.24c.283-2.77,3.714-5.7,7.346-6.422Z"/>
        <path class="cls-1" d="M137.5,449.527l-5.095,1.4.1.66,1.287.347.179.6c-.746.179-1.807.754-2.179.46a16.064,16.064,0,0,1-2.574-3.041c-.047-.062.375-.693.555-.681C132.344,449.435,134.958,447.185,137.5,449.527Z"/>
        <path class="cls-1" d="M90.567,17.922c-.756.413-1.623,1.3-2.247,1.148-1.588-.375-3.526-.833-4.461-1.968-.911-1.106.466-2.176,1.806-1.862a36.4,36.4,0,0,1,4.7,1.765Z"/>
        <path class="cls-1" d="M17.349,58.853c-1.485,1.112-3.2,1.81-3.863,3.063-.623,1.181-.133,2.949-.133,4.605l-2.94-1.193c.963-1.976,1.841-4.119,3.015-6.085C14.517,57.422,14.808,57.482,17.349,58.853Z"/>
        <path class="cls-1" d="M75.027,15.985c1.711-.732,2.262.625,2.018,2.07-.094.561-1.5.981-2.365,1.309a26.748,26.748,0,0,1-3.022.751c-.373-1.042-.022-2.044,1.337-2.785C73.706,16.943,74.352,16.438,75.027,15.985Z"/>
        <path class="cls-1" d="M83.317,462.258c-1.937-.263-3.871-.546-5.812-.774-.43-.051-1.046-.078-1.3.169-1.841,1.79-1.763-.061-2.561-1.58l7.464-.432c-.539,1.55.25,2.537,2.225,2.617C83.339,462.26,83.317,462.258,83.317,462.258Z"/>
        <path class="cls-1" d="M297.219,458.266c-.073,1.433-.126,2.484-.186,3.667l-4.251.4c.276-.665.955-1.5.755-1.951-1.163-2.6-.078-2.761,2.036-2.131A6.719,6.719,0,0,0,297.219,458.266Z"/>
        <path class="cls-1" d="M12.6,392.87c.579-1.973.887-3.188,1.315-4.358a1.2,1.2,0,0,1,.926-.589c1.4-.01,2.8.089,4.4.157v3.089C16.621,389.551,14.776,390.979,12.6,392.87Z"/>
        <path class="cls-1" d="M64.411,447.761l-3.634-3.147.608-.888L67.17,446.3l-2.938,4.1-.683-.359Z"/>
        <path class="cls-1" d="M372.54,22.6a22.156,22.156,0,0,1,3.854,2.18c.573.483.552,1.67.8,2.539-.684-.107-1.367-.22-2.052-.321C372.351,26.589,371.967,24.816,372.54,22.6Z"/>
        <path class="cls-1" d="M49.437,462.308a5.2,5.2,0,0,1-1.676-.325c-.708-.338-1.877-1.105-1.8-1.442a14.524,14.524,0,0,1,1.542-3.2,18.023,18.023,0,0,1,1.7,2.641A7.748,7.748,0,0,1,49.437,462.308Z"/>
        <path class="cls-1" d="M153.749,455.685l5.472,6.23C157.005,463.214,154.346,460.824,153.749,455.685Z"/>
        <path class="cls-1" d="M153.671,6.637c-2.537-.187-.862-5.228-4.71-3.312a2.9,2.9,0,0,1,4.15-1.445C154.934,3.19,153.963,4.984,153.671,6.637Z"/>
        <path class="cls-1" d="M4.711,188.671l3.246-1.953a4.285,4.285,0,0,1-5.165,2.832c-1.548-.352-1.83-1.4-1.439-4.657C2.3,185.963,3.453,187.257,4.711,188.671Z"/>
        <path class="cls-1" d="M14.153,426.24l3.5,1.693-1.953,1.5,1.672.963-3.22,1.557Z"/>
        <path class="cls-1" d="M8.841,451.378l1.961-5.49.988.157a25.584,25.584,0,0,1-.112,4.913c-.107.539-1.514.82-2.326,1.218Z"/>
        <path class="cls-1" d="M202.241,449.2a34.689,34.689,0,0,1-.318-3.744c.059-2.194,1.506-1.646,3.117-1.3C203.714,445.76,205.776,449.12,202.241,449.2Z"/>
        <path class="cls-1" d="M74.332,22.436l3.993-2.727c.763,1.731.162,2.918-3.2,5.034Z"/>
        <path class="cls-1" d="M8.773,119l1.166-4.7,2.78,2.786-3.3,2.682Z"/>
        <path class="cls-1" d="M321.546,7.654c-.383-.912-.5-1.534.9-1.565,1.837-.04,3.669-.314,5.472-.485-.226,1.947-3.164,2.91-6.446,1.975Z"/>
        <path class="cls-1" d="M.887,134.612c.915-1.44,1.8-2.9,2.78-4.293a1.134,1.134,0,0,1,1.094-.026c.256.318.475,1.029.3,1.275-.952,1.309-2.032,2.526-3.067,3.775Z"/>
        <path class="cls-1" d="M166.725,15.6l4.937-1.485c-.906,1.735-1.254,3.512-2.11,3.805C167.836,18.5,167.071,16.979,166.725,15.6Z"/>
        <path class="cls-1" d="M3.145,387.765c-.219,2.731,1.421,5.461.132,8.194l-.862.022-.391-8.134Z"/>
        <path class="cls-1" d="M177.536,438.573c1.187,2.012,1.947,3.256.091,3.794-.805.233-1.837-.322-2.766-.518Z"/>
        <path class="cls-1" d="M144.851,19.51a36.61,36.61,0,0,1,2.3,3.925c.119.274-.622.921-.967,1.4-.786-1.094-1.631-2.153-2.307-3.311C143.745,21.292,144.264,20.682,144.851,19.51Z"/>
        <path class="cls-1" d="M4.1,438.941,7.211,442.6l-.455.664c-1-.109-2.824-.126-2.847-.341a20.007,20.007,0,0,1,.249-4.039Z"/>
        <path class="cls-1" d="M15.153,50.667c1.392,3.1,1.132,4.028-1.788,5.212l.871-5.395Z"/>
        <path class="cls-1" d="M29.486,442.967a9.643,9.643,0,0,1-2.442,1.8c-.391.135-1.644-.817-1.664-1.309a8.953,8.953,0,0,1,.841-2.864l.782.186.309,2.259h2.24Z"/>
        <path class="cls-1" d="M116.652,13.6l-5.389.659-.3-.89c1.548-.618,3.084-1.274,4.67-1.767A12.827,12.827,0,0,1,116.652,13.6Z"/>
        <path class="cls-1" d="M18.714,355.152c-3.043-1.912-.333-3.588-.076-5.352C20.423,351.153,20.45,352.707,18.714,355.152Z"/>
        <path class="cls-1" d="M110.887,446.592l-.37-6.5c1.727.422,2.194,4.155,1.111,6.479Z"/>
        <path class="cls-1" d="M8.5,109.554l1.723-2.127,2.419,4.619a6.211,6.211,0,0,1-1.607-.575A25.17,25.17,0,0,1,8.5,109.554Z"/>
        <path class="cls-1" d="M61.215,461.856l5-3.531C65.332,462.2,64.618,462.7,61.215,461.856Z"/>
        <path class="cls-1" d="M241.577,443.281l2.445-2.7a11.871,11.871,0,0,1,1.229,1.49,28.026,28.026,0,0,1-2.5,2.287Z"/>
        <path class="cls-1" d="M253.214,8.277a13.312,13.312,0,0,1,2.794-1.749c.275-.083.861.868,1.305,1.347A8.187,8.187,0,0,1,255.364,9.5C255.024,9.644,254.327,8.941,253.214,8.277Z"/>
        <path class="cls-1" d="M59.823,12.032h5.644C64.712,13.831,62.082,14.079,59.823,12.032Z"/>
        <path class="cls-1" d="M14.364,377.818l-2.908-2.39,1.1-3.964.227.028-.173,3.073,2.577.7Z"/>
        <path class="cls-1" d="M324.679,1.857,318.8,3.7c0-.174-.128-1.242.019-1.282,1.935-.516,3.909-.887,5.873-1.294Z"/>
        <path class="cls-1" d="M57.838,445.956c-.917-1.123-1.519-1.862-2.325-2.85l4.292-.434.392.526Z"/>
        <path class="cls-1" d="M53.3,459.805c.938-.244,1.714-.7,2.288-.522a2.8,2.8,0,0,1,1.366,1.566c.15.36-.276.959-.443,1.45a14.06,14.06,0,0,1-1.469-.881C54.543,461.039,54.114,460.571,53.3,459.805Z"/>
        <path class="cls-1" d="M209.441,451.4l3.189,2.291-1.757,2.157C210.456,454.059,207.433,453.87,209.441,451.4Z"/>
        <path class="cls-1" d="M75.354,455.41l-1.264-1.869c2.139-1.5,2.768-1.247,4.153,2.192l-2.956-.375Z"/>
        <path class="cls-1" d="M89.662,21.661l.777,2.64c-1.682-.854-2.788,2.773-5.05-.15l3.21-.6.57-1.9Z"/>
        <path class="cls-1" d="M16.246,86.008l3.286-.87.329,2.944C18.619,87.165,16.51,89.358,16.246,86.008Z"/>
        <path class="cls-1" d="M145.727,440.888c.5,2.076.856,3.588,1.329,5.571l-2.7-.843Z"/>
        <path class="cls-1" d="M45.879,1.782H49.82l.28.628c-.632.377-1.274,1.071-1.9,1.053a8.418,8.418,0,0,1-2.546-.919Z"/>
        <path class="cls-1" d="M18.106,438.287l-3.538,4.057-.7-.619C14.749,440.317,14.779,438.158,18.106,438.287Z"/>
        <path class="cls-1" d="M9.375,142.773l2.308-.81,1.631,2.618-.235.621L9.144,143.48Z"/>
        <path class="cls-1" d="M75.287,455.358a1.813,1.813,0,0,1-.865,2.974c-.678.248-1.834-.81-3.207-1.5,1.9-.648,3.026-1.031,4.144-1.418Z"/>
        <path class="cls-1" d="M293.172,1.765c-1.17,2.939-1.551,2.951-4.2,0Z"/>
        <path class="cls-1" d="M12.638,126.2c-.753.246-1.644.861-2.225.644-.724-.269-1.193-1.225-1.772-1.884l.5-.682,3.433,1.219Z"/>
        <path class="cls-1" d="M284.138,8.223a26.014,26.014,0,0,1-3.294-1.111c-.293-.138-.271-.941-.393-1.439.512-.03,1.157-.272,1.508-.049A21.02,21.02,0,0,1,284.321,7.6Z"/>
        <path class="cls-1" d="M2.193,102.585l3.4-.683.321.508-2.242,2.874Z"/>
        <path class="cls-1" d="M226.536,446.106l4.045-.5.152,1.144-4.127.646Z"/>
        <path class="cls-1" d="M5.171,236.578l1.92-4.806C8.372,234.3,7.68,235.855,5.171,236.578Z"/>
        <path class="cls-1" d="M54.225,457.4l-2.4,2.617-.387-3.055,2.515-.317Z"/>
        <path class="cls-1" d="M324.194,3.742l3.1-2.09.715.518a9.26,9.26,0,0,1-1.371,2.365C326.417,4.752,325.41,4.16,324.194,3.742Z"/>
        <path class="cls-1" d="M3.667,71.2c-.678-.612-.916-2.815-2.787-.923l1.48-2.248c.592.438,1.4.765,1.7,1.351.206.4-.291,1.16-.469,1.762Z"/>
        <path class="cls-1" d="M95,449.122l3.014,2.349c-1.018.23-1.888.677-2.161.439a11.365,11.365,0,0,1-1.658-2.305Z"/>
        <path class="cls-1" d="M294.9,4.11l2.51,1.639c-.274.35-.726,1.035-.794,1-.856-.456-1.656-1.015-2.471-1.548Z"/>
        <path class="cls-1" d="M261.137,5.614l-2.427-4.05,2.427.138Z"/>
        <path class="cls-1" d="M10.044,194.313l1.58,4.188-.62.369-2.2-3.885Z"/>
        <path class="cls-1" d="M70.106,459.514l1.468,1.544a7.06,7.06,0,0,1-1.672,1.183c-.249.089-1.127-.676-1.076-.812A10.081,10.081,0,0,1,70.106,459.514Z"/>
        <path class="cls-1" d="M20.032,79.774l-3.907.428C18.131,77.534,19.016,77.43,20.032,79.774Z"/>
        <path class="cls-1" d="M311.686,18.254l-1.269,4.274-1-.318q.705-2.118,1.409-4.237Z"/>
        <path class="cls-1" d="M1.248,122.942l3.664-1.27.357.7L3.5,124.344Z"/>
        <path class="cls-1" d="M1.606,239.225c-.08-1.216-.21-2.435-.175-3.648,0-.151.883-.278,1.251-.385l-.31,3.943Z"/>
        <path class="cls-1" d="M315.272,5.008,312.957,3c.359-.222.907-.717,1.043-.621a21.6,21.6,0,0,1,2.061,1.8Z"/>
        <path class="cls-1" d="M1.542,111.234c2.172,1.932,2.172,1.932-.431,4.09Z"/>
        <path class="cls-1" d="M1.41,278.652l1.952-2.6.65.189-.331,2.761Z"/>
        <path class="cls-1" d="M10.935,87.656c.79.471,1.829.938,1.785,1.088a12.508,12.508,0,0,1-1.159,2.317l-.626-.247Z"/>
        <path class="cls-1" d="M169.931,1.93l-2.562,2.776C166.657,2.307,167,1.889,169.931,1.93Z"/>
        <path class="cls-1" d="M4.612,76.542l2.053-3.236C7.422,75.985,7.177,76.4,4.612,76.542Z"/>
        <path class="cls-1" d="M16.389,34.725A8.514,8.514,0,0,0,15.2,32.649c-1.008-1.082-2.248-1.944-3.349-2.943-.941-.856-1.473-1.81-.488-3.025a2.234,2.234,0,0,0,.479-1.128c.35-3.7.339-3.7,3.438-6.684,3.687,2.643,4.629-3.244,7.923-2.393l.771-3.3c.639,1.169,1.441,2.078,1.255,2.378-2.5,4.048,1.024,5.271,3.212,7.128a1.351,1.351,0,0,1,.215.349L24.609,25.9c.212,1.6.464,3.224.62,4.861a1.774,1.774,0,0,1-.426,1.135,14.944,14.944,0,0,0-3.351,9.451c-.02.785-.937,1.618-1.611,2.246-.114.106-1.056-.809-1.688-1.091a18.407,18.407,0,0,0-2.491-.7l2.166-4.036-.682-.527-2.727,2.373a6.34,6.34,0,0,0-.223-2.058,8.834,8.834,0,0,0-1.6-2.072c-.557-.588-1.44-.964-1.779-1.635a6.166,6.166,0,0,1-.172-2.336,9.534,9.534,0,0,1,2.109.7C14.085,33.022,15.326,33.978,16.389,34.725Z"/>
        <path class="cls-1" d="M20.665,331.393c-4.091,1.561-3.393-3.187-5.845-3.354l3.717-.946,0-.776-4.381-1.234a17.866,17.866,0,0,1,3.53-2.023,3.9,3.9,0,0,1,2.859.378,2.389,2.389,0,0,1,.136,2.318C18.961,327.536,18.012,329.211,20.665,331.393Z"/>
        <path class="cls-1" d="M219.893,15.77l6.316,1.571-.025.544a18.892,18.892,0,0,1-2.1.933c-1.134.355-2.3.6-3.458.891C220.409,18.56,220.2,17.412,219.893,15.77Z"/>
        <path class="cls-1" d="M15.713,318.9a2.662,2.662,0,0,1,3.548-1.806c2.127.547,2.26,2.087,1.367,3.983Z"/>
        <path class="cls-1" d="M21.694,283.693l-4.322,5.483C15.779,286.256,16.159,285.742,21.694,283.693Z"/>
        <path class="cls-1" d="M13.5,13.852c-2.4-1.559-2.468-3.643-.263-6.985,0,.607.009,1.214,0,1.82-.012.668-.088,1.338-.054,2C13.222,11.553,13.346,12.411,13.5,13.852Z"/>
        <path class="cls-1" d="M34,449.177l-4.8,3.081-.641-1c2.313-.011,1.863-4.257,4.96-3.065Z"/>
        <path class="cls-1" d="M188.748,24.9c-1.036,0-2.5.039-3.969-.03a1.2,1.2,0,0,1-.9-.646c-.08-.263.266-.937.458-.95a8.022,8.022,0,0,1,3.152.1C188.142,23.608,188.523,24.606,188.748,24.9Z"/>
        <path class="cls-1" d="M18.345,414.269l1.123,1.781,1.649-2.225a7.184,7.184,0,0,1,.248,1.308c-.036,1.378-.693,1.952-2.107,1.628-.777-.178-1.589-.2-2.863-.354.809-.878,1.392-1.511,1.987-2.15C18.393,414.251,18.345,414.269,18.345,414.269Z"/>
        <path class="cls-1" d="M207.207,5.755c-1.32.614-2.618,1.289-3.98,1.785-.232.085-.742-.593-1.123-.919a4.884,4.884,0,0,1,1.106-.6c1.207-.295,2.434-.513,3.653-.76Z"/>
        <path class="cls-1" d="M100.472,454.245l2.193-3.234c.344,1.3.822,2.152.594,2.438a8.96,8.96,0,0,1-2.113,1.515Z"/>
        <path class="cls-1" d="M222.638,12.489c-.026-3.647.512-4.347,2.361-3.73Z"/>
        <path class="cls-1" d="M14.618,399.033c-.072-3.692,2.218-2.073,3.323-2.6l.332.605Z"/>
        <path class="cls-1" d="M186.735,17.617l2.843-2.3.784,1.047-2.975,2.126Z"/>
        <path class="cls-1" d="M345.9,10.448c2.115,1,3.7,1.663,5.2,2.5a1.889,1.889,0,0,1,.611,1.491,1.293,1.293,0,0,1-.984.835c-.4-.03-.78-.533-1.152-.85a22.759,22.759,0,0,1-1.915-1.694C347.085,12.129,346.632,11.418,345.9,10.448Z"/>
        <path class="cls-1" d="M359.771,3.153l1.61,1.433-3.939.745L355.14,3.7Z"/>
        <path class="cls-1" d="M358.762,12.044l.9,2.965c-.507.038-1.384.248-1.46.085a18.363,18.363,0,0,1-.853-2.707Z"/>
        <path class="cls-1" d="M83.927,459.981a4.369,4.369,0,0,1,1.326-.112c2.156.495,3.553.191,3.419-2.534-.03-.62.829-1.283,1.5-2.249a3.607,3.607,0,0,1-1.231,4.922c-1.281.914-3.259,1.859-5.036.7Z"/>
        <path class="cls-1" d="M243.27,61.961l.59-1.994a13.84,13.84,0,0,1,2.294-1.193,3.091,3.091,0,0,1,2.071.013c1.516.687,2.938,1.583,4.48,2.441-1.078.39-3.217-.972-3.67,1.646l2.261.145-.358,2.107a2.482,2.482,0,0,0,.611.276c3.19.53,6.422.879,9.569,1.6,7.042,1.6,11.794,5.7,14.484,12.622,1.951,5.017,3.2,10.186,4.74,15.3,1.576,5.241,3.174,10.476,4.726,15.724,1.958,6.621,3.835,13.266,5.827,19.877,2.085,6.919,6.486,10.282,13.656,9.969,7.049-.308,14.026-1.5,19.559-6.325,2.955-2.576,5.3-5.853,7.97-8.873,1.9,1.2,2.577,3.651,1.2,6.9a59.2,59.2,0,0,1-4.8,9.853,109.445,109.445,0,0,1-10.646,14.085,76.246,76.246,0,0,1-29.029,19.8c-7.359,2.762-11.387,8.336-14.154,14.862-3.882,9.153-6.723,18.744-10.5,27.948-2.263,5.519-5.371,10.7-8.252,15.952a14.937,14.937,0,0,0-1.171,12.274c.677,2.171.589,4.583.824,6.889.081.8.094,1.61.155,2.722,3.858-.5,7.462-.941,11.058-1.44,2.213-.308,4.406-.8,6.627-.974.446-.034,1.44,1.064,1.395,1.571-.415,4.715-.76,9.458-1.589,14.11-1.612,9.041.492,14.662,8.971,18.222,9.909,4.159,14.994,11.858,18.6,21.244,3.125,8.132,6.455,16.186,9.692,24.274.548,1.369,1.088,2.74,1.766,4.448-1.658.133-2.936.314-4.215.324-4.992.04-9.983.034-14.974.026-1.179,0-2.65.032-2.493-1.653.722-7.774-3.645-13.846-6.793-20.267-4.2-8.56-8.53-17.072-13.265-25.342-1.856-3.241-4.9-5.818-7.507-8.6-1.573-1.683-3.335-3.187-5.059-4.815-2.771,4.831-2.788,4.925-8.119,3.952-1.969-.359-2.145.931-2.769,2.075a10.592,10.592,0,0,1-1.522,1.758l-1.552-1.655c-1.183-1.262-2.294-2.6-3.563-3.77-2.262-2.085-2.595-3.584-.4-5.68,3.207-3.067,3.681-6.5,2.381-10.5a15.082,15.082,0,0,1-.884-3.888c-.205-4.511-2.741-7.225-6.441-9.394-6.08-3.564-12.16-7.161-17.989-11.113a51.135,51.135,0,0,1-18.176-20.747c-2.136-4.609-2.8-9.9-4.123-14.886l.616-.133c1.055,2.444,2.026,4.928,3.183,7.323,2.465,5.1,6.27,9.153,10.356,12.977,3.885,3.635,7.562,7.516,11.64,10.916,6.758,5.633,14.511,5.713,22.38,2.868a43.958,43.958,0,0,0,8.555-4.587,4.174,4.174,0,0,0,1.8-3.167c-.527-4.26,1.509-7.553,3.471-10.939,1.536-2.65,3.042-5.317,4.718-8.251-4.707-1.335-2.991-4.336-2.2-7.163,1.276-4.571,2.629-9.129,3.65-13.758.52-2.357,1.512-3.921,3.787-4.767a24.023,24.023,0,0,0,3.2-1.751l.037-.748a18.258,18.258,0,0,0-2.745-.844c-3.294-.485-6.623-.752-9.9-1.329-5.035-.887-7.394-4.7-6.41-9.717.455-2.318,2.083-3.258,3.918-4.144,1.784-.862,3.552-1.756,5.88-2.91-1.366-1.387-2.229-2.867-3.506-3.464-9.418-4.4-18.775-9-28.46-12.74-4.125-1.591-8.985-1.327-13.525-1.766-1.472-.143-3.033.439-4.475.2-3.412-.556-5.263,1.289-6.291,4.018-2.2,5.843-4.5,11.787-3.756,18.16.441,3.752,2.108,7.348,2.707,11.1,1.006,6.3,1.617,12.664,2.356,19,.2,1.7.254,3.416.38,5.183-5.447-1.985-7.754-5.579-8.033-10.8-.4-7.452-1.273-14.878-1.949-22.315a24.467,24.467,0,0,0-.386-3.468,8.039,8.039,0,0,0-1.248-3.162c-2.068-2.563-4.344-4.958-6.5-7.448-1.314-1.514-7.549-2.743-9.218-1.692a1.765,1.765,0,0,0-.647,1.234c-.486,7.432.439,14.436,5.877,20.184a13.782,13.782,0,0,0,8.012,4.579c1.849.282,1.435,1.5,1.311,2.624-.81,7.353-1.661,14.7-2.443,22.06-.193,1.814-.029,3.675-.331,5.463-.136.809-1.009,1.494-1.548,2.235-.379-.738-1.063-1.468-1.084-2.216-.108-3.814-.5-7.7.069-11.434.8-5.232-1.534-8.994-4.978-12.081-4.066-3.642-8.754-6.581-12.946-10.093a92.225,92.225,0,0,1-21.76-26.434c-2.937-5.335-5.921-10.578-7.018-16.689-1.427-7.947.783-14.921,5.854-20.9a95.656,95.656,0,0,1,10.6-10.409,24.01,24.01,0,0,1,13.3-5.791,19.176,19.176,0,0,1,7.838.877c4.774,1.608,9.4,3.68,14.017,5.721,2.082.92,2.931.5,3.874-1.643a159.463,159.463,0,0,1,8.192-16.763,38.83,38.83,0,0,1,15.43-14.832,53.092,53.092,0,0,1,18.878-5.636L237.978,63c3.578-.258,1.988-3.01,2.812-5.383,1.025,1.765,1.789,3.081,2.558,4.4-.374.578-.752,1.153-1.129,1.727l3.459.951.205-.7Zm-50.049,57.26a28.344,28.344,0,0,0-2.1-3.515c-3.388-4.015-7.48-7.143-12.644-8.345-4.333-1.008-8.673-1.654-13.2-.046-5.072,1.8-8.832,5.288-12.486,8.82-2.1,2.027-3.213,5.067-4.772,7.65l.484.775Zm18.142-1.527.5-.569c-.9-2.837-4.357-3.485-6.075-6.464l7.465-1.606c-.305-.449-.392-.694-.485-.7-3.547-.081-7.1-.233-10.641-.154a1.64,1.64,0,0,0-.84,2.848C204.569,113.378,208,115.5,211.363,117.694Zm50.457,22.032.1-.6-6.96-1.192-.121.8Zm-31.179-9.052.369-.689-6.154-3.4-.379.727Z"/>
        <path class="cls-1" d="M172.371,255.232c.815,5.8,3.29,10.619,8.267,14.018v-2.291c.829.114,1.654.269,2.487.334,2.114.166,4.3.7,6.333.353a116.2,116.2,0,0,0,14.768-3.592c-4.013.351-8.028.685-12.039,1.059-3.3.307-6.581.729-9.881.939a2.655,2.655,0,0,1-1.919-1.067,1.849,1.849,0,0,1,.168-1.8,4.281,4.281,0,0,1,2.265-.3c2.626.135,5.424.976,7.812.311,1.672-.465,3.313-2.745,4.013-4.578.89-2.33.813-5.029,1.189-7.836-3.681.313-7.182.632-10.688.894-.8.059-2,.243-2.357-.183-2.258-2.676-4.544-.492-6.738-.124A48.888,48.888,0,0,0,170,253.19c.867-3.368,8.927-12.811,11.97-14.161,1.091,1.8,2.1,3.7,3.352,5.424a4.63,4.63,0,0,0,2.554,1.944,21.214,21.214,0,0,1,13,7.14c1.914,2.069,4.232,3.767,6.114,5.861a53.912,53.912,0,0,1,3.557,5.213,9.77,9.77,0,0,0,1.636,1.7c1.468,1.266,3.342,2.232,4.411,3.766q11.62,16.676,22.929,33.566c1.016,1.513,1.326,3.482,2.151,5.147a56.582,56.582,0,0,0,3.1,5.347c.751,1.174,1.683,2.231,2.593,3.416l-1.639,1.776,11.818,18.557a29.217,29.217,0,0,1-3.256.431q-7.972.066-15.946.038c-10.452-.029-20.9-.109-31.355-.112-3.99,0-7.98.183-11.971.226-4.637.05-9.275.035-13.913.054-1.495,0-2.627-.277-2.489-2.213a120.931,120.931,0,0,0-2.163-30.518,41.9,41.9,0,0,0-1.511-6.556,23.163,23.163,0,0,1-.305-13.981c.751-2.915.062-3.4-2.962-3.414a39.02,39.02,0,0,1-7.118-.844c-1.467-.283-2.119.042-2.912,1.386-2.41,4.083-3.83,8.357-3.049,13.086.6,3.661,1.111,7.408,3.455,10.535.183.244.073.777-.02,1.146a8.147,8.147,0,0,0,2,7.8A13.576,13.576,0,0,1,168,324.8a49.468,49.468,0,0,0,.6,6.708,2.168,2.168,0,0,0,1.06,1.429c.267.131,1.066-.381,1.342-.792.646-.963,1.082-2.062,1.677-3.063a3.842,3.842,0,0,1,1.931-1.811c0,2.8-.051,5.609.019,8.412.045,1.834-.753,2.45-2.541,2.451q-5.346,0-10.692.32c-2.079.123-2.695-.826-2.916-2.729a124.954,124.954,0,0,1-.825-13.6,10.667,10.667,0,0,0-.2-1.433c-2.066-.01-1.893,1.319-1.819,2.578.246,4.152.553,8.3.689,12.457a7.244,7.244,0,0,1-.935,2.493,7.382,7.382,0,0,1-1.3-2.277c-.57-3.933-.976-7.89-1.481-12.192l-2.055,1.187-.584-.4c.508-.905,1.052-1.792,1.511-2.721.345-.7,1-1.6.8-2.157-1.108-3.061.3-6.2-.685-9.363-.971-3.121-.808-6.583-1.264-9.879-.417-3.009-1.263-5.86-3.66-8a10.371,10.371,0,0,1-1.269-1.966c2.1,0,3.8.027,5.492-.008,1.423-.029,2.339-.613,1.727-2.187-1.386-3.567-2.815-7.118-4.333-10.63a1.712,1.712,0,0,0-1.547-.625,1.851,1.851,0,0,0-1.05,1.353c-.078,1.119.142,2.26.029,3.506-3.573-5.408-6.536-11.451-14.919-11.443.72,9.2,1.432,18.286,2.143,27.373l.814.287.7-1.9c.378,1.447.554,2.123.731,2.8l-.776-.128c-.332.889-1,1.8-.941,2.663.3,4.3.831,8.583,1.219,12.877q.974,10.782,1.868,21.569c.1,1.213.118,2.4-1.622,2.469-1.568.065-1.934-.811-2.065-2.167-.66-6.855-1.409-13.7-2.077-20.556-.3-3.041-.434-6.1-.732-9.14a14.74,14.74,0,0,0-.737-2.6l-.608.116a63.479,63.479,0,0,0,.045,7.223c.72,6.26,1.675,12.492,2.5,18.741.273,2.061.438,4.137.657,6.205.116,1.089.059,2-1.4,2.074-1.333.07-2.012-.407-2.116-1.8-.267-3.563-.559-7.125-.919-10.679q-1.144-11.286-2.375-22.564c-.968-8.845-1.994-17.684-2.974-26.529-.513-4.631,1.224-7.592,5.951-9.291,6.56-2.358,13.171-4.612,19.867-6.536,2.631-.756,5.6-.973,8.218.649,2.365,1.467,4.694.455,6.994-.124a1.921,1.921,0,0,0,1.042-1.474c.029-1.905,1.344-2.624,2.755-3.148C168.644,256.2,170.413,255.8,172.371,255.232Zm-45.837,23.742c1.685-1.193,2.914-6.17,1.846-8.735a6.7,6.7,0,0,0-3.495,7.32c.989,7.5,1.91,15.019,2.886,22.525a15.819,15.819,0,0,0,.585,2.139l.715-.1a15.387,15.387,0,0,0,.107-2.062c-.421-5.471-.817-10.946-1.36-16.406A30,30,0,0,0,126.534,278.974Zm36.547-6.906c-2.783,0-5.1-.152-7.385.085-.766.08-2.011,1.138-2.024,1.769a18,18,0,0,0,.833,4.872,2.483,2.483,0,0,0,3.365,1.742c1.381-.393,3.207-.975,3.783-2.042C162.552,276.825,162.562,274.677,163.081,272.068Zm44.647,2.983a3.923,3.923,0,0,0,1.225-5.667c-.722-.989-2.011-2.32-2.962-2.256-4.383.293-8.737,1.023-13.1,1.6,4.253,3.421,8.451,4.716,12.914-.031C206.557,271.185,207.139,273.106,207.728,275.051Zm-5.475,7.4c1.454,1.47,2.815,2.695,3.984,4.082a11.791,11.791,0,0,1,1.745,3.019,17.489,17.489,0,0,1,.453,2.42c.358,1.391.585,2.885,2.411.885.894-.98,2.352-1.444,3.743-2.25-1.2-1.091-2.272-1.991-3.257-2.977-1.511-1.513-3.278-2.893-4.362-4.679C205.4,280.358,205.615,280.225,202.253,282.449ZM154.719,311l.745.348c.446-.48,1.124-.888,1.3-1.451.694-2.262-1.867-16.378-3.43-18.238C153.811,298.353,154.265,304.677,154.719,311Zm7.122-45.712a5.7,5.7,0,0,0,7.077,2.485C166.809,263.08,166.233,262.863,161.841,265.29ZM227.89,306.8l5.189,6.938C234.007,308.726,231.675,305.691,227.89,306.8Zm-71.445,5.539-.686-.119a7.08,7.08,0,0,0-.677,1.977,13.729,13.729,0,0,0,.307,3.468c.13.579.727,1.053,1.113,1.575.209-.535.627-1.085.589-1.6C156.962,315.865,156.673,314.1,156.445,312.339ZM227.5,302.033c.809-3.186.417-3.61-2.93-3.211Z"/>
        <path class="cls-1" d="M211.613,381.144H191.584l-.143-.571a5.233,5.233,0,0,1,1.311-.658c3.483-.644,4.79-1.752,5.04-5.064.222-2.961.047-5.953.047-9.276H180.35a103,103,0,0,0,1.19,11.345c.24,1.177,2.254,2.064,3.566,2.916a6.385,6.385,0,0,0,2.26.366c-1.566,1.539-16.532,1.756-20.528.168a10.872,10.872,0,0,1,1.646-.3c3.269-.1,4.832-1.522,4.875-4.677q.144-10.482.167-20.966a4.149,4.149,0,0,0-3.59-4.431c-1.034-.22-2.077-.4-3.243-.628,1.26-1.148,17.8-1.451,20.947-.319a10.523,10.523,0,0,1-1.9.805c-3.618.6-4.793,1.7-5.007,5.315-.166,2.807-.033,5.631-.033,8.637,4.857,0,9.293.019,13.729-.034a1.406,1.406,0,0,0,1.078-.768c.089-.311-.279-.887-.6-1.152-.745-.611-1.587-1.1-2.97-2.034l3.707.678c.608-1.089,1.142-2.247,1.856-3.279,1.135-1.641-.626-6.2-2.6-6.535-.241-.041-.546.091-.737-.012-.9-.49-1.775-1.033-2.658-1.557.8-.394,1.608-.771,2.4-1.184,1.616-.846,3.094-.137,4.722.1a80.987,80.987,0,0,0,9.684.345c1.171.031,2.34.105,3.51.159l.077.8c-.964.245-1.93.483-2.891.737-2.726.72-3.879,2.523-3.8,5.291.1,3.554-.1,7.114-.069,10.671.034,3.4.046,6.826.377,10.209a4.205,4.205,0,0,0,3.979,3.844c.712.1,1.432.138,2.148.2Z"/>
        <path class="cls-1" d="M79.09,364.769c7.178.141,8.46-5.127,9.631-10.678,1.606,2.272,1.667,20.7.169,22.5-1.706-4.925-3-10.181-9.847-10.6,0,2.942-.01,5.722,0,8.5.024,5.553.035,5.646,5.706,5.309,1.445-.086,2.847-.952,4.258-1.489.459-.174.881-.639,1.321-.64,4.667-.019,6.161-3.607,7.881-6.934.545-1.053,1-2.153,1.683-3.639.495.794.856,1.107.866,1.432q.174,5.487.245,10.979c.022,1.911-1.34,1.982-2.768,1.983q-9.487,0-18.974.055c-.326,0-.652.052-1.377.114l1.885,1.543-.108.459c-.459-.046-1.168.082-1.338-.163-1.87-2.7-4.5-1.727-7.022-1.674a57.986,57.986,0,0,1-6.274-.508l-.056-.885c.7-.172,1.392-.383,2.1-.508,2.8-.493,4.165-1.838,4.22-4.679.13-6.655.192-13.314.149-19.97-.021-3.283-1.091-4.472-4.36-5.519a4.6,4.6,0,0,1-2.021-.959,338.5,338.5,0,0,1,34.551-.323v12.716l-.576.145a10.412,10.412,0,0,1-.812-1.586c-2.491-7.856-5.638-10.121-13.869-9.939-5.447.12-5.414.119-5.279,5.713C79.15,358.578,79.09,361.634,79.09,364.769Z"/>
        <path class="cls-1" d="M335.91,367.745c.151.167.452.344.454.525.055,3.905.161,7.814.009,11.712-.021.561-1.287,1.49-2.019,1.533-2.486.146-4.99-.061-7.488-.076-8.07-.049-16.139-.067-24.209-.115-.693,0-1.384-.133-2.077-.2l-.053-.708a15.032,15.032,0,0,1,1.875-.394c2.85-.239,4.269-1.262,4.349-4.1.207-7.4.183-14.812.146-22.219-.01-2.081-1.284-3.346-3.352-3.756a6.936,6.936,0,0,1-2.991-1.142,3.687,3.687,0,0,1,1.216-.473c6.236.042,12.472.155,18.708.187,4.149.021,8.3.055,12.446-.144,1.881-.091,2.573.359,2.487,2.305-.129,2.9,0,5.815-.018,8.723a3.708,3.708,0,0,1-.513,1.8c-2.22-3.764-2.638-9.024-7.39-10.4-4.05-1.17-8.459-1.1-12.981-1.6,0,5.066-.048,9.521.073,13.971.012.461,1,1.235,1.592,1.285,3.13.265,5.608-1.725,6.743-5.2.485-1.487.96-2.979,1.466-4.459.03-.088.3-.1.841-.255V375.7l-.752.256a30.442,30.442,0,0,1-1.156-2.855c-1.508-5.1-4.087-7.213-8.808-6.757,0,4.151-.028,8.354.049,12.555a1.519,1.519,0,0,0,1.086,1.011c4.109-.074,8.3.649,12.119-1.821,3.389-2.2,5.342-5.388,6.99-8.885.209-.443.414-.889.665-1.307C335.477,367.8,335.712,367.8,335.91,367.745Z"/>
        <path class="cls-1" d="M230.868,364.451c7.412.99,8.582-4.441,9.721-9.9l.771.3V375.8l-.624.166c-.3-.845-.655-1.675-.9-2.537-.987-3.544-2.634-6.479-6.563-7.424-1.87-.449-2.888.042-2.78,2.18.169,3.322.27,6.649.339,9.974.029,1.4.7,1.829,2.019,1.886,7.9.341,14.456-.845,18.092-11.013a10.194,10.194,0,0,1,1.073-1.656,6.966,6.966,0,0,1,.585,1.686q.045,5.109-.008,10.22c-.011,1.169-.263,2.034-1.827,2.035-8.483.009-16.966.13-25.45.172-2.48.013-4.963-.083-7.442-.184-.323-.013-.633-.355-1.268-.737a8.217,8.217,0,0,1,1.368-.562c4.173-.694,5.3-1.89,5.342-5.989.066-6.077.075-12.154.08-18.231,0-4.127-.786-5.052-4.787-5.866a17.2,17.2,0,0,1-1.935-.632l.048-.774c1.715-.131,3.43-.377,5.144-.372,6.486.02,12.972.1,19.458.2,2.989.047,5.98.149,8.962.345.467.03,1.27.685,1.28,1.067.1,3.748.058,7.5.058,11.25l-.728.087c-.677-1.73-1.31-3.478-2.039-5.185-1.442-3.376-3.766-5.671-7.642-5.884-2.823-.154-5.65-.33-8.472-.29-.632.009-1.78.863-1.8,1.357C230.809,355.476,230.868,359.866,230.868,364.451Z"/>
        <path class="cls-1" d="M259.134,348.663a16.5,16.5,0,0,1,2.226-.3c10.47-.021,20.939-.034,31.408.03.657,0,1.868.649,1.879,1.026.134,4.345.086,8.7.086,13.047l-.794.134q-.842-2.229-1.683-4.458c-2.2-5.833-6.159-8.53-12.363-8.45-1.831.023-3.672-.094-5.487.078-.615.058-1.651.794-1.666,1.246-.131,4.052-.076,8.109-.076,12.206,7.013,1.177,8.415-3.782,9.691-8.888l.633.317V373.3l-.576.329c-1.581-4.809-2.507-10.372-10.08-8.7.252,3.86.319,7.9.856,11.882.284,2.1,2.165,3.009,4.273,3.154,1.008.069,2.013.174,3.459.3-2.282,1.548-20.278,1.577-22.563.058,1.144-.187,1.888-.329,2.638-.427,2.519-.329,4.259-1.855,4.293-4.386.095-7.146.038-14.3-.058-21.441a3.935,3.935,0,0,0-3.623-4.094c-.842-.148-1.666-.4-2.5-.6Z"/>
        <path class="cls-1" d="M97.5,297.819c-.234,5.695-3.44,9.946-6.155,14.462,2.091,2.117,2.687,4.656,2.628,7.55-.126,6.065-.038,12.134-.038,18.362a29.918,29.918,0,0,1-5.165.925c-1.389.022-2.747-.517-2.463-2.594.662-4.853,1.167-9.727,1.723-14.488l-3.041-1.979c2.211-.053,3.814-.428,3.431-2.507-.241-1.307,1.644-3.024-.776-4.02-.3-.122-.041-1.589-.041-1.7,1.095-1.507,2.147-2.453,2.577-3.628,2.561-7,4.99-14.051,7.427-21.1a8.156,8.156,0,0,1,1.077-2.725c.341.72.963,1.436.972,2.161.033,2.657-.421,5.342-.183,7.971.938,10.348,2.2,20.667,3.055,31.021a70.641,70.641,0,0,1-.451,10.918c-.046.619-.821,1.184-1.26,1.774-.354-.639-.983-1.263-1.021-1.92-.384-6.649-.653-13.305-.992-19.956-.283-5.563-.608-11.123-.94-16.682A13.757,13.757,0,0,0,97.5,297.819Z"/>
        <path class="cls-1" d="M106.881,348.562h21.8l.093.658a9.378,9.378,0,0,1-1.6.321c-4.486.133-6.434,1.831-6.56,6.334-.161,5.727-.029,11.463-.024,17.195,0,2.22,0,4.44,0,6.714,4.938.6,10.194,1.728,13.937-1.373,3.45-2.859,5.5-7.4,8.2-11.243a2.655,2.655,0,0,1,.4,1.076c.05,3.485.008,6.971.051,10.456.024,1.967-.739,2.733-2.825,2.686-5.7-.128-11.4-.043-17.108-.02-4.967.02-9.934.085-14.9.086a9.934,9.934,0,0,1-1.986-.4l-.064-.723a10.138,10.138,0,0,1,2.6-.763c3.075-.055,4.377-.927,4.473-3.966.179-5.646.08-11.3.086-16.954,0-1-.067-2-.076-3-.033-3.958-1.268-5.389-5.085-5.928a10.548,10.548,0,0,1-1.515-.445Z"/>
        <path class="cls-1" d="M129.733,398.549c.341,2.073-1.072,4.243,1.464,5.905,1.033.677.382,2.033-1.114,2.129a34.647,34.647,0,0,1-4.979.068,2.334,2.334,0,0,1-1.766-1.16c-.218-.794-.147-2.25.342-2.553,1.908-1.182,1.926-2.908,1.915-4.744-.012-1.746.053-3.5-.058-5.235a6.582,6.582,0,0,0-.738-1.982c-.261-.612-.564-1.207-.849-1.81a6.392,6.392,0,0,1,1.724-.73,32.452,32.452,0,0,1,4.462-.179c.477.015,1.247.428,1.334.791a2.812,2.812,0,0,1-.452,1.722c-.257.488-.859.808-1.074,1.3-1.019,2.354-.146,3.679,2.444,3.833a6.622,6.622,0,0,0,1.488.1c.977-.175,2.754-.458,2.759-.722a16.894,16.894,0,0,0-.68-4.3,6.3,6.3,0,0,0-.932-1.573,5.577,5.577,0,0,1,1.791-.943,25.754,25.754,0,0,1,4.452-.043,2.081,2.081,0,0,1,1.436.9c.142.24-.433.884-.651,1.36a7.67,7.67,0,0,0-1.04,2.492c-.118,2.485-.021,4.982.033,7.473.029,1.359-.222,2.68,1.31,3.724.994.678.847,2.089-.77,2.242a38.84,38.84,0,0,1-5.48.041c-.457-.022-1.2-.507-1.261-.876-.094-.531.146-1.493.527-1.673,1.978-.937,1.795-2.769,1.218-4.049-.372-.822-2.083-1.195-3.263-1.451A17.925,17.925,0,0,0,129.733,398.549Z"/>
        <path class="cls-1" d="M115.468,337.852c-.319-3.2-.731-6.406-.93-9.623-.163-2.62-1.214-3.879-3.954-3.312a7.379,7.379,0,0,1-1.683-.176c1.208-1.988,2.391-3.641,3.248-5.448a9.243,9.243,0,0,0,.934-3.942c-.062-4.233-.217-8.474-.578-12.692-.573-6.692-1.352-13.368-2.023-20.052-.275-2.732-.4-5.45,1.783-8.271A14.7,14.7,0,0,1,113,276.8q2.274,24.815,4.492,49.634c.275,3.06.533,6.122.794,9.183C118.5,338.155,118.163,338.422,115.468,337.852Z"/>
        <path class="cls-1" d="M239.515,173.39c-8.816-1.208-17.09-2.371-25.375-3.454a2.3,2.3,0,0,1-2.08-2.839c.179-1.531.908-3.1,2.942-3.1,4.954.016,9.915-.094,14.859.144a14.594,14.594,0,0,1,10.918,5.093,4.028,4.028,0,0,1,.877,3.017C241.526,172.84,240.054,173.129,239.515,173.39Z"/>
        <path class="cls-1" d="M254.345,209.624a6.524,6.524,0,0,0,.009,1.112c.18,1.811-.636,2.594-2.345,2.035-8.22-2.693-16.8-1.886-25.217-2.677-1.072-.1-2.37.231-2.269-1.45.1-1.636-.708-3.8,1.485-4.56a14.863,14.863,0,0,1,8.233-.527,94.937,94.937,0,0,0,16.273,1.593C254.474,205.266,254.484,204.912,254.345,209.624Z"/>
        <path class="cls-1" d="M117.985,279.286c-.63,2.457-1.094,4.265-1.557,6.072l-.869.015c-.336-1.6-.686-3.2-1-4.811-.241-1.223-.481-2.45-.635-3.685-.057-.46.069-1.346.216-1.369,3.016-.473,3.224-3.552,4.939-5.2a9.286,9.286,0,0,1,1.522-.855c1.778,23.061,3.526,45.73,5.274,68.4l-.955.331a7.624,7.624,0,0,1-1-2.216c-.909-9.672-1.729-19.352-2.605-29.028-.569-6.285-1.191-12.566-1.789-18.85-.226-2.371-.432-4.745-.693-7.113A7.963,7.963,0,0,0,117.985,279.286Z"/>
        <path class="cls-1" d="M203.7,399.732a14.452,14.452,0,0,0-.29-3.432c-.484-1.472-.027-2.07,1.362-2.156a6.681,6.681,0,0,1,1.982.186,11.053,11.053,0,0,1,1.705.724,10.854,10.854,0,0,0-.941,1.557q-1.236,3.071-2.368,6.182c-.315.858-.317,1.919-.843,2.587a3.885,3.885,0,0,1-2.344,1.344,2.354,2.354,0,0,1-1.761-1.23c-.713-1.484-1.156-3.1-1.911-5.235-.577,1.833-.763,3.32-1.491,4.461a5.858,5.858,0,0,1-2.872,2.153c-.363.128-1.519-1.154-1.861-1.979-.76-1.835-1.146-3.822-1.864-5.678a19.563,19.563,0,0,0-1.623-2.34,3.2,3.2,0,0,1-.6-1.918c.078-.394.959-.827,1.521-.892,2.633-.3,5.154-.11,6.514,2.062,1.171-.8,2.171-2,3.152-1.984.8.013,1.712,1.394,2.317,2.334a19.262,19.262,0,0,1,1.352,3.184Z"/>
        <path class="cls-1" d="M225.6,212.617c9.158.03,17.984,1.821,26.877,3.126l.155.961a27.793,27.793,0,0,0-2.6,1.417c-1.477,1.011-3.183,1.877-4.275,3.224-3.581,4.415-4.676,4.69-9.46,1.525-.536-.355-1.014-.8-1.9-1.5l4.492-2.173C234.582,216.4,229.233,216.237,225.6,212.617Z"/>
        <path class="cls-1" d="M247.5,180.843c.747,1.677,1.853,3.289,2.169,5.043.837,4.651,1.349,9.362,1.957,14.053.222,1.716-.408,2.659-2.333,2.623a18.249,18.249,0,0,0-3.7.473c-5.3,1.008-9.056-1.905-12.711-5.013-.322-.274-.245-1.016-.354-1.54.583-.107,1.246-.447,1.735-.279,2.118.727,4.124,1.907,6.288,2.335a18.505,18.505,0,0,0,6.338-.009c2.018-.317,2.7-1.692,2.2-3.9-.913-3.96-1.507-7.993-2.206-12a9.261,9.261,0,0,1-.013-1.581Z"/>
        <path class="cls-1" d="M265.845,394.36c2.958-.129,6.428-.8,9.812.4,2.008.713,2.179,2.667,2.366,4.559s.688,3.765.954,5.66c.065.464-.23,1.4-.394,1.409a45.891,45.891,0,0,1-5.179-.065c-.1-.007-.378-1.248-.161-1.434,1.929-1.652,1.293-3.878,1.132-5.808a3.755,3.755,0,0,0-2.182-2.765c-1.643-.339-2.2,1.3-2.11,2.681.163,2.36.594,4.7.954,7.361a27.545,27.545,0,0,1-3.217.217,13.64,13.64,0,0,1-2.538-.552,7.825,7.825,0,0,0,1.012-1.959,13.346,13.346,0,0,0,.236-3.408C266.414,398.765,266.131,396.886,265.845,394.36Z"/>
        <path class="cls-1" d="M170.087,394.033l-3.022,2.762-.649-.339c0,1.981-.094,3.968.05,5.939a5.469,5.469,0,0,0,1.057,2c.27.455.588.88.884,1.319a6.224,6.224,0,0,1-1.575.859,11.126,11.126,0,0,1-2.24.064c-3.506.019-3.038.1-2.483-3.19.406-2.4,1.985-5.49-1.167-7.592-.216-.144-.108-1.045.092-1.485a27.542,27.542,0,0,0,1.633-3.1c.952-3.156,4.72-5.152,7.678-3.721.763.369,1.219,1.53,1.6,2.419.1.239-.508,1.043-.923,1.174s-.981-.254-1.466-.45c-.769-.311-1.525-.655-2.287-.984q-.3,1.872-.6,3.743l2.37-.028c.157,0,.314,0,.47,0Z"/>
        <path class="cls-1" d="M177.372,400.808c.212,2.834,1.529,3.746,3.679,3.591.815-.058,1.608-.464,2.422-.506a4.962,4.962,0,0,1,1.614.5c-.2.489-.258,1.147-.617,1.441-2.158,1.769-7.46,1.375-9.552-.637-2.015-1.936-2.331-6.072-.654-8.539a7.011,7.011,0,0,1,8.694-2.074,6.66,6.66,0,0,1,2.645,3.074c.723,1.753-.349,3.062-2.266,3.138C181.449,400.867,179.555,400.808,177.372,400.808Zm.058-3.194.407.7h3.923l.3-.695c-.763-.5-1.529-1.39-2.288-1.385C178.991,396.24,178.212,397.118,177.43,397.614Z"/>
        <path class="cls-1" d="M152.744,393.274c2.075,1.227,4.192,1.94,5.5,3.385,1.7,1.878.411,4.1-2.125,4.187-1.328.049-2.662-.012-3.983.1-.506.042-1.4.435-1.395.652.015.677.267,1.858.619,1.932a37.6,37.6,0,0,0,4.68.434c.646.053,1.289.155,1.933.235-.278.6-.391,1.439-.86,1.765-2.35,1.63-7.543,1.1-9.36-.841-2-2.136-2.069-6.405.233-8.919C149.1,394.987,150.883,394.382,152.744,393.274Zm-2.423,5.18a18.228,18.228,0,0,0,2.986.1,6.188,6.188,0,0,0,1.732-.833c-.486-.576-.881-1.508-1.476-1.66C151.965,395.651,150.731,396.221,150.321,398.454Z"/>
        <path class="cls-1" d="M219.56,400.985a9.815,9.815,0,0,0-1.961-.2,15.116,15.116,0,0,0-2.249.537c.416.827.675,2.2,1.277,2.373a26.052,26.052,0,0,0,4.686.4,10.347,10.347,0,0,1,1.787.486c-.389.5-.688,1.308-1.183,1.455a18.97,18.97,0,0,1-4.625.888,5.926,5.926,0,0,1-6.059-5.9c-.038-4.329,2.241-6.826,6.377-6.921a10.123,10.123,0,0,1,2.712.236,4.261,4.261,0,0,1,3.22,4.682C223.112,401.454,221.113,400.739,219.56,400.985Zm-4.129-3.342.424.921,3.935-.255.253-.891c-.735-.449-1.512-1.31-2.194-1.241C217,396.263,216.233,397.12,215.431,397.643Z"/>
        <path class="cls-1" d="M261.866,403.979a7.357,7.357,0,0,1-8.924,2.3c-2.647-1.176-3.973-4.645-3.025-7.914a6.248,6.248,0,0,1,6.994-4.308,9.354,9.354,0,0,1,4.708,2.7c1.431,1.6.372,3.567-1.785,3.87-1.14.16-2.323.018-3.461.19a12.035,12.035,0,0,0-2.3.828c.506.88.811,2.121,1.571,2.544.815.454,2.059.182,3.113.145C259.594,404.3,260.432,404.146,261.866,403.979Zm-8.022-6.2.321.666h4.123l.348-.8c-.751-.512-1.543-1.485-2.242-1.422C255.5,396.3,254.69,397.222,253.844,397.779Z"/>
        <path class="cls-1" d="M242.094,395.616c-1.223.663-2.436,1.346-3.677,1.975-.4.2-1.11.494-1.265.337a3.074,3.074,0,0,1-1.02-1.757c-.018-.595.54-1.717.889-1.735a49.033,49.033,0,0,1,8.431.029c1.42.175,1.787,1.486.611,2.84-1.74,2-3.352,4.12-5,6.2-.086.108-.047.315-.063.477,2.363,1.054,2.452,1.01,3.842-1.984,2.232.086,2.017,1.767,2,3.214-.017,1.621-1.244,1.439-2.344,1.428-2.246-.021-4.5.054-6.737-.053a2.39,2.39,0,0,1-1.805-.89,2.356,2.356,0,0,1,.432-1.975c1.926-2.5,3.964-4.906,5.963-7.346Z"/>
        <path class="cls-1" d="M211.948,159.5c2.094-.75,4.182-1.517,6.282-2.248,5.846-2.035,11.462-1.18,16.864,1.516.686.343,1.047,1.334,1.559,2.025-.8.249-1.658.834-2.38.695a71.09,71.09,0,0,0-21.111-.767,3.13,3.13,0,0,1-.9-.178Z"/>
        <path class="cls-1" d="M121.283,323.271c0,4.488.02,8.976-.029,13.463-.005.474-.42.943-.645,1.415-.394-.419-1.059-.8-1.134-1.265-.261-1.638-.344-3.307-.45-4.968-.523-8.206-1.071-16.411-1.483-24.623-.04-.8.788-1.641,1.213-2.463.436.742,1.2,1.462,1.254,2.23.359,5.4.57,10.805.829,16.21Z"/>
        <path class="cls-1" d="M231.2,398.289q.869,3.252,1.739,6.5c.021.077.125.155.111.215-.1.449-.211,1.277-.339,1.28-1.861.053-3.726.006-5.586-.1a4.352,4.352,0,0,1-.028-1.486c.645-2.98,1.763-5.936-.071-8.923a1.705,1.705,0,0,1,.308-1.394,10.29,10.29,0,0,1,3.834-.031c.427.119.493,1.673.644,2.586a4.709,4.709,0,0,1-.118,1.231Z"/>
        <path class="cls-1" d="M95.6,319.3c-.222-1.71-.526-3.414-.622-5.13a5.97,5.97,0,0,1,.634-1.994c.453.588,1.244,1.142,1.305,1.767.459,4.727.772,9.468,1.139,14.2.211,2.728.5,5.453.61,8.184.024.625-.561,1.273-.865,1.91-.423-.6-1.168-1.181-1.219-1.814-.455-5.695-.788-11.4-1.157-17.1Z"/>
        <path class="cls-1" d="M232.423,390.287c-1.257.856-2.043,1.787-2.588,1.663a2.973,2.973,0,0,1-1.69-1.844c-.109-.329,1.008-1.524,1.488-1.479C230.417,388.7,231.136,389.468,232.423,390.287Z"/>
        <path class="cls-1" d="M193.221,119.221,148.5,124.56l-.484-.775c1.559-2.583,2.676-5.623,4.772-7.65,3.654-3.532,7.414-7.021,12.486-8.82,4.531-1.608,8.871-.962,13.2.046,5.164,1.2,9.256,4.33,12.644,8.345A28.344,28.344,0,0,1,193.221,119.221Z"/>
        <path class="cls-1" d="M211.363,117.694c-3.368-2.2-6.794-4.316-10.072-6.642a1.64,1.64,0,0,1,.84-2.848c3.545-.079,7.094.073,10.641.154.093,0,.18.248.485.7l-7.465,1.606c1.718,2.979,5.172,3.627,6.075,6.464Z"/>
        <path class="cls-1" d="M261.82,139.726l-6.98-.987.121-.8,6.96,1.192Z"/>
        <path class="cls-1" d="M230.641,130.674l-6.164-3.366.379-.727,6.154,3.4Z"/>
        <path class="cls-1" d="M243.27,61.961l2.613,2.03-.205.7-3.459-.951c.377-.574.755-1.149,1.129-1.727Z"/>
        <path class="cls-1" d="M126.534,278.974a30,30,0,0,1,1.284,4.683c.543,5.46.939,10.935,1.36,16.406a15.387,15.387,0,0,1-.107,2.062l-.715.1a15.819,15.819,0,0,1-.585-2.139c-.976-7.506-1.9-15.02-2.886-22.525a6.7,6.7,0,0,1,3.495-7.32C129.448,272.8,128.219,277.781,126.534,278.974Z"/>
        <path class="cls-1" d="M163.081,272.068c-.519,2.609-.529,4.757-1.428,6.426-.576,1.067-2.4,1.649-3.783,2.042a2.483,2.483,0,0,1-3.365-1.742,18,18,0,0,1-.833-4.872c.013-.631,1.258-1.689,2.024-1.769C157.977,271.916,160.3,272.068,163.081,272.068Z"/>
        <path class="cls-1" d="M207.728,275.051c-.589-1.945-1.171-3.866-1.925-6.357-4.463,4.747-8.661,3.452-12.914.031,4.365-.574,8.719-1.3,13.1-1.6.951-.064,2.24,1.267,2.962,2.256A3.923,3.923,0,0,1,207.728,275.051Z"/>
        <path class="cls-1" d="M202.253,282.449c3.362-2.224,3.144-2.091,4.717.5,1.084,1.786,2.851,3.166,4.362,4.679.985.986,2.057,1.886,3.257,2.977-1.391.806-2.849,1.27-3.743,2.25-1.826,2-2.053.506-2.411-.885a17.489,17.489,0,0,0-.453-2.42,11.791,11.791,0,0,0-1.745-3.019C205.068,285.144,203.707,283.919,202.253,282.449Z"/>
        <path class="cls-1" d="M154.719,311c-.454-6.325-.908-12.649-1.388-19.341,1.563,1.86,4.124,15.976,3.43,18.238-.173.563-.851.971-1.3,1.451Z"/>
        <path class="cls-1" d="M161.841,265.29c4.392-2.427,4.968-2.21,7.077,2.485A5.7,5.7,0,0,1,161.841,265.29Z"/>
        <path class="cls-1" d="M227.89,306.8c3.785-1.109,6.117,1.926,5.189,6.938Z"/>
        <path class="cls-1" d="M156.445,312.339c.228,1.765.517,3.526.646,5.3.038.517-.38,1.067-.589,1.6-.386-.522-.983-1-1.113-1.575a13.729,13.729,0,0,1-.307-3.468,7.08,7.08,0,0,1,.677-1.977Z"/>
        <path class="cls-1" d="M227.5,302.033l-2.93-3.211C227.915,298.423,228.307,298.847,227.5,302.033Z"/>
        <path class="cls-1" d="M177.43,397.614c.782-.5,1.561-1.374,2.346-1.379.759,0,1.525.887,2.288,1.385l-.3.695h-3.923Z"/>
        <path class="cls-1" d="M150.321,398.454c.41-2.233,1.644-2.8,3.242-2.394.595.152.99,1.084,1.476,1.66a6.188,6.188,0,0,1-1.732.833A18.228,18.228,0,0,1,150.321,398.454Z"/>
        <path class="cls-1" d="M215.431,397.643c.8-.523,1.571-1.38,2.418-1.466.682-.069,1.459.792,2.194,1.241l-.253.891-3.935.255Z"/>
        <path class="cls-1" d="M253.844,397.779c.846-.557,1.66-1.475,2.55-1.554.7-.063,1.491.91,2.242,1.422l-.348.8h-4.123Z"/>
      </g>
    </g>
  </g>
</svg>
