<svg xmlns="http://www.w3.org/2000/svg" viewBox="0 0 407.097 460.993">
  <defs>
    <style>
      .cls-1 {
        fill: none;
        stroke: #fff;
        stroke-miterlimit: 10;
      }
    </style>
  </defs>
  <g id="Layer_2" data-name="Layer 2">
    <g id="Layer_1-2" data-name="Layer 1">
      <path class="cls-1" d="M157.1,169.513q-8.34-5.578-16.681-11.154c-1.243-.83-2.5-1.636-3.755-2.452l-.4.57,4.308,3.513-.333.4-23.547-15.926-.519.762L135.48,158.5l-4.744.467-.012,1.056,4.02.385c.071.836-.116,1.847.22,2.071,2.934,1.951,5.983,3.727,8.954,5.624,1.87,1.194,3.665,2.5,5.494,3.762l-.305.454-38.69-23.8-.564.916L129,161.221l-.351.564c-6.351-2.207-11.086-7.773-18.44-9.33,1.083,2.194,1.138,4.568,4.089,3.388.381-.153,1.048.3,1.543.556,5.117,2.6,10.225,5.222,15.759,8.052l-1.356-2.517c4.828,3.036,9.286,6.045,13.951,8.692,2.654,1.5,4.877,4.41,8.589,3.372.219-.061.568.293.841.476,5.07,3.41,10.174,6.77,15.189,10.259,2.253,1.567,3.239.129,4.008-1.526.651-1.4,2.075-3.019-.377-4.318-1.07-.567-2.832-1.585-2.762-2.234.273-2.506-1.312-2.142-2.6-2.4-2.979-3.629-5.793-7.452-10.618-9.179l-.178,1.481L118.647,139l-.618.788c.568.5,1.1,1.059,1.71,1.5,4.363,3.165,8.772,6.267,13.11,9.467q11.1,8.189,22.123,16.49a15.552,15.552,0,0,1,2.074,2.32Zm-38.2,3.66c-.92-.4-1.857-.771-2.755-1.219a18.064,18.064,0,0,1-1.565-.935c-.541,7.018,2.652,13.444,1.116,20.465,2.053,1.632,2.53,5.925.822,7.331l6.987,14.425a25.921,25.921,0,0,1,4.643.746,26.94,26.94,0,0,1,5.209,2.556c1.7,1.056,2.887-.021,3.883-.905.547-.486.384-1.772.543-2.705.083,0,.728.183.981-.053a1.325,1.325,0,0,0,.028-1.317,12.621,12.621,0,0,0-2.9-2.085c-1.876-.886-3.852-1.561-5.786-2.324,3.611.278,7.384-1.126,10.662,1.178l-2.984-2.557,3.426-4.614c-.941.284-1.22.284-1.363.424-.95.929-1.86,1.9-2.8,2.834-2.434,2.421-3.328-2.741-5.6-1.144-.19-.574-.6-1.178-.524-1.715a18.736,18.736,0,0,1,.861-2.789,2.505,2.505,0,0,0,.224-1.164c-.484-2.073.754-2.127,2.13-1.754a11.262,11.262,0,0,1,2.926,1.308c1.246.77,2.391,1.7,3.58,2.566l.388-.522a12.646,12.646,0,0,0-6-4.712,3.032,3.032,0,0,1-1.366-4.646,10.577,10.577,0,0,0,.88-2.936l3.581-.666c-3.184-2.18-3.184-2.18-4.732-1.176l1.23,1.915-8.5-2.187,3.022-.584-6.363-1.887,5.022-1.015-1.39-.574a4.913,4.913,0,0,1,2.649.258c5.226,1.823,10.439,3.681,15.668,5.5a4.692,4.692,0,0,0,1.232-.02,10.855,10.855,0,0,1,3.446.226c5.633,2.248,11.958,3.258,16.448,2.267-2.518-1.378-4.762-2.583-6.977-3.839-.393-.223-1-.718-.945-.983.341-1.8-1.14-1.781-2.113-2.195q-6.978-2.97-13.985-5.871c-3.719-1.55-7.445-3.082-11.168-4.623l-.364.834,18.6,8.094-.25.808a48.948,48.948,0,0,1-5.487-1.577c-1.321-.538-2.365-1.757-3.687-2.3-5.532-2.254-11.133-4.34-16.679-6.561-.664-.266-1.147-.985-1.714-1.494l.4-.541,6.348,2.364a28.644,28.644,0,0,0-6.036-3.563c-1.707-.827-2.909-1.743-.269-3.161l-3.54-2.754.506-.718,21.274,10.2.356-.771-26.056-13.378c.346,1.362.361,2.556.729,2.677,2.288.753,2.238,2.818,2.774,4.537a1.678,1.678,0,0,1-.241,1.362c-.2.243-1.057.348-1.2.172-1.057-1.3-3.14-3.3-2.793-3.941,1.393-2.569-1.467-2.6-1.927-3.961-.233-.689-1.836-.835-2.251-1.555-1.815-3.146-4.817-3.233-7.9-3.532l.626,2.942c.574.052,1.381.015,1.409.144.4,1.9,1.989,2.949,2.994,4.406a61.732,61.732,0,0,1,4.272,7.34c1.916,3.816,3.03,4.076,6.048,1.1l2.256,4.593Zm-66.668-19.9,1.757-.559c1.439-.287,3.148-.18,4.26-.943,2.334-1.6,4.315-.748,6.384.226.373.176.567.735.682.895,2.418.29,4.823.725,7.238.8,1.113.036,2.249-.63,3.375-.978l-1.05-2.994-.056.034,4.046.376-1.686-3.368.528-.386,5.126,5.469c-.8-2.761.081-3.639,2.107-3.544,4.749.224,8.687-.824,9.835-6.263a1.552,1.552,0,0,1,.243-.434,121.54,121.54,0,0,1,88.266-56.493,123.1,123.1,0,0,1,42.171,1.937,119.516,119.516,0,0,1,57.551,30.979c8.011,7.711,15.383,16.025,20.238,26.127,1.42,2.954,3,4.267,6.083,4.133,2.063-.089,3.494.455,2.335,3.155l6.24-5.484-2.331,4.582,3.619-1.082c-1.188,3.486-.509,4.581,2.695,4.341.414-.031.827-.087,1.24-.134l6.176-.705c.023.051-.279-.454-.208-.514,2.925-2.438,6.086-1.35,9.253-.091l.129-.662-1.709-1.474a5.126,5.126,0,0,1,2.287.274c2.046.58,4.077,1.225,6.144,1.713,1.682.4,4.242,3.206,4.325,5.024-4.2-2.705-9.033-2.176-13.631-2.817l-1.03.044-3.986,3.041c3.233.955,4.592,3.3,5.727,6,1.4,3.333,3.028,6.576,4.617,9.829.763,1.563,2.04,2.97,2.428,4.6.963,4.044,1.58,8.157,4.7,11.292a1.759,1.759,0,0,1,.478,1.353c-.381,1.761-.187,3.124,1.82,3.695,1.413.4,2.943,1.5,4.179,1.223,4.349-.984,11.428,3.454,11.417,8.405a8.85,8.85,0,0,0,.777,2.259,12.009,12.009,0,0,0,1.1-1.757,13.07,13.07,0,0,1,8.07-8.159c5.958-2.382,14.624-.841,18.047,3.5,1.235,1.568,4.8,1.6,6.2.25,1.383-1.332,3.022-2.394,4.487-3.645.491-.42,1.16-1.084,1.126-1.595-.382-5.8-.6-11.639-1.428-17.384-1.045-7.218-2.327-14.43-4.049-21.512-1.818-7.476-4.088-14.858-6.517-22.162-1.716-5.164-3.913-10.179-6.1-15.169q-2.841-6.474-6.179-12.725c-1.628-3.06-3.582-5.95-5.448-8.878-2.742-4.3-5.352-8.7-8.358-12.816-3.109-4.253-6.508-8.311-9.988-12.273-4.843-5.513-9.6-11.152-14.909-16.193-5.374-5.1-11.354-9.57-17.116-14.257-1.982-1.613-4.09-3.074-6.17-4.563-2.545-1.821-5.06-3.695-7.7-5.369-2.921-1.852-5.945-3.548-8.969-5.232-4.182-2.33-8.342-4.711-12.632-6.827-2.871-1.415-5.944-2.423-8.937-3.586-4.841-1.882-9.67-3.8-14.545-5.589-2.47-.906-5.013-1.633-7.557-2.312-3.259-.871-6.538-1.683-9.835-2.391C244.862,4.5,240.1,3.49,235.317,2.669c-3.648-.625-7.342-.986-11.023-1.4-2.711-.306-5.432-.686-8.153-.724C210.96.47,205.768.47,200.593.709c-7.5.346-14.99.9-22.48,1.433a50.531,50.531,0,0,0-6.106.792c-3.449.672-6.888,1.415-10.3,2.266-5.333,1.333-10.686,2.622-15.939,4.228-4.973,1.519-9.909,3.225-14.715,5.2-6.623,2.728-13.223,5.566-19.617,8.785a138.96,138.96,0,0,0-13.8,8.309c-6.12,4.034-12.108,8.272-18.1,12.49a51.612,51.612,0,0,0-5.18,4.2c-2.358,2.165-4.587,4.47-6.881,6.7-3.725,3.63-7.5,7.208-11.168,10.9a71.93,71.93,0,0,0-4.9,5.6c-2.015,2.5-3.944,5.076-5.869,7.649-2.077,2.776-4.154,5.553-6.144,8.39q-2.556,3.645-4.906,7.431c-2.7,4.362-5.436,8.708-7.927,13.189-1.6,2.883-2.847,5.973-4.157,9.011-2.256,5.235-4.6,10.44-6.6,15.774-1.772,4.726-3.222,9.581-4.631,14.432A144.639,144.639,0,0,0,7.3,162.415c-1.39,7.839-2.348,15.76-3.327,23.666-.38,3.068-.317,6.191-.465,9.481,1.257-.2,2.067-.389,2.886-.446,5.217-.364,9.92.836,13.559,4.825,1.343,1.472,5.064,1.382,6.234-.333a8.237,8.237,0,0,1,11.974-1.986c1.371,1.037,2.759,1.386,4.292.2a6.038,6.038,0,0,1,2.228-1.085c2.258-.532,2.337-1.663,1.606-3.66-.438-1.2-.468-3.513.236-4,3.226-2.237,3.158-6.062,4.087-9.013a40.579,40.579,0,0,1,3.134-7.359c1.384-2.54,3.046-5.024,3.875-7.749,1.038-3.41,2.3-6.322,6.774-7.73L60.243,155.3V154l-2.539.193c.028-.334.057-.678.053-.632l-13,3.326C46.36,152.809,49.014,151.53,52.232,153.273Zm173.675,94.166c1.659-2.25,1.237-4.438-.2-6.595-.906-1.328-1.62-3.554-2.756-3.8-2.366-.5-1.194-1.79-1.5-3.017h2.7l-2.425-3.913c-1.189,1.933-1.95,4.579-3.669,5.576-1.781,1.034-4.489.47-6.825.606l-.2,1.12-.533-.094c.252-1.471.5-2.942.794-4.624l-1.021.82a8.456,8.456,0,0,1,1.271-3.1c.546-.9,1.155-1.76,1.736-2.638l-.33-.295-1.309.658-.442-.363,1.668-2.877a13.348,13.348,0,0,1-2.105-1.828c-.249-.333-.044-1.007-.044-1.527l.489-.034.51,1.785h.531l.942-3.634c-5.222-.769-6.678-.1-9.755,4.381l1.252.493-4.66,5.642-1.954-1.05c.88-1.466,1.836-3.146,2.879-4.77.955-1.486,1.743-3.246,3.073-4.284a43.71,43.71,0,0,1,6.574-3.763c1.425-.753,1.447-.669,2.756-.274a2.051,2.051,0,0,0,1.159-.023q2.845-.932,5.66-1.956c.625-.227,1.208-.57,2.279-1.085-2.457-1.445-4.285-3-6.393-3.67-5.661-1.8-10.883-.1-15.79,2.8-2.68,1.584-3.283,3.518-1.758,5.134-.835-.238-1.919-.519-2.214-1.162-1.979-4.318-5.663-6.013-9.984-6.194-2.843-.12-5.439-.15-7.922-1.905-.956-.676-2.745-.493-4.073-.253A61.537,61.537,0,0,0,168,209.484c-1.663.489-3.317,1.01-4.975,1.516l.076,1c2.831.509,5.693.885,8.485,1.556,4.515,1.087,9.336.842,13.58,3.08,3.833,2.021,8.172,3.59,8.406,8.986l-.73-.272-3.341.151,1.6-1.81c-4.849-4.99-4.849-4.99-9.755-3.861l1.062,3.562.455-.08.485-2.358c.608,3.382.5,3.549-1.649,3.431.762,2.872,1.545,5.823,2.327,8.775l-.663-.169a7.665,7.665,0,0,1-.235,1.332c-.266.737-.618,1.444-.81,1.883-1.807-.154-3.291-.172-4.725-.449a3.263,3.263,0,0,1-1.846-1.183c-1.143-1.566-2.122-3.251-3.211-4.959-.326.9-.546,1.611-.846,2.291-.286.648-.655,1.26-.988,1.888l2.291.76c-.2.711-.211,1.94-.662,2.133-3.192,1.366-4.334,4.146-4.933,7.137-.244,1.221.458,2.63.73,3.954l.583-.15c-1.159-4.2-.557-6.635,1.513-7.5l.238,3.313.561.042c.421-1.012.841-2.024,1.327-3.194.514.322.858.513,1.176.741,1.67,1.191-.265,2.124-.246,3.21.047,2.676.015,5.354.015,8.44l-2.384-4.132-.146,2.371-1.883-2.14c.26,1.882.431,3.114.688,4.98l-2.127-2.77c.147,1.963.254,3.384.361,4.8a5.4,5.4,0,0,1-1.278-2.3c-.287-.767-.624-1.515-.939-2.272l-.318.146.156,3.142-.454.037-1.454-3-1.843,3.978-.408-1.068-5.829,4.732c.02.124.449,1,.18,1.488a26.189,26.189,0,0,1-2.468,3.292,2.8,2.8,0,0,0-4.111.073l-2.674,3.359-.42-.293c.669-1.078,1.338-2.155,2.011-3.241l-3.316-1.747,1.121-2.605-.17-.1-6.111,11.563-.749-.264-.232-3.871-1.69,4.515-1.518-.686c1.02,3.753-2.236,4.4-4.086,4.363-2.8-.058-1.538,1.291-1.695,2.47a21.019,21.019,0,0,1-1.137,3.628l-2.359-1.024a34.048,34.048,0,0,0-.471,3.459,27.362,27.362,0,0,0,.063,6.317c.358,1.772-1.626,4.189,1.409,5.173-1.834,2.115-2.315,5.767-1.129,7.649-1.516,1.707-1.688,3.46-.627,4.036l-1.713,4.186h2.66l.261.671c-.606.332-1.526.518-1.761,1.023-.85,1.822-2.018,3.763-1.98,5.637.024,1.217-.032,3.833,2.681,3.908.233.006.706,1.171.607,1.714-.635,3.489-.6,6.957-2.537,10.379-1.6,2.836-1.325,6.8-1.584,10.288-.074,1,.887,2.072,1.308,2.971-.243,1.214-.606,2.544-.745,3.9-.1.974.334,2.037.108,2.957-.423,1.721.169,2.764,1.448,3.855a2.709,2.709,0,0,1,.56,2.481c-1.613,3.6-3.933,7.013-1.771,11.439a11.147,11.147,0,0,1-1.479-.2c-3.422-1.021-4.195-.629-5.193,2.677-.119.4-.221.8-.331,1.2l.036-.011a4.824,4.824,0,0,1-.75,1.337c-.75.681-1.855,1.077-2.388,1.875C108.729,384.978,104.864,391,100.949,397c-.567.867-1.217,1.68-1.978,2.723l-7.977-7.59,3.99-5.432-4.607-4.389A49.046,49.046,0,0,1,86.35,385.6a2.2,2.2,0,0,1-2.059.008c-2.136-1.823-4.13-3.812-6.652-6.2a10.55,10.55,0,0,0,1.416-.686c7.219-5.227,14.389-10.522,21.652-15.687,5.487-3.9,5.761-10.819.393-15.091-1.364,1.04-2.736,2.109-4.131,3.147-3.147,2.341-3.1,2.3-1.025,5.533.415.647.622,2.142.254,2.453-1.874,1.585-3.969,2.909-6.1,4.406l-3.626-4.542L70.811,370.732c-2.211-2.94-4.281-5.7-6.478-8.617,1.381-1.083,2.529-2.024,3.718-2.91,10.618-7.911,21.254-15.8,31.832-23.762a2.548,2.548,0,0,0,.754-2.147c-.706-2.99-1.829-5.892-2.389-8.9-.379-2.04-.072-4.208-.072-6.577a12.1,12.1,0,0,1-1.5-2.3c-1.156-2.826-1.937-5.825-3.277-8.553-3.8-7.733-5.163-16.1-6.519-24.443a10.213,10.213,0,0,0-4.408-7.08A25.139,25.139,0,0,1,73.9,265.418c-.612-1.386-.9-2.913-1.457-4.328-1.163-2.959-3.115-5.8-3.474-8.844a41.438,41.438,0,0,1,3.787-22.365,17.42,17.42,0,0,0,1.964-9.02c-.353-6.19.971-12.487,1.73-18.722.274-2.258.941-4.468,1.347-6.325-2.151-.535-3.982-1.094-5.855-1.415a10.582,10.582,0,0,0-3.2.113,30.733,30.733,0,0,0-3.136.784c.963-3.738,3.829-5.7,6.329-7.486,1.431-1.02,4.184-.184,6.473-.184l1.019-2.085,1.245.853c1.239-2.768,2.444-5.461,3.841-8.586.159,1.29.259,2.1.426,3.461.93-2.071,1.546-3.586,2.279-5.043.931-1.849,2.1-3.64,1.657-5.833a16.864,16.864,0,0,0-1.036-2.715l-.873.2-1.653,6.4-.976-.25.621-2.518-.823-.148a11.807,11.807,0,0,0-.492,2.871,6.489,6.489,0,0,1-3.954,6.259l-.2-1.618c.424,3.749-3.227,3.246-4.878,4.73-.028.025-.243-.159-.4-.265l.163-1.675c-1.187,1.558-2.321,3.106-3.518,4.6-2.3,2.872-2.779-.621-4.214-1.248l.26,2.325c-1.386.716-3.219.095-3.722,2.375-.188.853-2.6,1.005-3.438,1.968-1.652,1.906-2.345,4.944-5.887,4.095-.095-.022-.3.168-.365.3-.922,1.956-2.658,1.248-4.164,1.284-.594.014-1.188.009-1.782.013.093.78-.082,1.788.342,2.287a8.006,8.006,0,0,0,2.644,1.784c1.251.606,2.587,1.038,4.094,1.627.442-2.324,2.421-.953,3.943-1.155l.231.613-2.253,1.15L58.2,204.9l.068.654c-2.925-.352-5.261.4-6.777,2.882-.079.129-1.48-.163-1.64-.531-1.932-4.447-5.859-5.34-10.04-5.772-3.908-.405-7.145,1.559-10.269,3.392-2.555,1.5-2.624,2.809-1.271,4.521a5.736,5.736,0,0,1-2.181-1.614C25,207.2,24.207,205.372,22.86,204.8c-2.661-1.137-5.477-2.342-8.6-1.444a2.556,2.556,0,0,1-1.995-.64c-2.383-2.15-5.1-1.475-7.793-1.081-.351.051-.936.427-.936.653,0,2.667.077,5.334.15,8,.007.272.189.557.144.81-.161.9-.386,1.792-.6,2.76l12.632-.742c-4.05,1.864-8.726-.236-12.612,2.179l.079.723,12.534-.952.014.5L3.51,216.82l.063.676,2.508.63-3.127,1.09H16.817l-.009.315-13.58.856,0,1.134L16,220.948l.011.609-12.367.777.095,1.079,3.758-.27a4.2,4.2,0,0,1-2.281.71,16.815,16.815,0,0,0-2.068.618l.184.522H16.022c-4.094,2.136-8.8-.594-12.758,1.635l.062.853,2.566-.225-.044-.031-2.921,2H10.49a33.842,33.842,0,0,1-4.886.667c-2.415.024-2.532,1.368-2.493,3.236.1,4.807-.049,9.619.087,14.423.283,10.042.344,20.109,1.152,30.112a172.71,172.71,0,0,0,3.465,21.632,206.206,206.206,0,0,0,5.643,21.674,159.275,159.275,0,0,0,8.536,21.512c5,10.022,10.4,19.893,16.345,29.378,4.085,6.517,9.257,12.377,14.172,18.342a184.869,184.869,0,0,0,39.84,35.75,223.425,223.425,0,0,0,26.214,14.943,191.549,191.549,0,0,0,77.39,19.42,200.443,200.443,0,0,0,52.817-4.686,193.833,193.833,0,0,0,71.94-32.235,230.631,230.631,0,0,0,24.682-20.634A188.676,188.676,0,0,0,364.866,380.4a262.01,262.01,0,0,0,16.566-25.471,166.945,166.945,0,0,0,9.7-20.217,184.356,184.356,0,0,0,7.162-20.46,217.363,217.363,0,0,0,4.992-22.347,197.533,197.533,0,0,0,2.483-21.474c.473-7.841.3-15.72.395-23.583q.224-18.428.426-36.854c.019-1.767,0-3.534,0-5.3l-.987-.469a41.187,41.187,0,0,0-3.642,3.643c-.22.274.536,1.333,1.058,2.52-1-.542-2.094-.751-2.357-1.334-2.321-5.156-6.609-6.126-11.622-5.757a2.837,2.837,0,0,1-1.834-.251c-2.4-2.073-5.107-2.2-7.955-1.433-1.166.316-2.236,1.214-3.392,1.3-4.918.378-7.149,3.637-8.894,7.761l2.878.654c-2.644.129-4.562.646-5.695-1.895a13.045,13.045,0,0,0-3.378-4.116,7.262,7.262,0,0,0-3.456-1.64c-4.507-.753-7.979,1.232-10.841,4.891l8.436-.537a2.737,2.737,0,0,1-1.541.785c-3.862.408-7.726.8-11.6,1.108a1.9,1.9,0,0,1-1.4-.678c-2.741-3.6-5.47-3.879-9.565-1.979-2.03.941-2.216,2.536-3.228,4.231h9.85c-10.8.464-10.8.464-11.85,3.019h7.278c-1.491.491-3,.3-4.44.546-1.416.246-2.728,1.03-4.129,1.424-3.638,1.024-6.212,6.735-4.278,9.965a36.97,36.97,0,0,1,5.207,15.12c.633,5.727,1.592,11.441-1.458,16.825-.64,1.129-1.773,2.138-1.983,3.325-.958,5.423-4.35,9.08-8.29,12.507-2.273,1.976-5.081,3.44-5.768,6.969-1.259,6.456-2.63,12.915-4.456,19.228-1.565,5.41-3.813,10.625-5.807,15.908a16.124,16.124,0,0,1-1.373,2.325,3.562,3.562,0,0,1,.458,1.6,43.886,43.886,0,0,1-.65,5.922c-1.286,6.92-5.079,13.051-5.691,20.307-.514,6.107-.3,11.9,1.563,17.67a4.686,4.686,0,0,0,1.291,1.789q12.786,12.115,25.607,24.2c1.106,1.047,2.139,2.172,3.329,3.387-2.739,2-5.1,3.7-7.424,5.442a1.756,1.756,0,0,1-2.768-.34c-1.063-1.249-2.243-2.4-3.461-3.684l-4.67,3.841c.8,1.547,1.643,2.976,2.28,4.491.238.567.28,1.683-.06,1.952-2.257,1.785-4.642,3.409-7.319,5.323-7.1-14.61-14.024-28.859-21-43.221,3.81-2.574,6.848-4.953,7.245-10.067.615-7.928,2.312-15.772,1.974-23.8a4.722,4.722,0,0,1,.512-1.532c-.554-.076-1.416-.177-1.414-.2.243-2.592.545-5.179.864-7.763.016-.128.245-.355.313-.334,2.455.752,2.032-1.675,2.891-2.648.923-1.045,2.073-1.935.886-3.759-.605-.93-.308-2.541-.179-3.821a12.713,12.713,0,0,1,.914-2.459c.613-1.858.243-3.835.972-5.761a49.563,49.563,0,0,0,1.7-7.557c.046-.223-.1-.483-.067-.711.3-1.9-.89-4.2,1.508-5.573.21-.12.043-.867.085-1.319.2-2.1.15-4.087,2.626-5.364,1.375-.709,2.051-2.771,2.976-4.125l-3.366.57c.508-2.347.942-4.354,1.313-6.069-1.194.078-2.412.517-3.036.09-.546-.374-.619-1.737-.559-2.639.224-3.332-1.338-6.014-2.807-9.127-.611,2.1-1.116,3.769-1.585,5.452-.515,1.854-2.3,1.179-3.35,1.535-.756,2.107,3.468,2.125,1.394,4.641l-2.112-1.634-.3.239,1.763,3.464h-3.067l1.627,3.474c-1.526-.963-1.583-.906-1.877,1.779l-.357-2.084-2.464,2.656-1.114-1.5c-.243,3.064-.305,5.5-.649,7.887-1.027,7.131-1.942,14.291-3.338,21.353-.955,4.836-2.159,9.517-.27,14.382a6.052,6.052,0,0,1-.01,2.936c-.613,3.939-1.512,7.845-1.909,11.8-.393,3.914-.277,7.876-.44,11.814-.165,3.985.038,7.858,1.814,11.578a9.237,9.237,0,0,1,.407,4.165,25.726,25.726,0,0,1-.793,3.927l-5.451,1.1c.214-.8.776-1.094,1.111-1.551.459-.63,1.173-1.485,1.037-2.071-.785-3.373-1.788-6.695-2.731-10.083,2.2-.978,2.739-8.366.549-11.292,1.577-.73,2.2-2.449,1.736-4.41-.263-1.1-.332-2.251-.508-3.376-.273-1.75,0-3.928-.953-5.164-2.549-3.316-1.868-7.215-2.645-10.829a2.416,2.416,0,0,1,.852-2c2.692-1.875,2.985-2.783,1.595-5.85-.3-.668-.456-1.4-.7-2.1a8.081,8.081,0,0,0-.462-.855l-.245,1.983-1.343-3.869h2.766l-1.76-4.186.413.025-.351-4.114a10.533,10.533,0,0,0-1.37-7.443c.453-.731,1.207-1.393,1.224-2.074.06-2.411-.141-4.828-.222-7.243-.019-.569.117-1.149.054-1.709-.138-1.209-.359-2.409-.6-3.975.237.077-.285-.181-.345-.1-2.318,3.154-2.361-.308-2.981-1.169-.336-.467.379-1.581.222-2.318-.135-.638-.832-1.157-1.281-1.728-.246.96-.371.643-1.053.168a14.72,14.72,0,0,0-3.584-1.336L259,270.537l-.3,0-.162,2.267-.534.078c-.637-2-1.275-3.992-2.043-6.4-.116,1.563-.206,2.768-.3,3.973l-.871.275-5.85-11.388-.238.169,1.144,2.53-3.5,1.772,1.722,2.427-.562.429a12.668,12.668,0,0,0-2.362-2.786,10.625,10.625,0,0,0-3.309-.888l-.3,1.475-.445.052-1.177-3.128-2.2.414c-.882-1.825-1.836-3.8-3.023-6.251-.376,1.361-.6,2.163-.9,3.275L231.8,253.6c-.274,1.144-.575,2.4-.875,3.658l-.52-.1.588-5.035-.254-.042q-.62,1.512-1.241,3.023l-.615-.142.353-3.427-.362-.122-1.881,5.248-.7-.237.684-4.964-.3-.111-1.315,2.261-.5-.193Q225.384,250.431,225.907,247.439ZM101.185,263.493c-.748,2.092-1.47,4.193-2.25,6.272-1.187,3.162,3.013,4.444,2.749,6.645l-5.353-.505v5.029l-2.667.438,2.209,3.039.788-.477,1,3.475.458-.279c1.614,1.466-1.135,4.551,2.35,4.973-.848,3.544.932,13.775,2.368,14.292-.157,2.5-.642,4.986,1.081,7.221a1.862,1.862,0,0,1,.016,1.64c-1.986,3.714,1.1,5.909,2.3,9.3l1.006-3.121a24.344,24.344,0,0,1,.971,3.574c.236,2.208,1.063,4.788.25,6.581-1.522,3.354-1.1,6.511-.42,9.721.281,1.33,1.508,2.459,2.306,3.679l.556-.325-.66-8.889,1.026-.056c.439,6.05.878,12.1,1.343,18.508l4.04-2.777,2.421,2.066c0-2.737.124-5.33-.031-7.907-.205-3.4-.669-6.785-.95-10.183-.313-3.787-1.233-7.693-.631-11.341a32.983,32.983,0,0,0-.212-11.886c-1.868-9.974-3-20.085-4.441-30.139-.027-.188-.244-.349-.452-.632l-.465,2.156c-.533-2.94-4.875-2.925-3.308-6.565l-2,.443c-1.193-2.488-2.614-4.831.779-7.174C101.845,270.3,102.584,266.312,101.185,263.493Zm239.167-60.645c1.974-.828,3.919-2.021,6.016-2.431,2.857-.559,3.063-3.015,4.72-4.687-2.194-.556-2.341,2.231-4.646,1.566-1.908-.551-4.357.844-5.9-1.555-.046-.071-.332.051-.467-.007-1.25-.534-3.128-.754-3.624-1.7-1.945-3.7-5.367-5.227-8.923-6.829.178-.83.346-1.61.575-2.674-2.758,3.951-3.19,3.022-5.585.7-.89-.864-1.454-2.094-3.141-1.8-.43.076-1.077-1.076-1.276-1.29-.852-.1-1.946.022-2.1-.305a16.185,16.185,0,0,1-.747-3.636l-.506,2.346a6.5,6.5,0,0,1-3.759-6.556c.1-.963.729-2.65-1.568-2.348a6.56,6.56,0,0,0,.218.712c.206.465.448.914.626,1.388.012.033-.51.359-.564.31-.407-.373-.945-.75-1.093-1.232-.479-1.569-.809-3.183-1.2-4.78l-.666-.3a10.787,10.787,0,0,0-1.087,2.343c-.824,4.145,2.617,6.784,3.573,10.92.434-1.272.65-1.9,1.005-2.943.72,1.8,1.219,3.192,1.83,4.534.6,1.312,1.31,2.573,1.813,3.549,1.145-.579,2.123-1.479,2.7-1.27a3.924,3.924,0,0,1,1.959,2.2,26.037,26.037,0,0,1,.9,4.393c.262,1.443.263,2.669-1.738,2.8-.4.027-.74.805-1.108,1.237a3.75,3.75,0,0,0,2.254-.116c3.573-1.111,6.66.306,9.261,2.388.943.756.778,2.9,1.1,4.419.069.323-.022.712.125.979.173.313.524.723.8.727.262,0,.668-.421.771-.736.292-.884.46-1.809.736-2.968,2.192,1.461,3.025,4.63,6.445,3.609l-2.47-1.368.358-.868Zm-164.538-8.735c1.335.455,2.26.508,2.793.992a32.876,32.876,0,0,0,17.18,8.543c-.91,2.407-3.978,3.294-5.467,1.669-5.2-5.677-11.68-6.825-18.9-5.379-1.018.2-2.029.441-3.069.669-.095-5.195,2-9.318,4.406-13.353a12.4,12.4,0,0,0,.8-2.429c-.631.054-.821.017-.943.092a1.7,1.7,0,0,0-.545.493c-2.774,4.3-5.128,8.748-5.1,14.087,0,.808-.287,2.076-.834,2.353a15.734,15.734,0,0,0-7,7.436c-.345-3.873-2.662-6.007-5.813-7.537-1.75-.85-3.374-1.956-5.075-2.91-1.787-1-5.308.061-6.269,2.087a12.781,12.781,0,0,0,3.15.385c6.35-.837,11.4,2.868,12.552,9.208a2.609,2.609,0,0,0,1.354,1.626,6.8,6.8,0,0,0,2.344.175c-.9-4.291,1-7.366,5.688-8.971l.661,2.183c-.108-3.635,2.444-4.138,4.992-4.34a32.743,32.743,0,0,1,7.4.021,13.946,13.946,0,0,1,9.172,5.006c1.143,1.44,5.7,1.417,6.827-.121,3.661-4.983,8.8-5.815,13.724-2.3a3.316,3.316,0,0,0,4.1.132,31.123,31.123,0,0,1,5.224-2.065,6.639,6.639,0,0,0,1.108-.71l-.13-.632-4.319.333,10.015-6.963-2.178-1.972c-.989,1.353-1.515,2.644-2.474,3.277a82.067,82.067,0,0,1-9.214,5.4c-1.176.573-2.833.171-4.27.194-2.349.038-5-.626-6.982.238a11.8,11.8,0,0,1-10.3-.328,69.114,69.114,0,0,1-8.837-5.071c-1.232-.82-2.024-2.3-3.254-3.766Zm1.95-35.056c-7.243-19.668-17.555-37.814-26.878-56.449l-.848.419Zm8.4-65.331-.7.074c1.307,10.718,2.707,21.425,3.894,32.156,1.184,10.7,2.155,21.424,3.219,32.137l1.022-.119C192.268,136.428,189.466,115.048,186.164,93.726Zm44.244,85.524.445.486c2.269-.818,4.534-1.647,6.809-2.45s3.881-2.69,6.265-3.476c2.136-.7,3.936-2.426,5.884-3.7l-.411-.65-4.229,2.361-.38-1.481-5.612,4.132a23.444,23.444,0,0,1,4.243-4.418c1.5-1.331,2.962-2.7,4.442-4.056l-.617-.621ZM181,96.58l-.6.181q4.383,23.993,8.767,47.985l.807-.159C187.881,128.413,184.5,112.486,181,96.58ZM70.88,165.914a8.787,8.787,0,0,1,1.4,1.075,2.454,2.454,0,0,0,3.73.242c.581-.469,1.217-.871,1.842-1.282,1.674-1.1,1.445-1.92.045-3.421a6.836,6.836,0,0,0-6.1-2.235c-.586.055-1.478.017-1.674.349a3.359,3.359,0,0,0-.29,2.12A22.193,22.193,0,0,0,70.88,165.914Zm253.4-.08a5.38,5.38,0,0,1-.34-1.523c.437-4.57.4-4.8-4.038-3.85-1.581.338-2.924,2.03-4.214,3.272-.25.24.03,1.5.442,1.88,2.738,2.551,3.724,2.561,6.957.461A3.51,3.51,0,0,1,324.276,165.834Zm-170.655-8.821.614-.657c-10.876-10.1-21.2-20.818-32.9-30l-.425.473Zm135.152-17.958-.6-.885L256.76,161.852l.724.957ZM173.709,155.618l1.1-.653-18.372-32.419-.8.452Zm129.3,233.548c-4.07-4.387-7.95-8.569-11.831-12.75l-.371.305,8.681,14.622ZM154.316,164.179l.657-.836-27.94-22.608-.681.846Zm75.423-7.493.879.6,14.823-23.733-.842-.528Q237.169,144.855,229.739,156.686Zm-89.272,55.845,10.488-.487.16-.876a18.986,18.986,0,0,0-3.454-1.086c-1.716-.211-3.475-.049-5.206-.173C139.778,209.718,139.654,209.835,140.467,212.531Zm-23.179-70.619-.57.8,18.368,13.19.612-.863ZM99.579,379.578l5.409-6.812c-4.219-1.008-5.366,2.974-8.313,4.384ZM324.444,204.549c-4.954-.01-5.362.438-4.891,5.1l5.882-1.02-.07-.642H321.46l0-.268,5.546-.96-.038-.566H322.5ZM162.279,146.6l.884-.634-12.4-17.327-.66.477Zm43.695-32.436.985.033q.453-10.164.9-20.329l-1.083-.037Zm1.679,71.317,2.854,3.272c.649-1.021,1.822-2.051,1.805-3.062-.019-1.132-1.115-2.246-1.743-3.368Zm-12.048.131c-1.1-1.343-1.831-3.052-2.725-3.144-1.815-.185-2.013,1.658-2.009,3.085s.225,3.231,2.051,3.067C193.775,188.539,194.49,186.923,195.605,185.607Zm83.268-34.68-.464-.693-15.485,10.191.594.878Zm-147.454,7.01.513-.675L116.66,146.791l-.568.847Zm162.14-16.773-.507-.836-13.293,9.434.413.583Zm-183.616,215c3.56-1.814.934-4.281,1.327-6.479C107.593,351,108.776,351.4,109.943,356.162ZM324.3,210.712l-.057-.561h-4.736c.215,1.641.392,2.989.588,4.482l2.752-.173c-.344-1.3-.607-2.3-.861-3.268Zm-75.429-46.7.779.905,9.994-8.2-.491-.588ZM97.086,146.72c1.423,1.885,6.774,3.31,8.82,2.192Zm176.747-2.883.512.584,8.452-7.314-.55-.616Zm-10.377-25.855-.7-.493-6.1,8.684.572.4ZM245.912,131l.766.42,5.062-8.455-.728-.438ZM53.735,194.071l.762-.144c-1.017-2.644,1.286-3.077,3.174-4.319a12.4,12.4,0,0,0-2.425-1.036c-.267-.049-.8.517-.966.907a13.175,13.175,0,0,0-.923,2.9A4.673,4.673,0,0,0,53.735,194.071Zm93.96-86.9-.886.491,3.742,6.566.808-.444Zm5.171,19.729.9-.637-3.25-4.922-.781.506Zm96.151,29.978.811.734,4.806-5.7-.622-.538ZM122.408,138.354l.534-.668-5.96-4.746-.486.612Zm143.667,13.029-.476-.565q-2.607,2.2-5.212,4.409l.511.6ZM129.5,116.777l.755-.643-3.666-4.77-.832.649Zm56.74,25.338,1.077-.31q-.668-2.313-1.333-4.626l-1.017.3Zm-48.92-32.437-.9.6,3.367,4.468.684-.483Zm91.959,102.7-.252-1.084-5.658,1.119.157.719Zm20.537-45.73.593.862,5.168-3.821-.486-.66Zm18.162-15.842-.436-.286,4.712-4.39-.535-.605Zm8.181-22.722-.584-.52-5.02,5.634.549.489Zm-128.377-9.336.9-.7-3.234-4.416-.758.577Zm113.561,14.923.567.479,4.891-5.72-.6-.511Q263.765,130.8,261.338,133.674Zm-23.71-30.4.707.238,2.3-6.585-.811-.277Zm30.135,8.679-.739-.515-3.291,4.3.76.567Zm72.692,79.555c-.431-1.278-.722-2.138-1.013-3l-2.736,1.195Zm-82.4-10.6q.21.627.418,1.254l3.972-1.515-.422-1.182ZM114.412,140.948l.5-.684-4.736-3.221-.551.817Z"/>
      <path class="cls-1" d="M101.185,263.493c1.4,2.819.66,6.806,6.175,6.792-3.393,2.343-1.972,4.686-.779,7.174l2-.443c-1.567,3.64,2.775,3.625,3.308,6.565l.465-2.156c.208.283.425.444.452.632,1.442,10.054,2.573,20.165,4.441,30.139a32.983,32.983,0,0,1,.212,11.886c-.6,3.648.318,7.554.631,11.341.281,3.4.745,6.782.95,10.183.155,2.577.031,5.17.031,7.907l-2.421-2.066-4.04,2.777c-.465-6.407-.9-12.458-1.343-18.508l-1.026.056.66,8.889-.556.325c-.8-1.22-2.025-2.349-2.306-3.679-.68-3.21-1.1-6.367.42-9.721.813-1.793-.014-4.373-.25-6.581a24.344,24.344,0,0,0-.971-3.574l-1.006,3.121c-1.2-3.387-4.287-5.582-2.3-9.3a1.862,1.862,0,0,0-.016-1.64c-1.723-2.235-1.238-4.716-1.081-7.221-1.436-.517-3.216-10.748-2.368-14.292-3.485-.422-.736-3.507-2.35-4.973l-.458.279-1-3.475-.788.477-2.209-3.039,2.667-.438V275.9l5.353.505c.264-2.2-3.936-3.483-2.749-6.645C99.715,267.686,100.437,265.585,101.185,263.493Z"/>
      <path class="cls-1" d="M340.352,202.848l-4.381-1.274-.358.868,2.47,1.368c-3.42,1.021-4.253-2.148-6.445-3.609-.276,1.159-.444,2.084-.736,2.968-.1.315-.509.739-.771.736-.278,0-.629-.414-.8-.727-.147-.267-.056-.656-.125-.979-.325-1.516-.16-3.663-1.1-4.419-2.6-2.082-5.688-3.5-9.261-2.388a3.75,3.75,0,0,1-2.254.116c.368-.432.713-1.21,1.108-1.237,2-.136,2-1.362,1.738-2.8a26.037,26.037,0,0,0-.9-4.393,3.924,3.924,0,0,0-1.959-2.2c-.577-.209-1.555.691-2.7,1.27-.5-.976-1.215-2.237-1.813-3.549-.611-1.342-1.11-2.734-1.83-4.534-.355,1.04-.571,1.671-1.005,2.943-.956-4.136-4.4-6.775-3.573-10.92a10.787,10.787,0,0,1,1.087-2.343l.666.3c.388,1.6.718,3.211,1.2,4.78.148.482.686.859,1.093,1.232.054.049.576-.277.564-.31-.178-.474-.42-.923-.626-1.388a6.56,6.56,0,0,1-.218-.712c2.3-.3,1.673,1.385,1.568,2.348a6.5,6.5,0,0,0,3.759,6.556l.506-2.346a16.185,16.185,0,0,0,.747,3.636c.157.327,1.251.2,2.1.305.2.214.846,1.366,1.276,1.29,1.687-.3,2.251.933,3.141,1.8,2.395,2.326,2.827,3.255,5.585-.7-.229,1.064-.4,1.844-.575,2.674,3.556,1.6,6.978,3.128,8.923,6.829.5.942,2.374,1.162,3.624,1.7.135.058.421-.064.467.007,1.544,2.4,3.993,1,5.9,1.555,2.305.665,2.452-2.122,4.646-1.566-1.657,1.672-1.863,4.128-4.72,4.687C344.271,200.827,342.326,202.02,340.352,202.848Z"/>
      <path class="cls-1" d="M175.814,194.113l2.52-2.256c1.23,1.465,2.022,2.946,3.254,3.766a69.114,69.114,0,0,0,8.837,5.071,11.8,11.8,0,0,0,10.3.328c1.985-.864,4.633-.2,6.982-.238,1.437-.023,3.094.379,4.27-.194a82.067,82.067,0,0,0,9.214-5.4c.959-.633,1.485-1.924,2.474-3.277l2.178,1.972-10.015,6.963,4.319-.333.13.632a6.639,6.639,0,0,1-1.108.71,31.123,31.123,0,0,0-5.224,2.065,3.316,3.316,0,0,1-4.1-.132c-4.919-3.512-10.063-2.68-13.724,2.3-1.129,1.538-5.684,1.561-6.827.121a13.946,13.946,0,0,0-9.172-5.006,32.743,32.743,0,0,0-7.4-.021c-2.548.2-5.1.7-4.992,4.34q-.33-1.09-.661-2.183c-4.684,1.605-6.585,4.68-5.688,8.971a6.8,6.8,0,0,1-2.344-.175,2.609,2.609,0,0,1-1.354-1.626c-1.149-6.34-6.2-10.045-12.552-9.208a12.781,12.781,0,0,1-3.15-.385c.961-2.026,4.482-3.089,6.269-2.087,1.7.954,3.325,2.06,5.075,2.91,3.151,1.53,5.468,3.664,5.813,7.537a15.734,15.734,0,0,1,7-7.436c.547-.277.837-1.545.834-2.353-.025-5.339,2.329-9.783,5.1-14.087a1.7,1.7,0,0,1,.545-.493c.122-.075.312-.038.943-.092a12.4,12.4,0,0,1-.8,2.429c-2.4,4.035-4.5,8.158-4.406,13.353,1.04-.228,2.051-.465,3.069-.669,7.221-1.446,13.7-.3,18.9,5.379,1.489,1.625,4.557.738,5.467-1.669a32.876,32.876,0,0,1-17.18-8.543C178.074,194.621,177.149,194.568,175.814,194.113Z"/>
      <path class="cls-1" d="M190.228,91.534c1.787,22.085,4.65,44.087,5.489,66.246l-.876.13a7.17,7.17,0,0,1-.4-1.421c-.427-6.285-.742-12.58-1.255-18.858-.612-7.5-1.418-14.984-2.077-22.48-.246-2.8-.233-5.629-.482-8.431-.388-4.362-.913-8.712-1.342-13.071a13.876,13.876,0,0,1,.1-2.081Z"/>
      <path class="cls-1" d="M177.764,159.057l-27.726-56.03.848-.419C160.209,121.243,170.521,139.389,177.764,159.057Z"/>
      <path class="cls-1" d="M186.164,93.726c3.3,21.322,6.1,42.7,7.436,64.248l-1.022.119c-1.064-10.713-2.035-21.437-3.219-32.137-1.187-10.731-2.587-21.438-3.894-32.156Z"/>
      <path class="cls-1" d="M235.632,168.549c2.8-3.152,5.617-6.288,8.393-9.462,4.466-5.106,8.929-10.216,13.34-15.37,1.379-1.611,2.587-3.369,3.874-5.06l.73.574-21.9,26.632.373.376,7.608-8.021.618.663c-4.593,4.391-7.672,10.454-14.816,12.727l1.847-3.131Z"/>
      <path class="cls-1" d="M166.929,96.079c6.552,18.057,13,36.148,18.734,54.481l-.874.295q-9.291-27.307-18.583-54.613Z"/>
      <path class="cls-1" d="M165.752,154.745Q149.123,133.1,132.5,111.45l.625-.538c.981,1.083,2.041,2.106,2.931,3.259q8.571,11.122,17.079,22.293c4.017,5.261,8.042,10.516,11.985,15.833a6.977,6.977,0,0,1,.619,2.445Z"/>
      <path class="cls-1" d="M206.874,116.254,205.5,157.983l-1,.027c-.678-3.3-.156-6.663-.016-10.013.15-3.568.228-7.14.374-10.709.143-3.48.4-6.957.483-10.438.084-3.521.018-7.045.018-10.568Z"/>
      <path class="cls-1" d="M178.115,171.5q-1.869-2.442-3.727-4.879c-2.483-3.587-4.966-7.187-7.477-10.767a7.832,7.832,0,0,0-1.147-1.116.078.078,0,0,1-.03,0c1.489,1.006,2.981,2.013,4.739,3.2l-7.308-10.384.672-.524c1.278,1.661,2.588,3.3,3.828,4.99,2.349,3.2,4.708,6.4,6.938,9.687.41.6.224,1.614.336,2.637l.586-.114,4.632,7.9Z"/>
      <path class="cls-1" d="M225.907,247.439l-1.892,3.741-.426-2.444-2.512,4.17c0-3.057,0-5.7,0-8.348a2.546,2.546,0,0,0-.09-.978c-1.133-2.582-1-2.825,2.171-3.572l-.541-1.318.243-.3,2.85,2.451C227.144,243,227.566,245.189,225.907,247.439Z"/>
      <path class="cls-1" d="M230.408,179.25l16.839-13.871.617.621c-1.48,1.354-2.943,2.725-4.442,4.056a23.444,23.444,0,0,0-4.243,4.418l5.612-4.132.38,1.481,4.229-2.361.411.65c-1.948,1.272-3.748,3-5.884,3.7-2.384.786-3.993,2.674-6.265,3.476s-4.54,1.632-6.809,2.45Z"/>
      <path class="cls-1" d="M181,96.58c3.494,15.906,6.88,31.833,8.972,48.007l-.807.159q-4.383-23.993-8.767-47.985Z"/>
      <path class="cls-1" d="M70.88,165.914a22.193,22.193,0,0,1-1.05-3.152,3.359,3.359,0,0,1,.29-2.12c.2-.332,1.088-.294,1.674-.349a6.836,6.836,0,0,1,6.1,2.235c1.4,1.5,1.629,2.319-.045,3.421-.625.411-1.261.813-1.842,1.282a2.454,2.454,0,0,1-3.73-.242A8.787,8.787,0,0,0,70.88,165.914Z"/>
      <path class="cls-1" d="M324.276,165.834a3.51,3.51,0,0,0-1.193.24c-3.233,2.1-4.219,2.09-6.957-.461-.412-.384-.692-1.64-.442-1.88,1.29-1.242,2.633-2.934,4.214-3.272,4.439-.95,4.475-.72,4.038,3.85A5.38,5.38,0,0,0,324.276,165.834Z"/>
      <path class="cls-1" d="M288.773,139.055l-31.289,23.754-.724-.957,31.417-23.682Z"/>
      <path class="cls-1" d="M173.709,155.618,155.635,123l.8-.452,18.372,32.419Z"/>
      <path class="cls-1" d="M303.009,389.166l-3.521,2.177-8.681-14.622.371-.305C295.059,380.6,298.939,384.779,303.009,389.166Z"/>
      <path class="cls-1" d="M229.739,156.686q7.429-11.832,14.86-23.662l.842.528-14.823,23.733Z"/>
      <path class="cls-1" d="M140.467,212.531c-.813-2.7-.689-2.813,1.988-2.622,1.731.124,3.49-.038,5.206.173a18.986,18.986,0,0,1,3.454,1.086l-.16.876Z"/>
      <path class="cls-1" d="M117.288,141.912l18.41,13.13-.612.863-18.368-13.19Z"/>
      <path class="cls-1" d="M99.579,379.578l-2.9-2.428c2.947-1.41,4.094-5.392,8.313-4.384Z"/>
      <path class="cls-1" d="M324.444,204.549l-1.945,1.644h4.473l.038.566-5.546.96,0,.268h3.905l.07.642-5.882,1.02C319.082,204.987,319.49,204.539,324.444,204.549Z"/>
      <path class="cls-1" d="M162.279,146.6,150.1,129.111l.66-.477,12.405,17.327Z"/>
      <path class="cls-1" d="M205.974,114.159l.806-20.333,1.083.037q-.451,10.166-.9,20.329Z"/>
      <path class="cls-1" d="M195.605,185.607c-1.115,1.316-1.83,2.932-2.683,3.008-1.826.164-2.046-1.636-2.051-3.067s.194-3.27,2.009-3.085C193.774,182.555,194.5,184.264,195.605,185.607Z"/>
      <path class="cls-1" d="M230.707,152.03a33.876,33.876,0,0,1,1.665-4.217c2.425-4.391,4.968-8.717,7.466-13.068l.686.349c-.86,1.652-1.677,3.328-2.587,4.952q-3.219,5.735-6.523,11.422c-.138.238-.511.339-.775.505Z"/>
      <path class="cls-1" d="M278.873,150.927,263.518,161.3l-.594-.878,15.485-10.191Z"/>
      <path class="cls-1" d="M115.805,375.824c.708-1.178,1.417-2.356,2.4-3.982.786,1.077,1.946,2,1.8,2.6-.359,1.447-.485,3.371-2.387,3.711l-1.77-2.333Z"/>
      <path class="cls-1" d="M293.559,141.164l-13.387,9.181-.413-.583,13.293-9.434Z"/>
      <path class="cls-1" d="M109.943,356.162c-1.167-4.763-2.35-5.16,1.327-6.479C110.877,351.881,113.5,354.348,109.943,356.162Z"/>
      <path class="cls-1" d="M324.3,210.712l-2.314.48c.254.966.517,1.964.861,3.268l-2.752.173c-.2-1.493-.373-2.841-.588-4.482h4.736Z"/>
      <path class="cls-1" d="M248.87,164.009l10.282-7.883.491.588-9.994,8.2Z"/>
      <path class="cls-1" d="M317.9,145.96l-.036.044,3.118.168-1.867,3.369.073-.082-3.619,1.083Z"/>
      <path class="cls-1" d="M97.086,146.72l8.82,2.192C103.86,150.03,98.509,148.6,97.086,146.72Z"/>
      <path class="cls-1" d="M260.294,192.835a2.352,2.352,0,0,0,.178.233,12.268,12.268,0,0,1-.226,1.484c-2.013-.076-4.022-.243-6.135-.405C255.812,192.186,258.038,192.452,260.294,192.835Z"/>
      <path class="cls-1" d="M273.833,143.837l8.414-7.346.55.616-8.452,7.314Z"/>
      <path class="cls-1" d="M52.232,153.273c-.506-1.221-.8-2.071,1.214-2.1,1.362-.022,2.71-.858,4.064-1.33l.265.552q-1.889,1.155-3.782,2.316C53.4,152.9,52.818,153.087,52.232,153.273Z"/>
      <path class="cls-1" d="M263.456,117.982l-6.232,8.591-.572-.4,6.1-8.684Z"/>
      <path class="cls-1" d="M245.912,131l5.1-8.473.728.438-5.062,8.455Z"/>
      <path class="cls-1" d="M53.735,194.071a4.673,4.673,0,0,1-.378-1.692,13.175,13.175,0,0,1,.923-2.9c.167-.39.7-.956.966-.907a12.4,12.4,0,0,1,2.425,1.036c-1.888,1.242-4.191,1.675-3.174,4.319Z"/>
      <path class="cls-1" d="M193.576,225.621c1.3.895,1.877,1.955.841,3.453-.864-.7-1.653-1.34-2.7-2.19.352-.484.738-1.015,1.129-1.54C193.089,225.44,193.333,225.53,193.576,225.621Z"/>
      <path class="cls-1" d="M147.7,107.175l3.664,6.613-.808.444-3.742-6.566Z"/>
      <path class="cls-1" d="M152.866,126.9l-3.128-5.053.781-.506,3.25,4.922Z"/>
      <path class="cls-1" d="M249.017,156.882l5-5.5.622.538-4.806,5.7Z"/>
      <path class="cls-1" d="M134.619,186.983l-1.23-1.915c1.548-1,1.548-1,4.732,1.176-1.591.3-2.586.481-3.583.665Z"/>
      <path class="cls-1" d="M122.408,138.354l-5.912-4.8.486-.612,5.96,4.746Z"/>
      <path class="cls-1" d="M266.075,151.383,260.9,155.83l-.511-.6q2.606-2.205,5.212-4.409Z"/>
      <path class="cls-1" d="M129.5,116.777l-3.743-4.764.832-.649,3.666,4.77Z"/>
      <path class="cls-1" d="M186.235,142.115l-1.273-4.634,1.017-.3q.666,2.313,1.333,4.626Z"/>
      <path class="cls-1" d="M137.315,109.678l3.153,4.586-.684.483-3.367-4.468Z"/>
      <path class="cls-1" d="M229.274,212.381l-5.753.754-.157-.719,5.658-1.119Z"/>
      <path class="cls-1" d="M249.811,166.651l5.275-3.619.486.66-5.168,3.821Z"/>
      <path class="cls-1" d="M267.973,150.809l3.741-5.281.535.605-4.712,4.39Z"/>
      <path class="cls-1" d="M276.154,128.087l-5.055,5.6-.549-.489,5.02-5.634Z"/>
      <path class="cls-1" d="M147.777,118.751l-3.09-4.536.758-.577,3.234,4.416Z"/>
      <path class="cls-1" d="M261.338,133.674q2.427-2.876,4.855-5.752l.6.511-4.891,5.72Z"/>
      <path class="cls-1" d="M259.631,186.992l-2.2-.507c1-1.582,1.784-2.939,3.883-1.6-.61.755-1.185,1.465-1.761,2.175Z"/>
      <path class="cls-1" d="M237.628,103.279l2.194-6.624.811.277-2.3,6.585Z"/>
      <path class="cls-1" d="M267.763,111.958l-3.27,4.354-.76-.567,3.291-4.3Z"/>
      <path class="cls-1" d="M340.455,191.513l-3.749-1.8,2.736-1.195C339.733,189.375,340.024,190.235,340.455,191.513Z"/>
      <path class="cls-1" d="M258.059,180.917l3.968-1.443.422,1.182-3.972,1.515Q258.269,181.544,258.059,180.917Z"/>
      <path class="cls-1" d="M114.412,140.948l-4.79-3.088.551-.817,4.736,3.221Z"/>
      <path class="cls-1" d="M335.894,154.415l-1.03.044Z"/>
      <path class="cls-1" d="M146.445,356.287c-.319,1.389-.4,3.354-1.228,4.928-.961,1.831-2.573,3.32-4.1,5.2l-4.4.732-.082.71,3.017,1.718-.368.292c.5.646.867,1.6,1.522,1.878,1.581.673,3.307,1,4.955,1.527a20.1,20.1,0,0,1,3.261,1.24c5.012,2.634,9.3,5.973,8.919,12.354-.385,6.5-3.475,11.5-9.706,13.883-2.223.852-2.723,2.118-2.99,4.151-.79,6.017-1.742,12.014-2.662,18.013a12.434,12.434,0,0,1-.654,1.947c-3.136-1.634-6.12-3.072-8.951-4.766a2.954,2.954,0,0,1-.662-2.506c.981-5.067,2.119-10.1,3.2-15.153a6.407,6.407,0,0,0,.081-3.085c-.457.925-.911,1.852-1.371,2.776-2.188,4.4-4.392,8.785-6.56,13.192-.629,1.277-1.243,1.684-2.673.808-2.328-1.426-4.835-2.561-7.551-3.965l20.691-40.142-.561-.33L111.7,408.237c-2.764-1.986-5.419-3.79-7.9-5.807-.319-.26.019-1.805.475-2.461,3.326-4.787,6.772-9.49,10.157-14.237q7.54-10.571,15.055-21.161c.187-.263.433-.484.84-.933l3.708,2.467a56.633,56.633,0,0,1,3.292-6.1c5.737-8.135,10.21-16.976,14.664-25.828a56.652,56.652,0,0,0,2.3-5.794c1.528-4.114-.509-7.37-2.606-10.608-1.721-2.658-3.381-5.357-5.166-7.971-.339-.5-1.136-.68-1.92-1.12a11.677,11.677,0,0,1,.98-1.275c1.563-1.549,1.557-3.131.319-4.894-.837-1.192-1.828-2.483-.27-3.959l8.374,5.752c-.539,1.5-.991,2.75-1.519,4.213,2.232-.272,3.791-.414,3.288,2.452-.134.766,1.549,1.851,2.6,3.016l-1.382,1.651c2.65-1.259,3.478-.832,4.332,2.276.656,2.387,1.07,4.841,1.66,7.58,1.084-1.71,1.937-3.055,2.786-4.392,1.042,4.025.669,5.66-1.818,7.954l-2.135-.934-1.667,3.867.29-.006a34.22,34.22,0,0,0-3.07,3.916C153.6,342.416,149.383,348.711,146.445,356.287Zm-7.457,37.234a2.971,2.971,0,0,0,4.557-.463,31.516,31.516,0,0,0,3.8-7.633c.633-1.87-.84-2.926-2.64-3.314C142.742,386.025,140.868,389.767,138.988,393.521Z"/>
      <path class="cls-1" d="M214.276,436.007c.366-6.028.723-11.99,1.09-17.952.567-9.21,1.17-18.418,1.679-27.632.072-1.307.365-1.986,1.775-2.117,2.728-.253,5.447-.61,8.161-.986,1.516-.21,2.414.076,2.918,1.8q6.177,21.047,12.567,42.03c.553,1.822.178,2.391-1.705,2.44-2.322.06-4.643.336-6.951.626-1.36.17-2.04-.277-2.183-1.651-.068-.655-.4-1.286-.444-1.939-.147-2.242-1.231-2.87-3.436-2.56-3.5.492-3.662.37-3.438,4,.159,2.565-.38,3.887-3.3,3.709a39.223,39.223,0,0,0-5.953.532C214.907,436.321,214.75,436.2,214.276,436.007Zm10.465-32.559-.343.108q0,6.827,0,13.652c0,3.358.31,3.6,4.148,2.75Z"/>
      <path class="cls-1" d="M187.274,388.454c-1.052,1.6-1.855,2.839-2.681,4.066-4.184,6.215-8.463,12.37-12.506,18.676a24.8,24.8,0,0,0-2.33,6c-1.465,4.669-2.821,9.373-4.284,14.269-3.106-.926-6.065-1.708-8.923-2.762-.475-.174-.863-1.62-.691-2.332a69.481,69.481,0,0,1,2.7-9.348c2.359-5.939,1.986-12.047,1.808-18.21-.172-5.959-.037-11.928-.037-18.316,3.25.985,6.646,1.945,9.969,3.11.4.139.607,1.4.556,2.122-.308,4.383-.716,8.759-.74,13.309,1.888-3.742,3.986-7.4,5.578-11.262.851-2.065,1.762-2.477,3.7-1.8C181.88,386.853,184.422,387.567,187.274,388.454Z"/>
      <path class="cls-1" d="M313.512,329.555l7.185,5.467-4.088,5.633,7.491,5.77,3.642-4.757,7.133,5.5-3.319,4.786,8.168,6.247c.891-1.174,1.728-2.165,2.441-3.239,1.666-2.512,1.716-2.552,4.164-.681,1.637,1.251,3.24,2.548,5.052,3.977l-10.628,14.192-37.91-28.6C306.4,339.084,309.848,334.466,313.512,329.555Z"/>
      <path class="cls-1" d="M250.839,381.193c3.016-1.262,5.925-2.423,8.779-3.706.854-.383,1.482-1.292,2.343-1.631a15.647,15.647,0,0,1,4.63-1.221c.483-.03,1.182,1.381,1.568,2.23.784,1.728,1.422,3.522,2.2,5.486l-6.162,2.721c1.358,3,2.615,5.765,3.933,8.671.83-.322,1.519-.559,2.184-.852,3.136-1.378,3.17-1.4,4.461,1.654.731,1.731,2.129,3.753,1.713,5.211-.324,1.135-2.989,1.6-4.78,2.442,1.139,2.657,2.284,5.2,3.318,7.794.57,1.426,1.325,1.563,2.7,1.026,4.824-1.875,4.845-1.824,6.785,3.03a9.781,9.781,0,0,1,.867,2.322c.068.582-.19,1.609-.584,1.776-4.954,2.106-9.96,4.092-15.229,6.22C263.366,410.068,257.192,395.838,250.839,381.193Z"/>
      <path class="cls-1" d="M206.211,398.016c-.3,5.027-.575,9.663-.844,14.3-.42,7.225-.87,14.449-1.227,21.677-.1,1.975-.633,2.89-2.855,2.387a17.787,17.787,0,0,0-5.217-.373c-2.631.2-2.961-1.031-2.807-3.269.742-10.8,1.36-21.6,2.008-32.4.054-.9.007-1.8.007-2.772-.491-.112-.88-.239-1.279-.286-4.056-.478-4.056-.475-3.843-4.679.222-4.382.226-4.472,4.783-4.26,5.234.243,10.459.7,15.691.989,1.262.07,1.826.473,1.717,1.793-.151,1.825-.191,3.659-.295,5.488-.081,1.417-.608,2.149-2.236,1.74A23.347,23.347,0,0,0,206.211,398.016Z"/>
      <path class="cls-1" d="M326.982,375.132c.965-1.239,1.938-2.472,2.894-3.718.8-1.045,1.564-1,2.463-.071,1.39,1.434,2.908,2.748,4.245,4.229.385.426.678,1.573.428,1.838-3.694,3.916-7.488,7.74-11.417,11.75-11.185-11.554-22.045-22.773-33.058-34.148,1.492-1.561,3.487-3.794,5.68-5.812a2.526,2.526,0,0,1,2.393.324q11.2,10.88,22.225,21.932a39.838,39.838,0,0,1,2.945,3.706Z"/>
      <path class="cls-1" d="M248.24,431.429c-2.109-7.474-4.112-14.587-6.123-21.7-2.081-7.362-4.124-14.736-6.3-22.071-.378-1.274-.227-1.874,1.017-2.213,2.405-.655,4.81-1.312,7.207-1.994,1.8-.513,2.061.715,2.415,1.991q3.663,13.213,7.381,26.412c.563,2,1.262,3.967,1.762,5.983.349,1.4,1.052,1.614,2.36,1.306,4.622-1.087,4.631-1.05,5.866,3.541,1.09,4.052,1.087,4.042-3.013,5.187C256.733,429.013,252.661,430.178,248.24,431.429Z"/>
      <path class="cls-1" d="M261.1,369.722l-1.079-2.319-6.634-.779c-1.045-1.365-2.15-2.752-3.192-4.184-.918-1.262-2.267-2.416-1.322-4.279a1.133,1.133,0,0,0,0-.693c-1.984-.309-.946-2.062-1.473-3.055-.8-1.5-1.557-3.027-2.355-4.53-1.676-3.157-3.21-6.4-5.1-9.43-1.741-2.794-3.95-5.294-5.776-8.041-.6-.9-.55-2.213-.985-3.258a7.6,7.6,0,0,0-1.469-1.688c-.528,1.063-.905,1.819-1.273,2.559-1.251-2.411-3.079-4.718-1.51-8.669l2.446,4.238c.874-3.115,1.668-6.426,2.779-9.626.365-1.051,1.529-1.84,2.374-2.7.668-.683,2.01-1.309,2-1.942-.034-1.923.548-3.09,2.413-3.641a1.244,1.244,0,0,0,.162-1.085c-2.937-3.073.7-4.676,1.837-6.326,1.072-1.561,3.62-1.931,5.733-.229v-1.362l.737.053c-.109,1.028.091,2.238-.386,3.049-1.492,2.54-2,4.785.614,6.244-.743,1.292-1.268,2.331-1.91,3.291-1.013,1.516-2.183,2.932-3.146,4.477q-2.481,3.98-4.756,8.086a2.687,2.687,0,0,0-.069,1.887c.907,2.926,1.515,6.036,2.952,8.69,4.592,8.48,9.557,16.756,14.263,25.174,1.769,3.164,3.226,6.5,4.825,9.763Z"/>
      <path class="cls-1" d="M201.207,314.448l1.338.714-.773-1.7c2.082-.481,2.472-2.117,2.229-3.78-.275-1.882.765-3.32,2.748-3.046l-1.035-2.028,2.756-.35c.687,1.122-2.011,3.821,1.148,3.806,0,2.311,0,4.432,0,6.553,0,.083.043.2,0,.244-2.267,2.286-.756,5.259-1.372,7.874a38.862,38.862,0,0,1-3.463,8.684c-1.579,3.123-2.281,6.69-3.373,10.091-3.127-4.845-2.055-10-1.784-15.088a39.168,39.168,0,0,0-.355-4.7C199.012,317.922,199.02,317.922,201.207,314.448Z"/>
      <path class="cls-1" d="M190.181,331.5c-3.456-4.031-4.247-8.679-3.83-13.885.2-2.524-.856-5.151-1.354-7.729-.115-.6-.272-1.192-.41-1.787a12.537,12.537,0,0,0,1.754.236c3.949,0,3.84,3.863,5.636,5.905.169.192.066.623.084.869.551-.038,1.435-.2,1.476-.084a17.89,17.89,0,0,1,1.342,4.8c.169,3.968.052,7.951-.023,11.927a33.006,33.006,0,0,1-.431,5.439c-.138.738-1.014,1.339-1.855,2.37-.894-2.945-1.681-5.536-2.467-8.128.292-.37.915-.9.825-1.084-.906-1.808-1.929-3.559-2.92-5.325l-.324.177Z"/>
      <path class="cls-1" d="M200.109,364.222l-.048,1.009h-5.925c3.439-2.772.487-5.364-.211-8.014a7.532,7.532,0,0,1,.018-2.561c.163-4.326,1.793-8.184,3.43-12.891a10.729,10.729,0,0,0,.61,2.4c2.441,4.036,1.475,8.493,1.547,12.795.02,1.2-.823,2.4-1.122,3.628a11.65,11.65,0,0,0-.332,3.206C198.083,363.956,199.323,364.065,200.109,364.222Zm-2.057-14.1c-2.234,4.148-2.212,4.945,0,5.027Z"/>
      <path class="cls-1" d="M164.737,305.521l6.014,2.03-5,2.139c3.385,1.221,6.253-2.722,9.373.064l-3.328,1.871c2.777,1.229,4.628-.179,6.5-2.7-1.321,4.61-5.451,6.021-10.292,3.9l.948-.4-4.108-1.8c.558-1.056,1.117-2.112,1.653-3.124-4.517-1.867-4.517-1.867-4.6-4.764l2.909,2.839Z"/>
      <path class="cls-1" d="M209.312,243.127l7.069-5.05.654.428q-.448,3.389-.9,6.777l.61.087-1.769,2.277Z"/>
      <path class="cls-1" d="M223.509,311.955a5.286,5.286,0,0,1-1.27-.712c-.638-.637-1.175-1.376-1.753-2.073l.589-.581c1.287.273,2.581.513,3.857.827,1.072.264,2.124.614,3.185.925l.334-.883-4.334-1.942,7.635-2.392.235.371-4.166,2.031,1.726,2.941a17.022,17.022,0,0,1-3.158,1.5,10.767,10.767,0,0,1-2.96-.058Z"/>
      <path class="cls-1" d="M250.476,307.472c-.5-1.184-1.407-2.289-1.152-2.943.465-1.195,1.43-2.689,2.519-3.045,2.326-.761,1.994-2.051,1.5-3.719-.3-1-.423-2.045-.729-3.6C255.9,296.944,254.731,303.57,250.476,307.472Z"/>
      <path class="cls-1" d="M281.708,355.284q.678-9.888,1.358-19.775l1.32.109q-.9,9.873-1.793,19.744Z"/>
      <path class="cls-1" d="M143.246,307.583c-1.283-2.712-2.4-5.074-3.8-8.039,1.879,1.22,3.166,1.936,4.315,2.829C145.641,303.838,145.629,305.27,143.246,307.583Z"/>
      <path class="cls-1" d="M276.555,372.239c.869,1.5,1.739,3,2.465,4.261-1.02.577-2.353,1.572-2.537,1.393a6.1,6.1,0,0,1-1.84-2.992c-.144-.814.674-1.8,1.063-2.708Z"/>
      <path class="cls-1" d="M178.926,246.565c-.167-2.206-.335-4.412-.516-6.8,3.073,1.485,3.524,4.1,1.415,6.713Z"/>
      <path class="cls-1" d="M164.06,296.387c.675,1.605,1.4,2.71,1.5,3.871.044.479-1.164,1.237-1.932,1.566a1.81,1.81,0,0,1-1.688-.383,2.063,2.063,0,0,1-.038-1.78A28.964,28.964,0,0,1,164.06,296.387Z"/>
      <path class="cls-1" d="M231.662,297.607q.145,2.058.293,4.117c-.941-.355-2.635-.643-2.675-1.08-.1-1.089.555-2.246.907-3.376Z"/>
      <path class="cls-1" d="M223.429,311.913l2.636.76c-2.627,1.937-5,1.946-7.723-.473,1.794-.084,3.485-.162,5.172-.243Z"/>
      <path class="cls-1" d="M164.806,305.579c-.551-1.716,1.122-1.6,1.525-1.272,2.807,2.271,5.325,1.225,7.867-.463l.485.611c-.479.436-.953,1.24-1.438,1.247-2.836.042-5.675-.1-8.511-.183Z"/>
      <path class="cls-1" d="M178.44,307.556c-.38-.458-1.14-.977-1.078-1.365.5-3.118.2-6.524,2.878-8.97-1.375,3.235-3.286,6.365-.862,10.127Z"/>
      <path class="cls-1" d="M193.331,260.469l4.837,4.626c-1.973.934-2.944-1.23-4.3-1.846C193.427,263.047,193.532,261.639,193.331,260.469Z"/>
      <path class="cls-1" d="M191.405,294.127c.169-.6.231-1.631.527-1.7a2.57,2.57,0,0,1,2.139.322c.433.479.289,1.48.4,2.254-.4.038-.9.244-1.17.078a7.222,7.222,0,0,1-1.265-1.256Z"/>
      <path class="cls-1" d="M178.893,315.457a19.731,19.731,0,0,1,2.6-1.357c.12-.045.623.935.948,1.441l-2.947,1.21Z"/>
      <path class="cls-1" d="M214.083,262.736l-1.735,1.069-1.673-2.418C212.293,260.417,212.293,260.417,214.083,262.736Z"/>
      <path class="cls-1" d="M216.752,300.619c-.622,2.222.834,4.629-.051,6.828l-.925-.085.342-6.9Z"/>
      <path class="cls-1" d="M213.765,251.867c1.609,2.316-1.168,4.017-2.164,6.031a21.2,21.2,0,0,1,.59-2.305C212.651,254.363,213.209,253.169,213.765,251.867Z"/>
      <path class="cls-1" d="M168.438,301.565c-.13-1.577-.257-3.154-.385-4.745C170.005,298.028,170.123,299.543,168.438,301.565Z"/>
      <path class="cls-1" d="M319.12,149.541l1.867-3.369L317.869,146a34.363,34.363,0,0,1,3.8-2.756,13.941,13.941,0,0,1,3.266-.883l.783,3.174,10.255-1.557c-2.079,1.788-3.23,2.689-5.869,2.26A12.312,12.312,0,0,0,319.12,149.541Z"/>
      <path class="cls-1" d="M344.11,173.988c-1.558-3.431-3.186-6.833-4.622-10.314a4.052,4.052,0,0,1,.046-2.851c.454-1.065,1.54-1.482,2.2-.1a38.038,38.038,0,0,1,3.366,12.951Z"/>
      <path class="cls-1" d="M74.878,149.722c-1.285-1.481-2.423-2.924-4.788-2.976a48.129,48.129,0,0,1-7.181-1.208l.673,1.683-4.343-2.32.168-.659,9.575,1.282c.086-3.57.944-4.035,4.066-2.228,1.118.648,2.126,1.488,3.836,2.7l-3.9-.234a10.774,10.774,0,0,1,1.492,1.9,7.139,7.139,0,0,1,.353,2.083C74.822,149.756,74.878,149.722,74.878,149.722Z"/>
      <path class="cls-1" d="M269.605,193.153c-1.41,2.779-2.414,4.757-3.511,6.917-1.781-2.672-1.58-4.933.156-7.393a4.078,4.078,0,0,0,.372-3.043l-3.359,3.4-.662-.449,3-4.794,4.186.614c.113.606.268,1.436.44,2.355H268.07C269.6,191.686,272.444,192.411,269.605,193.153Z"/>
      <path class="cls-1" d="M275.919,173.658c.827-2.666,1.445-4.656,2.126-6.852.672,2.157,1.744,4.1-.018,5.9A7.387,7.387,0,0,1,275.919,173.658Z"/>
      <path class="cls-1" d="M199.289,164.808c-.17-.967-.5-2.853-.847-4.842,2.28-1.3-.971-3.863.847-5.906Z"/>
      <path class="cls-1" d="M171.206,130.412c2.047.826,3.545,2.119,3.778,4.473a5.54,5.54,0,0,1-.113.919l-1.909-3.226v2.706l-.527.13q-.593-2.523-1.183-5.049Z"/>
      <path class="cls-1" d="M272.6,178.343l2.2-4.188.685-.079c.238.683.831,1.51.626,2.011-.26.634-1.139,1.05-1.807,1.47a13.331,13.331,0,0,1-1.7.775Z"/>
      <path class="cls-1" d="M266.109,205.761c.4-4.8.648-4.959,3.676-2.682l-.96,1.455c-.461-.489-.835-.887-1.254-1.33Z"/>
      <path class="cls-1" d="M272.6,178.331l-4.673,1.894c.841-3.03,2.7-2.646,4.672-1.887C272.6,178.343,272.6,178.332,272.6,178.331Z"/>
      <path class="cls-1" d="M131.364,193.1,128,189.672l-.541.337c.755,3.218,3.785,6.238.875,9.98-1.026-2.106-1.995-4.1-2.963-6.088l.63-.3-2.666-1.445,3.018-1.161-1.878-.295.188-2.367,4.271-.471,3.07,4.733Z"/>
      <path class="cls-1" d="M132.679,178.812l-3.695-1.6.279-.607H125.6l.317-2.979C128.561,174.5,131.993,174.272,132.679,178.812Z"/>
      <path class="cls-1" d="M118.866,173.221l3.376,4.742c-1.337-.257-2.382-.192-3.1-.646-1.829-1.159-.508-2.714-.252-4.133Z"/>
      <path class="cls-1" d="M124.733,202.568c.966-.209,2.331-.906,2.806-.517.753.618.912,1.961,1.322,3l-.622.252-.88-1.578h-2.607Z"/>
      <path class="cls-1" d="M123.021,177.758l3.968,1.04-.255,1.095-4.012-.861Z"/>
      <path class="cls-1" d="M157.046,169.57l8.442,5.451-.522.771q-3.93-3.141-7.861-6.281Z"/>
      <path class="cls-1" d="M138.988,393.521c1.88-3.754,3.754-7.5,5.715-11.41,1.8.388,3.273,1.444,2.64,3.314a31.516,31.516,0,0,1-3.8,7.633A2.971,2.971,0,0,1,138.988,393.521Z"/>
      <path class="cls-1" d="M224.741,403.448l3.8,16.51c-3.838.847-4.153.608-4.148-2.75q.009-6.827,0-13.652Z"/>
      <path class="cls-1" d="M190.181,331.5l-2.5-6.3.324-.177c.991,1.766,2.014,3.517,2.92,5.325.09.179-.533.714-.825,1.084Z"/>
      <path class="cls-1" d="M198.052,350.124v5.027C195.84,355.069,195.818,354.272,198.052,350.124Z"/>
      <path class="cls-1" d="M343.6,130.014a16.268,16.268,0,0,1,1.192,3.608,2.532,2.532,0,0,1-1.048,2.086,2.645,2.645,0,0,1-2.4-.436c-.389-.388-.246-1.632.063-2.313A18.358,18.358,0,0,1,343.6,130.014Z"/>
    </g>
  </g>
</svg>
