<svg xmlns="http://www.w3.org/2000/svg" viewBox="0 0 405 409.634">
  <defs>
    <style>
      .cls-1 {
        fill: none;
        stroke: #fff;
        stroke-miterlimit: 10;
      }
    </style>
  </defs>
  <g id="Layer_2" data-name="Layer 2">
    <g id="Layer_1-2" data-name="Layer 1">
      <path class="cls-1" d="M298.164,355.294a64.812,64.812,0,0,1-10.735,3.222m18.218-6.447c-2.4,1.185-4.99,2.281-7.483,3.225m11.725-5.567c-1.284.805-2.724,1.591-4.242,2.342m6.4-3.831c-.651.5-1.376,1-2.159,1.489m-185.08,11.2q-4.587.925-9.151,2c-11.82,2.792-23.595,5.776-35.391,8.669-.556.137-1.127.218-1.69.325l-.156-.627,38.083-9.42.106-.662a8.377,8.377,0,0,0-2.222-.993c-8.5-1.057-17.042-1.842-25.505-3.142-3.68-.565-6.386-.974-7.461,3.69-.473,2.049-1.91,2.18-4.279,1.556,1.642-4.486,3.241-9,4.969-13.473a27.125,27.125,0,0,1,2.3-3.754c-1.06-1.726.13-4.017,1.533-6.017,2.075-2.957,4.488-5.678,6.758-8.5l.97.11a10.37,10.37,0,0,1,.655,2.836c-.049,1.033-.563,2.044-.369,3.271.326-.81.609-1.642.992-2.424.356-.728.653-1.746,1.264-2.041,2.505-1.209,2.11-2.406-.445-4.184a97.524,97.524,0,0,1,8.726-4.661c17.171-7.05,34.4-13.959,51.6-20.932,4.059-1.646,8.093-3.355,12.857-5.334-1.47,2.619-2.725,4.542-3.632,6.617a3.581,3.581,0,0,0,.114,3.012,3.715,3.715,0,0,0,2.888,1.356,2.978,2.978,0,0,1,2.7.941,4.273,4.273,0,0,0,3.312.805c.77-.176,1.984-1.8,1.786-2.275-1.172-2.816,1.638-4.223,1.8-7.191,1.9,2.817,3.5,5.2,6.878,3.264-.359.478-.92.912-1.036,1.444-.235,1.069-.638,2.408-.2,3.229a3.571,3.571,0,0,0,2.764,1.564,4.217,4.217,0,0,1,3.218,1.2,3.84,3.84,0,0,0,3.538.36c.854-.505,1.077-2.136,1.491-3.3a17.984,17.984,0,0,0,.639-2.53c.215-1.086.795-2.363.43-3.225s-1.643-1.43-2.627-1.907c-1.065-.516-2.312-.656-3.374-1.175-2.074-1.014-3.327-.663-4.2,1.464-.614,1.492-1.554,2.037-2.845.912a19.6,19.6,0,0,1-3-3.283c-1.862-2.589-1.815-2.635-4.289-.728-1.257.968-2.47,1.439-3.717-.26,1.08-2.319,3.346-2.942,5.562-3.522a1.905,1.905,0,0,1,1.661.7c1.017,1.86,1.8,1.219,3.07.178.866-.712,2.248-.821,3.416-1.138,2.026-.548,1.543,1.267,2.179,2.157a8.535,8.535,0,0,0,3.225,2.459,5.926,5.926,0,0,0,3.356.583c.848-.146,1.553-1.128,2.279-1.7,1.087.593,2.51,1.963,3.951,1.98,1.277.016,2.572-1.471,4.076-2.433-2.556-2.73-.741-5.372-.455-7.971.239-2.175-.333-2.808-2.448-2.112-1.471.484-2.752,1.06-4.5.542-.846-.251-2.26,1.1-3.279,1.9-.363.285-.227,1.133-.483,1.641-.911,1.815-1.5,3.867-4.491,2.517-1.861-.84-4.121-.8-6.2-1.148l-.128-.852c.813-.3,1.629-.584,2.44-.887,1.119-.418,2.517-.559,3.3-1.325,2.1-2.062,3.909-4.428,5.919-6.593a7.187,7.187,0,0,1,1.857-1.132c.983-2.4,1.886-4.84,2.976-7.189.548-1.183,1.467-1.317,2.249-.073,2.019,3.212,3.64,6.783,6.151,9.548,2.523,2.78,5.928,4.761,8.479,6.731.3,2.7.529,5.111.923,7.5.038.234,1.477.587,1.647.379a2.728,2.728,0,0,0,.64-2.007c-.346-1.559-.976-3.056-1.721-5.25l9.721,4.758c-.845,1.291-1.776,2.243-2.021,3.347-.083.376,1.563,1.134,2.418,1.718l2.332-3.925,3.321,1.239c-.419,1.3-.769,2.383-1.126,3.489-.924-.262-1.922-.909-2.559-.654-1.566.625-3.384,1.345-4.348,2.6-2.157,2.815,2.2,2.822,2.441,5.136a68.135,68.135,0,0,0-3.55,6.133,3.1,3.1,0,0,0,.412,2.9c.932.733,2.39.8,3.625,1.145l.274-.644c.418.484.752,1.233,1.272,1.4,1.156.371,2.614.915,3.548.5.684-.307.788-2.021,1.037-3.134.116-.515-.241-1.186-.035-1.621.762-1.607,1.669-3.145,2.632-4.912,3.155-.57,3.155-.57,4.416-5.819a10.534,10.534,0,0,1,.768,2.149c.338,2.556.636,5.12.8,7.691a7.58,7.58,0,0,1-.541,2.615c-1.065,3.4-1.879,6.632.729,9.894,1.445,1.808,2.593,2.078,4.329.757.773-.588,1.59-1.119,2.712-1.9l-1.343,3.413c1.346-1.077,2.135-1.709,3.254-2.6l-1.279,4.182.751.452,6.942-8.145.581.088v3.09l5.622-2.168c1.218,1.54,1.218,1.54,5.6-.6.9,1.838.809,1.711-.588,2.742-1.676,1.237-4.2.709-5.361,3.194-1.3,2.773-1.113,4.643,1.809,5.421,2.3.613,2.95,2,3.349,3.987.476,2.364,1.2,4.679,1.641,7.048.5,2.729,3.2,3.934,5.506,4.216a3.5,3.5,0,0,0,2.759-1.765c.623-1.415-.593-2.421-1.951-2.534a35.23,35.23,0,0,0-5.086.339c-.5-2.843-1.076-6.068-1.6-9.3a1.372,1.372,0,0,1,.333-1.12c1.6-1.166,3.267-2.25,4.763-3.261,3.258,5.165,2.422,13.608,7.95,19.318.654-1.614,1.29-3.183,1.842-4.548-.627-1.419-1.682-2.935-1.954-4.58-.934-5.66-1.636-11.361-2.291-17.061-.061-.526.716-1.409,1.311-1.7,1.592-.773,3.65-.251,4.98-2.041.343-.461,1.831-.069,2.9-.069-.358,1.336-.646,2.413-.935,3.49l.747.33c.513-.905,1.026-1.81,1.73-3.054,6.028,2.247,11.542,5.3,15.931,10.109l-.376.59-6.42-3.666c-1.993,1.123-4.383,2.407-6.7,3.815a6.806,6.806,0,0,0-1.395,1.679l.841.025c.323,2.608.645,5.215,1.036,8.371a8.658,8.658,0,0,0,2.986-.7c1.807-1.087,3.086-.789,4.322.769.759.957,1.615,1.837,2.778,3.146.19-1.054.467-1.615.344-2.068a5.4,5.4,0,0,1,1.958-6.241c.477-.376.36-1.519.491-2.313.106-.641.175-1.287.261-1.931.742.2,1.808.148,2.173.63,1.851,2.446,3.978,4.834,5.16,7.605.782,1.836-.619,3.849-3.169,5.813M404.5,193.551V348.5M196,.5H404.5V112.8M102.344,34.331c.636.961,1.534.983,2.865.5,5.327-1.919,10.678-3.771,16-5.685q18.207-6.543,36.4-13.131c8.057-2.931,16.047-6.05,24.134-8.892,4.275-1.5,8.695-2.589,13.045-3.877a13.252,13.252,0,0,0,1.405-.638c-.255-.159-.469-.328-.658-.471m207.7,109.834a4.083,4.083,0,0,0-2.042-2.711c-18.953-9.1-38.342-17.183-58.5-23.163-15.478-4.592-31.2-8.341-46.8-12.554-1.12-.3-2.012-1.388-3.067-2.013-.96-.567-2.2-.8-2.959-1.54-1.482-1.453-2.714-3.162-4.132-4.864l2.206-.322c-1.664-1.808-6.346.988-4.777-4-1.637.484-2.134.58-2.443-1.468-.419-2.78.593-6.345-2.638-8.394-.274-.174-.23-1.31.034-1.8,3.065-5.7,1.661-11.31-.256-16.923-.99-2.9-.461-4.059,1.814-6.045,3.28-2.864,6.953-2.477,10.748-1.794.934.168,1.874.295,3.061.48-.557-2.679-2.628-3.193-4.293-3.691-2.974-.889-5.27-2.178-6.992-4.994-2.484-4.06-6.684-5.558-11.3-5.843a9.028,9.028,0,0,0-8.854,4.956c-2.363,4.186-4.516,8.5-6.637,12.812-1.306,2.658-1.74,2.89-4.491,1.891A9.514,9.514,0,0,0,248,29.541c-4.245-.128-8.492-.176-12.737-.3a3.632,3.632,0,0,1-1.378-.524c-.367-.182-.906-.713-1.007-.633-2.6,2.061-5.689-.421-8.006.678-.639-.432-1.393-1.2-1.641-1.067-2.582,1.433-5.152-.13-7.711.061-.532.039-1.585-.517-1.591-.816-.069-3.141-1.936-3.548-4.445-3.149-.131.02-.291-.134-.439-.208.062-.837.126-1.672.147-1.955-5.045.085-9.615.1-12.337-5.27l-1.752,2.216-1.151-1.055-4.088,1.629c-.188-2.341-1.681-2.421-3.2-2.052-.481.117-.78.978-1.326,1.721l-1.18-1.585c-1.155.829-2.339,1.716-3.57,2.53-.209.138-.819.074-.9-.08-.2-.382-.429-.99-.26-1.3,1.206-2.2-.308-2.6-1.827-2.521-2.506.134-5.432-.853-7.087,2.267-.249.471-1.353.422-1.959.785a12.241,12.241,0,0,0-2.165,1.7c-.442.426-.618,1.319-1.095,1.487-2.65.938-5.374,1.666-8.028,2.592a3.09,3.09,0,0,0-1.364,1.408c-.8,1.4-1.16,3.217-2.28,4.207-1.559,1.376-3.65,2.149-5.878,3.382.522,2.619-2.9,1.793-4.354,3.041-1.344,1.152-3.8,1.021-5.113,2.19-1.826,1.629-2.917.617-3.775-.1-2.789,1.576-5.3,2.887-7.681,4.413-.64.411-.878,1.467-1.267,2.243a12.973,12.973,0,0,1-1.628,3.222c-1.066,1.124-2.575,1.812-3.77,2.833-1.662,1.419-2.66,3.9-5.641,2.991-.514-.156-1.323.662-1.809,1.595h2.605l.315.787L112.4,58.4c.664,2.674-1.378,3.848-3.929,4.692,1.733,4.248-3.424,1.265-3.476,3.819l1.689,2.439c-1.98,5.3-6.9,4.749-10.843,5.864C80.624,79.513,65.36,83.64,50.131,87.9c-3.344.935-5.891-.253-6.918-3.621-.9-2.959-1.712-5.947-2.59-9.018l15.215,9.31c.263-1.134.5-1.892.6-2.668.056-.438.03-1.18-.2-1.3a1.74,1.74,0,0,0-1.537-.032c-1.282,1.166-1.867.389-2.827-.533-1.273-1.222-1.893-3.209-4.4-3.158-1.613.032-2.2-3.231-1.276-5.956,4.509.73,6.115,4.754,8.539,8.132a6.689,6.689,0,0,0-1.972-6.488,12.858,12.858,0,0,0-4.1-2.761c-1.289-.458-2.869-.094-4.7-.094l-.884-2.871c3.529,1.165,6.685,2.331,9.922,3.2.955.255,2.142-.321,3.215-.552.945-.2,1.879-.454,3.039-.738.065,3.145,2.054,3.441,4.426,3.356,1.737-.062,3.5.3,5.219.137,5.53-.526,8.818-4.292,10.957-8.8,2.522-5.317,3.908-11.008,1.548-16.9-.7-1.753-.091-2.86,1.657-3.5,1.954-.712,3.883-1.5,5.812-2.276A8,8,0,0,0,91.3,39.288M403.116,351.307c.09-3.377.054-6.756.083-10.135.032-3.758.132-7.515.109-11.273-.013-2.026-.22-4.051-.34-6.087-3.416,1.531-4.75-.11-4.429-4.762l-3.785-2.368c-.324.886-.727,1.985-1.13,3.085l-.586-.129c.331-1.6.662-3.194,1.034-4.992l-3.022-1.009c-.649.923-1.3,1.874-1.973,2.8s-1.4,1.843-2.23,2.935c-.684-1.15-1.308-2.317-2.046-3.408-.764-1.129-1.638-2.182-2.525-3.347a9.212,9.212,0,0,0,.069,11.524,29.442,29.442,0,0,1,3.016,4.257,7.661,7.661,0,0,1,.478,2.472l-.628.562-20.793-11.256v-6.32c-.88.41-2.047.88-3.144,1.477-2.008,1.094-3.45.428-3.862-1.859-.529-2.937-1-5.887-1.622-8.8-.143-.668-.826-1.22-1.5-2.166a33.256,33.256,0,0,0,1.3-5.77,19.888,19.888,0,0,0-.674-6.277c-.583-2.2-1.949-3.51-4.458-1.955-.365.226-1.109-.149-1.674-.259-.713-.139-1.423-.292-2.862-.59a8.973,8.973,0,0,1,2.244-1.057,21.062,21.062,0,0,0,8.106-3.121c-3.67-2.357-6.577.18-9.744,1.41-1.312-4.221,3.7-4.611,4.352-8.147a31.122,31.122,0,0,0-3.2,1.567c-.759.489-1.28,1.493-2.073,1.744a3.82,3.82,0,0,1-2.611-.391c-.253-.128-.159-1.463.144-2.059.652-1.282,1.544-2.443,2.145-3.787-2.78.938-2.2,5.367-6.069,5.332v-3.323l-2.941-1.9c-.719,1.825-1.412,3.587-2.138,5.434l-10.14-.743,3.877,3.344c-.609,2.149-4.349,2.647-2.309,5.739-4.477-.222-8.515-.492-12.557-.594-2.151-.055-4.332.423-6.459.224-2.538-.238-5.329-.391-7.492-1.548a69.987,69.987,0,0,0-22.259-7.656c-.944-.149-2.033.623-3.055.968a9.852,9.852,0,0,0,1.56,2.5c3.525,3.016,7.377,5.687,10.652,8.944a6.828,6.828,0,0,1,1.527,7.56l.07-.076-3.561,2.96-.379-.308q1.187-2.139,2.372-4.277l-.634-.39-2.813,4.424c-4.075-.132-2.47-3.186-2.772-5.627l-1.381,1.734L276.934,295l-.706,1.481-1.539-.883v3.945c-1.936.222-3.5,3.037-5.921.51-.112,2.717-1.692,2.724-3.407,2.082q-9.117-3.41-18.182-6.959c-6.118-2.395-12.278-4.7-18.273-7.379-2.525-1.127-4.676-3.093-7.184-4.805-1.061,1.387-2.449.667-3.958-.4-3.46-2.451-6.525-5.223-7.879-9.394-1-3.094-.426-3.751,2.853-3.849a30.824,30.824,0,0,0,3.767-.61l-3.267-2.068,2.416-1.172a28.105,28.105,0,0,1-3.777-.476,1.974,1.974,0,0,1-1.074-1.277c-.064-.231.614-.859,1.052-1a27.35,27.35,0,0,1,3.39-.563l-4.364-.894c-.537-5.371-1.1-10.806-1.575-16.249-.034-.384.619-.828,1.195-1.051-.365,2.634,1.255,5.386,3.795,5.843,1.342.242,2.8.252,3.431-1.567.355-1.023.709-2.348,2.385-1.956.183.043.7-.5.678-.538-1.819-2.939,2.681-3.493,2.243-6.226a21.079,21.079,0,0,1,.595-7.9,63.359,63.359,0,0,1,2.935-8.068c.236-.615.69-1.154.877-1.778.344-1.146.21-2.978.911-3.361,1.379-.755,3.192-.725,4.83-.99a5.328,5.328,0,0,1,1.063.051c.448,3.449.715,6.912,1.4,10.292a25.225,25.225,0,0,0,2.389,7.024c3.143,5.774,4.782,12.033,6.405,18.305.887,3.425,1.5,6.922,2.258,10.506,1.129-4.683.234-9.316-.656-14.4,2.784.858,4.365,2.269,5.195,4.29a6.724,6.724,0,0,0,5.054,4.361,2.918,2.918,0,0,1,2.454,2.39c1.2,4.253,8.321,9.506,13.169,8.4a10.413,10.413,0,0,0,5.709-3.954c2.462-3.577,2.826-7.905,2.567-12.226-.184-3.066-.41-6.135-.4-9.2a3.254,3.254,0,0,1,1.378-2.124c1.047-.759,2.343-1.593,3.511-.113,1.936,2.451,3.794,4.964,5.731,7.415a24.836,24.836,0,0,0,3.355,3.854c1.717,1.426,3.386,1.588,3.856-1.81l1.406,3.235.732.044q3.171-11.126,6.341-22.251c-3.649,3.424-4.994,8.194-7.087,12.367-4.232-2.262-8.333-4.382-12.337-6.671a2.893,2.893,0,0,1-1.061-2.254c.062-1.561.616-3.1.765-4.661.138-1.45-.011-2.927.009-4.391.022-1.553.193-3.11.116-4.657-.066-1.343.052-3.012-.672-3.952-3.021-3.923-1.666-7,2.616-9.532l-.71-1.443.329-.283,1.512,1.055a9.8,9.8,0,0,0,.91-1.41c.819-1.9,1.112-4.156,3.814-4.591.494-.08.952-1.064,1.226-1.715.848-2.012,1.272-4.3,2.519-6,.663-.905,2.685-.816,4.211-.992a8.183,8.183,0,0,0,2.4-.467,6.585,6.585,0,0,0,2.09-1.858,40.072,40.072,0,0,1,2.7-3.69c.546-.924,1.1-1.841,1.629-2.777a1.51,1.51,0,0,0,.3-.919c-.668-2.531,1.74-4.994.157-7.551a.993.993,0,0,1,.091-.95c3.495-2.779.765-5.825-.431-7.855-1.939-3.289.233-5.144,1.754-6.493,2.407-2.134.926-4.3,1.1-6.44.036-.455-.378-.936-.381-1.406-.011-2.287.048-4.573.085-7.1a14.866,14.866,0,0,1,2.666.519c14.168,5.135,28.318,10.322,42.486,15.458A2.775,2.775,0,0,1,360.989,164a11.6,11.6,0,0,1-2.522,7.4c-1.056,1.331-.829,2.191.15,3.816,1.571,2.612,2.059,5.871,3.031,8.848.759,2.326,1.557,4.638,2.361,7.025,6.111-3.55,11.547-7.187,15.335-12.86a53.212,53.212,0,0,1,4.573-5.272l.529.487c-1.508,2.123-3.037,4.232-4.516,6.376a16.216,16.216,0,0,0-1.924,3.2,8.514,8.514,0,0,0-.135,2.7c.807-.281,1.834-.339,2.381-.882,2.7-2.677,5.272-5.483,8.269-8.645a7.591,7.591,0,0,1-.594,1.929c-1.736,2.43-3.734,4.695-5.27,7.241-2.519,4.176-4.758,8.52-7.09,12.808-.137.252-.047.629-.079,1.284,2.294.114,4.5.326,6.7.31,3.623-.027,7.277-.946,10.821.711.438.2,1.333-.356,1.921-.717,2.312-1.42,4.631-2.839,6.847-4.4a3.284,3.284,0,0,0,1.434-2.122m-122.045,166.3c-3.972.67-7.937,1.4-11.882,2.2m18.142-3.218q-3.132.488-6.26,1.013m-144.347-9.144,4.2.9-.938,2.989c3.391-.778,6.388-1.074,9.035-2.2,2.108-.895,3.905-1.64,6.212-.912,1.27.4,2.431-.192,2.015-1.851a20.229,20.229,0,0,0-1.2-2.991l8.577-9.134c3.66,1.771,5.913.756,9.433-4.672-1.335.474-2.55,1.23-3.856,1.763a21.234,21.234,0,0,1-3.172.78c-.13-1.077-.559-2.229-.31-3.209a8.468,8.468,0,0,1,1.815-2.9,16.008,16.008,0,0,0,3.373-9.3c.037-.6-1.515-1.959-1.821-1.822-2.066.925-4.324,1.825-5.886,3.373-2.028,2.009-3.477,4.605-5.141,6.971-.169.239-.038.672-.168.96a8.012,8.012,0,0,1-1.115,2.1c-3.547,3.951-7.12,7.88-10.771,11.735a3,3,0,0,1-2.249.882c-1.578-.249-2.464.077-3.073,1.661-.619,1.613-1.233,3.4-3.613,3.368C137.716,348.863,137.243,349.89,136.822,350.385ZM322.1,254.027a40.179,40.179,0,0,0,4.819-.546,5.156,5.156,0,0,0,2.044-1.4c.587-.549.99-1.289,1.544-1.879,1.927-2.048,3.922-4.033,5.807-6.117a12.721,12.721,0,0,0,1.357-2.321l-.5-.424-7.472,4.951a58.631,58.631,0,0,0-.08-6.733c-.1-.853-1.087-1.6-1.67-2.392a12.546,12.546,0,0,0-1.615,1.877c-1.133,1.982-1.8,4.365-3.3,5.973-2.789,2.976-2.993,4.5.069,7.271ZM195.17,285.24c2.1,1.015,3.528,1.492,4.561-.124.769-1.2,1.5-2.638.343-2.795Z"/>
      <path class="cls-1" d="M.5,180.987A326.775,326.775,0,0,1,44.637,159.3c10.98-4.371,22.171-8.214,33.274-12.277a14.7,14.7,0,0,1,1.738-.455,31.529,31.529,0,0,1,2.516,4.478c1.295,3.584,2.507,7.214,3.438,10.9.312,1.238-.217,2.743-.548,4.079-1.11,4.487-.957,8.733,1.8,12.687,2.276,3.26,4.3,6.574,7.938,8.763,1.728,1.039,2.879,2.716,5.214,3.279,1.609.388,2.727,2.647,4.161,3.966q4.565,4.2,9.239,8.275c1.333,1.163.991,2.3.2,3.509-1.357,2.072-1.332,4.029-.662,6.535,1.55,5.792,2.052,11.7-.614,17.5-3.9,8.473-7.6,17.037-11.362,25.571-2.617,5.932-2.432,12-.637,18.071.857,2.9,2.986,4.318,6.025,4.273,5.2-.077,9.075-3.029,12.7-6.253a31.426,31.426,0,0,0,4.722-5.472c3.077-4.391,7.662-6.834,12.029-9.51a125.993,125.993,0,0,1,11.236-5.949c1.306-.628,3.275-1.3,4.265-.744.906.508.906,2.642,1.292,4.063a1.563,1.563,0,0,0,.627,1c.621-1.117,1.29-2.209,1.853-3.354,1.221-2.479,2.56-4.92,3.542-7.493,2.546-6.668,4.947-13.39,7.358-20.108.864-2.407,1.59-4.863,2.4-7.351,2.36.135,2.36.135,1.872,3.705.143.021.382.1.413.055,1.937-3.051,1.944-3.069,5.263-1.308a24.423,24.423,0,0,1,9.388,8.729c1.2,1.905,3.166,3.34,4.821,4.95.772.75,1.631,1.41,2.65,2.281l-1.837,1.243,1.5.66c0,.1.031.2,0,.262-3.444,6-1.055,12.64-2.046,18.909-.116.734.059,1.517-.086,2.24-.225,1.12-.61,2.208-.985,3.511.159.21,1.058.879,1.032,1.512-.023.584-1.037,1.128-1.6,1.672l1.6,2.027-2.068.975c-.1,3.324-.165,2.931-3.711,3.473a148.641,148.641,0,0,0-17.965,3.783c-2.129.6-3.788,2.866-5.661,4.372l.606.871c.985-.519,2-.982,2.948-1.565a43.909,43.909,0,0,1,19.837-6.172c.824-.069,1.639-.374,2.457-.372.78,0,1.894.012,2.242.48a2.69,2.69,0,0,1-.249,2.256c-2.417,4.442-6.311,7.22-10.824,9.21-1.625.716-3.333,1.244-5.059,1.878-.894-4.971-1.473-5.374-4.823-3.533l1.776,2.285-.369.449c-.718-.3-1.457-.551-2.149-.9-.708-.355-1.37-.8-2.16-1.272a15.025,15.025,0,0,0-.935,3.341c-.087,2.217-.672,3.6-3.264,3a.954.954,0,0,0-.825.42c-.809,3.027-3.7,2.646-5.778,3.5-6.849,2.819-13.746,5.521-20.627,8.261-10.132,4.033-20.451,7.659-30.333,12.232-6.509,3.011-12.422,7.33-18.532,11.175-1.778,1.118-6.481,1.849-7.972.85a3.217,3.217,0,0,1-.932-.963c-.863-1.416-1.675-2.863-2.421-4.151l2.577-.509c-.341-2.586-.686-5.206-1.072-8.136l1.907-1.294c-1.7-.3-2.985-.282-4.009-.786-.888-.437-1.412-1.559-2.235-2.2-.511-.4-1.543-.864-1.887-.63-2.093,1.422-2.049,1.486-4.013-.261.179,1.3.3,2.177.464,3.381a12.5,12.5,0,0,0-2.2.03,11.959,11.959,0,0,0-2.133.912l1.9,1.427c-.422,1.151-.813,2.213-1.339,3.646,1.694,1.354,3.914,2.576,5.265,4.43.743,1.021.049,3.108-.059,4.71-.02.29-.536.6-.488.831.5,2.381-.724,3.56-3.5,4.05,4.371,2.366,1.488,5.812,2.638,8.69a11.461,11.461,0,0,1,.9-2.854,6.748,6.748,0,0,1,2.522-1.986c-.983,2.355-.394,3.4,2.376,3.062-.33,1.608-.5,2.987-.9,4.3-2.242,7.383-4.611,14.728-6.778,22.133-.741,2.534-3,1.578-4.465,2.406a10.268,10.268,0,0,1-1.383-2.566c-1.55-7.374-2.844-14.806-4.549-22.143-.809-3.478-2.377-6.777-3.532-10.18a25.229,25.229,0,0,1-.838-3.57,2.249,2.249,0,0,0-3.083-2,13.434,13.434,0,0,0-4.7,1.822,4.128,4.128,0,0,1-4.559.54c-2.043-.81-4.21-1.234-5.518,1.266a13.239,13.239,0,0,0-.639,2.925c-.678-.355-1.89-.6-2.023-1.124-.69-2.712-2.721-2.79-4.745-2.5-3.452.5-6.859,1.3-10.3,1.875a8.232,8.232,0,0,1-2.391-.345c-.174.433-.227,1.036-.556,1.317-5.15,4.4-6.366,10.973-9.269,16.611a4.1,4.1,0,0,1-.448.588v-29.5l6.275-11.128.816.013c.453,1.6,1.538,3.329,1.244,4.776-1,4.919-2.5,9.737-3.78,14.6-.2.765-.271,1.565-.4,2.349l2.813-.151c-1.672-2.817.545-9.631,3.269-11.738,2.263,1.762,1.755,3.974.482,6.689,2.61-1.719,4.681-3.023,6.657-4.457.253-.182.049-1.038.006-1.578-.265-3.324,1.947-5.092,5.066-3.868.313-3.586-2.888-3.529-5.118-4.718,3.678-.537,4-.994,2.742-2.773a24.57,24.57,0,0,0,3.359-1.014A3.183,3.183,0,0,0,23.524,305c-1.307-1.76-3.123-1.974-5.18-1.344l.494,2.832-2.7-.139.406-2.065c-2.385.841-4.541-3.165-7.032.656-.155-1.095-.493-1.806-.286-2.278q3.035-6.933,6.279-13.771c.2-.427,1.136-.6,1.762-.714,1.368-.257,3.865-.195,3.947-.632.374-1.983,1.569-2,3.358-2.026-2.107-.255-2.723-1.138-2.234-2.963.127-.474-.739-1.742-1.146-1.74-1.8.009-1.982-1.09-2.183-2.42-.069-.452-.564-.839-1.017-1.467l-1.345,2.329-1.168-2.6-4.352.776,2.374,3.3-2.891-.684-1.207,2.272a7.782,7.782,0,0,1,2.271,1.188c1.155,1.27,3.2,2.453,2.313,4.471-1.82,4.147-4,8.136-6.06,12.243-.955-.4-1.748-1.033-2.456-.95-.793.094-2.052.733-2.162,1.314a66.226,66.226,0,0,0-.681,6.818c1.38-.612,2.9-.107,2.408.827-1.329,2.514-3,4.846-4.539,7.25Zm31.235,58.042a47.616,47.616,0,0,0,3.089-6.214,14.71,14.71,0,0,0,.4-5.038c-.044-1.246-.114-2.952-.884-3.577-.723-.588-2.525-.37-3.6.087-5.979,2.54-10.387,7.17-14.958,11.53-2.549-5.581-4.374-11.628-8.222-16.7A7.507,7.507,0,0,0,7.18,222.6c1.88,11.608,6.93,22.052,12,32.486a2.807,2.807,0,0,0,3.978,1.445c4.423-2.1,8.028-5.062,10.027-9.795C34.528,243.554,34.52,240.938,31.735,239.029Z"/>
      <path class="cls-1" d="M.5,72.5c1.3-.24,2.612-.45,3.907-.729,1.516-.326,2.231-.188,2.688,1.745a15.459,15.459,0,0,0,3.221,6.029c3.924,4.723,9.237,7.531,14.947,9.424,4.394,1.458,8.956,2.684,13.669,1.675,1.39-.3,2.63-1.247,3.984-1.782a8.3,8.3,0,0,1,2.275-.03L.5,107.992Z"/>
      <path class="cls-1" d="M.5,315.478c1.537-2.4,3.21-4.736,4.539-7.25.494-.934-1.028-1.439-2.408-.827a66.226,66.226,0,0,1,.681-6.818c.11-.581,1.369-1.22,2.162-1.314.708-.083,1.5.549,2.456.95,2.059-4.107,4.24-8.1,6.06-12.243.885-2.018-1.158-3.2-2.313-4.471a7.782,7.782,0,0,0-2.271-1.188l1.207-2.272,2.891.684-2.374-3.3,4.352-.776,1.168,2.6L18,276.925c.453.628.948,1.015,1.017,1.467.2,1.33.383,2.429,2.183,2.42.407,0,1.273,1.266,1.146,1.74-.489,1.825.127,2.708,2.234,2.963-1.789.024-2.984.043-3.358,2.026-.082.437-2.579.375-3.947.632-.626.117-1.558.287-1.762.714q-3.261,6.828-6.279,13.771c-.207.472.131,1.183.286,2.278,2.491-3.821,4.647.185,7.032-.656l-.406,2.065,2.7.139-.494-2.832c2.057-.63,3.873-.416,5.18,1.344a3.183,3.183,0,0,1,.406,1.982,24.57,24.57,0,0,1-3.359,1.014c1.255,1.779.936,2.236-2.742,2.773,2.23,1.189,5.431,1.132,5.118,4.718-3.119-1.224-5.331.544-5.066,3.868.043.54.247,1.4-.006,1.578-1.976,1.434-4.047,2.738-6.657,4.457,1.273-2.715,1.781-4.927-.482-6.689C8.012,320.8,5.8,327.618,7.467,330.435l-2.813.151c.13-.784.2-1.584.4-2.349,1.282-4.862,2.779-9.68,3.78-14.6.294-1.447-.791-3.176-1.244-4.776l-.816-.013L.5,319.977Zm16.149-1.47-.825-.967-3.119,1.973c.322.417.9,1.218.931,1.2C14.673,315.526,15.657,314.761,16.649,314.008Z"/>
      <path class="cls-1" d="M287.47,298.088c.9-1.177,1.719-1.219,2.825-.1a8.416,8.416,0,0,0,3.03,1.984c3.762,1.359,3.786,1.294,5.7-2.9v4.057l.756.259c.647-1.194,1.294-2.388,2.07-3.818,0,.895.03,1.53-.006,2.162-.109,1.915.81,2.638,2.69,2.722,4.183.188,7.751-.748,9.924-4.716.116-.212.252-.5.445-.57,4.155-1.538,8.32-3.05,12.482-4.568l.756.854a19.123,19.123,0,0,1-1.152,2.57c-.282.455-.9.7-1.358,1.048-3.016,2.26-5.97,4.464-5.741,8.93a17.983,17.983,0,0,1-.97,5.378,15.769,15.769,0,0,1-1.532,2.924,3.925,3.925,0,0,1-2.27,5.153c-.151.067-.345.055-.477.142-4.378,2.9-8.254,1.761-12.21-1.127-3.644-2.66-7.6-4.9-11.953-7.668l4.711-1.14.076-.6-6.961-1.466,7.575-2.984-.177-.977c-2.445-2.042-5.249-1.117-8.312-.47l1.154-2.135-3.452,1.313-.353-.442q1.4-1.948,2.8-3.895Z"/>
      <path class="cls-1" d="M356.024,140.176c1.023.4,2.04.819,3.072,1.2,4.376,1.6,8.765,3.171,13.125,4.817.491.185.826.784,1.233,1.191-.6.176-1.3.643-1.794.484-4.754-1.521-9.472-3.156-14.207-4.737-.712-.238-1.46-.367-2.192-.546l-.288.742a18.855,18.855,0,0,0,1.965,1.006c4.517,1.7,9.059,3.335,13.559,5.08.646.251,1.1.983,1.651,1.493a6.19,6.19,0,0,1-2.33.205c-5.211-1.727-10.365-3.623-15.58-5.336-1.69-.555-2.259-1.188-1.6-3.029q6.258-17.385,12.313-34.844c.606-1.744,1.324-2.128,3.093-1.458,5.214,1.974,10.513,3.727,15.74,5.671.654.243,1.077,1.111,1.607,1.689a6,6,0,0,1-2.331.241c-4.58-1.526-9.118-3.181-13.672-4.785-.677-.238-1.372-.43-2.058-.643l-.43.6a8.336,8.336,0,0,0,1.754,1.22c4.61,1.692,9.264,3.268,13.852,5.014.686.261,1.1,1.223,1.647,1.861a6.826,6.826,0,0,1-2.358.1c-4.656-1.555-9.272-3.23-13.91-4.84a15.8,15.8,0,0,0-1.942-.417l-.3.94L383,119.657l.018.867a7.175,7.175,0,0,1-2.379.083c-4.676-1.5-9.316-3.107-13.972-4.666-.541-.181-1.112-.274-1.955-.476-.728,1.966-1.433,3.873-2.233,6.035,2.595.972,5.014,1.806,7.361,2.809.593.254.954,1.049,1.422,1.595a5.512,5.512,0,0,1-2.1.318c-1.842-.5-3.619-1.238-5.439-1.826a14.721,14.721,0,0,0-1.99-.363l-.247.752c.89.4,1.763.854,2.673,1.2,1.554.6,3.172,1.047,4.677,1.745.491.227.714,1.033,1.059,1.575-.571.122-1.2.462-1.7.329-1.767-.469-3.488-1.109-5.232-1.666-.746-.238-1.506-.432-2.26-.646l-.373.916,8.517,3.488.121.81c-.683.155-1.44.581-2.035.418-2.467-.677-4.886-1.532-7.572-2.4-.751,2.049-1.456,3.97-2.259,6.159,4.359,1.622,8.534,3.185,12.718,4.727a29.285,29.285,0,0,1,3.292,1.151c.6.309.982,1.052,1.462,1.6-.7.122-1.49.519-2.084.322-4.584-1.515-9.125-3.156-13.69-4.731-.789-.272-1.623-.412-2.437-.613Z"/>
      <path class="cls-1" d="M74.656,353.035c1.895-5.271,3.209-10.849,5.808-15.746,5-9.421,13.349-15.335,23.1-19.242,17.681-7.088,35.429-14.008,53.118-21.077,7.641-3.054,15.329-6.04,22.749-9.574a45.54,45.54,0,0,0,11.055-7.529c2.2-2.02,3.3-5.236,4.86-7.939a7.792,7.792,0,0,1,.918-1.683,11.25,11.25,0,0,1-1.67,7.836,23.531,23.531,0,0,1-10.7,9.442c-16.062,6.824-32.191,13.494-48.32,20.162-11.219,4.638-22.647,8.809-33.672,13.864-11.067,5.074-18.417,13.9-22.591,25.382a55.587,55.587,0,0,1-3.488,6.7Z"/>
      <path class="cls-1" d="M147.426,106.676c-.708,4.677-1.372,9.361-2.163,14.024a8.821,8.821,0,0,1-1.232,2.378l-.9-.436c.749-4.822,1.509-9.642,2.243-14.465,1.277-8.389,2.515-16.783,3.844-25.163a9.5,9.5,0,0,1,1.2-2.472,9.523,9.523,0,0,1,1.921,2.164c1.611,3.652,3.063,7.374,4.591,11.063.236.57.571,1.1,1.216,2.32.731-4.707,1.35-8.692,1.971-12.677a14.5,14.5,0,0,1,.48-2.7c.206-.569.8-1,1.226-1.487l.654.365c-.177,1.37-.327,2.744-.535,4.109q-2.732,17.888-5.516,35.766a8.107,8.107,0,0,1-1.127,2.212c-.631-.627-1.52-1.141-1.852-1.9-1.895-4.332-3.658-8.723-5.466-13.094Zm3.546-21.545c-.183,6.525,3.711,11.7,5.985,17.407C156.96,96.072,153.1,90.891,150.972,85.131Zm3.467,31.931c.992-2.426-2.7-13.18-5.907-17.417C148.471,106.106,152.6,111.188,154.439,117.062Zm-4.61-24.509c.044,6.363,3.646,11.506,6.064,17.068C155.7,103.32,152.157,98.151,149.829,92.553Z"/>
      <path class="cls-1" d="M259.983,90.921c-1.918-.27-3.639-.432-5.318-.791-.589-.126-1.076-.735-1.609-1.123.593-.237,1.22-.739,1.775-.67q11.522,1.428,23.021,3.027c.6.084,1.142.635,1.711.968a6.214,6.214,0,0,1-2.026.693c-1.566-.043-3.125-.316-5.048-.538-.514,3.845-1.026,7.592-1.515,11.343-.808,6.192-1.575,12.39-2.442,18.573-.093.667-.726,1.258-1.109,1.884a5.657,5.657,0,0,1-.616-2.062c1.1-8.924,2.28-17.84,3.438-26.757a4.814,4.814,0,0,0,.14-1.483,10.486,10.486,0,0,0-.707-1.812c-.338.56-.9,1.09-.98,1.686-1.243,9.155-2.4,18.323-3.66,27.476a8.838,8.838,0,0,1-1.236,2.483,9.213,9.213,0,0,1-.479-2.661c1.105-9.091,2.313-18.169,3.415-27.259a6.155,6.155,0,0,0-.641-2.211,6.709,6.709,0,0,0-1.02,1.963c-1.229,9.16-2.39,18.328-3.567,27.495a2.879,2.879,0,0,1-.141.981,9.455,9.455,0,0,1-.947,1.222c-.269-.49-.807-1-.764-1.467.257-2.817.635-5.623.993-8.431.854-6.689,1.743-13.374,2.542-20.07a6.017,6.017,0,0,0-.565-2.091c-.376.618-1,1.2-1.089,1.858-1.193,8.828-2.31,17.665-3.45,26.5a9.586,9.586,0,0,1-.321,1.966,5.268,5.268,0,0,1-.911,1.248c-.267-.5-.81-1.038-.757-1.506.509-4.55,1.114-9.09,1.7-13.632C258.513,102.208,259.233,96.694,259.983,90.921Z"/>
      <path class="cls-1" d="M69.617,111.474A22.689,22.689,0,1,1,92.409,134.12,22.621,22.621,0,0,1,69.617,111.474ZM92.559,90.79c-11.191-.1-20.549,9.189-20.807,20.642-.249,11.061,9.2,20.651,20.553,20.853,11.268.2,20.811-9.269,20.912-20.753A20.911,20.911,0,0,0,92.559,90.79Z"/>
      <path class="cls-1" d="M25.8,109.466c1.329-1.336,2.25-.545,3.2.359q9.87,9.357,19.759,18.693c.588.556,1.188,1.1,2.165,2,.585-3.6,1.11-6.753,1.61-9.911q1.5-9.483,2.989-18.97a4.045,4.045,0,0,1,.345-1.447,15,15,0,0,1,1.423-1.74c.552.5,1.388.9,1.609,1.525,1.76,4.933,3.4,9.908,5.081,14.87,2.347,6.932,4.724,13.854,7,20.81.219.67-.188,1.546-.3,2.326-.587-.544-1.483-.98-1.715-1.647-3.415-9.816-6.739-19.664-10.094-29.5a5.845,5.845,0,0,0-1.47-2.494c-.774,4.791-1.56,9.579-2.319,14.372-.651,4.106-1.221,8.225-1.929,12.32-.391,2.268-1.914,2.894-3.465,1.431q-11.712-11.046-23.342-22.18A4.588,4.588,0,0,1,25.8,109.466Z"/>
      <path class="cls-1" d="M344.117,103.879c-5.73,6.37-11.432,12.767-17.226,19.078-.742.809-2.132,1.793-2.918,1.579-.812-.221-1.547-1.732-1.812-2.8-2.337-9.452-4.564-18.932-6.814-28.406-.168-.706-.261-1.43-.4-2.211,2.335-.541,2.39,1.167,2.7,2.425,2.139,8.731,4.231,17.473,6.344,26.211.154.639.358,1.266.677,2.383.984-1.044,1.758-1.829,2.492-2.65q8.415-9.4,16.819-18.814a5.933,5.933,0,0,1,1.379-1.425,2.578,2.578,0,0,1,1.975-.293c.383.188.626,1.242.491,1.806-1.255,5.263-2.608,10.5-3.927,15.75-1.724,6.859-3.412,13.727-5.209,20.567-.208.793-1.009,1.43-1.534,2.14-.195-.917-.732-1.918-.533-2.739,2.475-10.192,5.059-20.357,7.608-30.531.157-.627.257-1.268.384-1.9Z"/>
      <path class="cls-1" d="M44.77,135.126c-1.736,1.348-2.683.045-3.675-.89q-9-8.481-17.972-16.987a2.474,2.474,0,0,0-1.553-.746c.954,2.843,1.9,5.691,2.866,8.53,2.685,7.878,5.4,15.744,8.032,23.64a6.628,6.628,0,0,1-.138,2.372c-.642-.55-1.634-.979-1.873-1.669q-6.129-17.691-12.06-35.45a6.818,6.818,0,0,1,.051-2.254c.819.145,1.905,0,2.417.478,7.682,7.141,15.293,14.36,22.9,21.577A9.029,9.029,0,0,1,44.77,135.126Z"/>
      <path class="cls-1" d="M237.3,117.119c.257-6.5.492-12.284.712-18.069.228-5.99.415-11.982.7-17.968.028-.592.612-1.158.938-1.735.292.471.853.952.836,1.413-.464,13.217-.986,26.431-1.5,39.54-1.978.788-2.557-.485-3.225-1.681q-9.739-17.449-19.5-34.888-1.377-2.465-2.761-4.923l.714-.662a10.706,10.706,0,0,1,2.044,2.028c4.773,8.4,9.477,16.833,14.2,25.259,1.79,3.2,3.565,6.4,5.367,9.59C236.125,115.552,236.524,116.025,237.3,117.119Z"/>
      <path class="cls-1" d="M200.915,77.366c.93.638,1.93.963,2.312,1.638q11.307,20.011,22.479,40.1a2.4,2.4,0,0,1,.146.688l-.558.512a12.983,12.983,0,0,1-2.143-2.274q-9.668-17.064-19.234-34.185a4.735,4.735,0,0,0-1.758-1.914q-.322,7.773-.642,15.546c-.263,6.572-.494,13.145-.809,19.715-.029.6-.558,1.185-.856,1.777-.307-.644-.9-1.3-.879-1.929.464-12.812,1-25.621,1.526-38.431A9.058,9.058,0,0,1,200.915,77.366Z"/>
      <path class="cls-1" d="M132.574,119.54c.763-4.754,1.553-9.505,2.283-14.265,1.1-7.161,2.133-14.331,3.259-21.487a9.189,9.189,0,0,1,1.012-2.236l.972.307c-.084.931-.118,1.869-.259,2.791q-2.835,18.522-5.735,37.034a9.043,9.043,0,0,1-1.228,2.43c-.6-.666-1.462-1.233-1.766-2.015-4.642-11.952-9.212-23.931-13.8-35.9-.2-.532-.388-1.073-.617-1.709,2.01-.976,2.179.642,2.561,1.633,2.762,7.143,5.461,14.311,8.2,21.464,1.534,4.011,3.1,8.01,4.654,12.014Z"/>
      <path class="cls-1" d="M316.945,122.685c-2.212.366-2.194-1.28-2.484-2.453-1.9-7.672-3.738-15.359-5.608-23.038a5.591,5.591,0,0,0-1.151-2.4c-1.063,3.762-2.188,7.509-3.177,11.291-1.832,7.007-3.559,14.041-5.411,21.042-.185.7-.924,1.256-1.406,1.879a6.347,6.347,0,0,1-.259-2.15q4.362-18.079,8.87-36.125c.178-.712.965-1.272,1.469-1.9.551.539,1.442.993,1.6,1.629,2.6,10.412,5.1,20.846,7.617,31.278A3.966,3.966,0,0,1,316.945,122.685Z"/>
      <path class="cls-1" d="M373.775,338.646c-1.926,0-3.325.235-4.563-.11-.53-.148-2.493-1.025-.508-2.252h-4.88l.776-2.349c-1.84,1.633-3.376,1.17-5.271-.59a9.712,9.712,0,0,1,2.445-.861c4.893-.227,9.793-.516,14.687-.46a45.785,45.785,0,0,1,8.839,1.08,12.154,12.154,0,0,1,4.332,2.176,35.829,35.829,0,0,1,5.7,5.186l-6.541-1V337.28l-4.545-.672c-.212-1.374-.657-1.954-2.374-1.155a17.148,17.148,0,0,1-5.261,1.093c-.538.062-1.166-.546-1.732-.882-.6-.358-1.18-.758-1.769-1.139-.13.838-.312,1.673-.362,2.516C372.733,337.3,373.075,337.582,373.775,338.646Z"/>
      <path class="cls-1" d="M87.188,326.48c-2.268,3.027-4.132,5.407-5.879,7.869A45.064,45.064,0,0,0,74.7,349.865c-2.229,8.971-7.71,16.337-11.784,24.4a36.645,36.645,0,0,1-3.005,5.244c.91-2.587,1.754-5.2,2.743-7.757q5-12.915,10.087-25.794c2.856-7.241,6.956-13.617,13.1-18.54C86.076,327.232,86.328,327.078,87.188,326.48Z"/>
      <path class="cls-1" d="M318.581,322.1l-3.636.406c2.667,3.965,3.277,3.916,5.819-.3,2.49,1.849,4.761,3.517,4.091,7.306-.358,2.026.222,4.21.315,6.325a11.088,11.088,0,0,1-.268,1.955l-14.474-15.346C313.365,320.156,315.985,319.982,318.581,322.1Z"/>
      <path class="cls-1" d="M325.29,359.853a24.284,24.284,0,0,1-2.945-4.351c-1.12-2.76-1.811-5.692-2.727-8.537-3.125-9.718-9.4-17.053-17.466-23.033-.6-.445-1.177-.924-1.753-1.4a1.81,1.81,0,0,1-.28-.386c8.875-.026,24.2,22.088,25.826,37.261Z"/>
      <path class="cls-1" d="M203.209,269.753c1.808,8.535,7.591,13.623,14.939,17.239,3.2,1.575,6.6,2.752,9.875,4.176,8.137,3.535,16.258,7.108,24.232,11.067-4.892-1.776-9.849-3.391-14.66-5.364-7.381-3.026-14.727-6.158-21.963-9.513-5.641-2.616-10.361-6.4-12.5-12.56a30.1,30.1,0,0,1-.863-4.845Z"/>
      <path class="cls-1" d="M357.442,103.491c-.247.782-.406,1.343-.6,1.892q-6.031,17.061-12.072,34.118c-.139.392-.2.9-.479,1.135a9.456,9.456,0,0,1-1.676.925c-.1-.57-.43-1.215-.271-1.7,1.12-3.4,2.34-6.761,3.53-10.135q4.357-12.356,8.721-24.71a9.037,9.037,0,0,1,.858-2.063,1.372,1.372,0,0,1,1.238-.347C357.039,102.714,357.254,103.251,357.442,103.491Z"/>
      <path class="cls-1" d="M346.083,143.062c-.127-.7-.524-1.484-.335-2.083,1.051-3.331,2.222-6.625,3.394-9.917,3.042-8.545,6.087-17.09,9.2-25.61.254-.694,1.026-1.2,1.557-1.791.159.827.665,1.776.425,2.464-4.077,11.71-8.242,23.388-12.407,35.067a16.267,16.267,0,0,1-.959,1.889Z"/>
      <path class="cls-1" d="M233.879,120.643c-.633-.511-1.494-.894-1.866-1.553q-11.287-20-22.468-40.059a1.842,1.842,0,0,1-.067-.575c1.726-.876,2.078.627,2.622,1.592q9.258,16.415,18.471,32.855,2,3.561,3.978,7.136Z"/>
      <path class="cls-1" d="M349.242,144.123a6.8,6.8,0,0,1-.062-2.311c1.5-4.408,3.114-8.775,4.671-13.163q3.8-10.7,7.569-21.4a1.948,1.948,0,0,1,.276-.69c.547-.572,1.14-1.1,1.716-1.646.1.778.486,1.652.26,2.32-2.24,6.613-4.575,13.194-6.9,19.78q-2.7,7.647-5.434,15.277a14.382,14.382,0,0,1-1.084,1.986Z"/>
      <path class="cls-1" d="M229.757,120.319c-.633-.411-1.529-.673-1.859-1.255q-11.266-19.875-22.412-39.818a4.394,4.394,0,0,1-.279-.936l.511-.533a10.331,10.331,0,0,1,2.017,1.986q8.456,14.868,16.8,29.8,2.861,5.09,5.712,10.183Z"/>
      <path class="cls-1" d="M173.646,78.377c-.294,2.109-.568,4.22-.885,6.326-1.632,10.848-3.239,21.7-4.968,32.532-.184,1.149.457,3.2-2.291,3.219.684-4.576,1.34-8.984,2-13.39,1.327-8.791,2.64-17.585,4.013-26.37a14.99,14.99,0,0,1,.985-2.74Z"/>
      <path class="cls-1" d="M183.528,99.63c0,6.146.022,12.293-.033,18.439a5.305,5.305,0,0,1-.742,1.777c-.356-.561-1-1.11-1.024-1.685-.224-5.147-.335-10.3-.486-15.448-.21-7.226-.451-14.451-.6-21.678a7.144,7.144,0,0,1,.762-2.253c.354.72,1,1.436,1.014,2.16.081,6.229.047,12.459.047,18.689Z"/>
      <path class="cls-1" d="M161.839,120.71c.587-4.088,1.142-8.181,1.766-12.263q2.133-13.945,4.345-27.878a9.742,9.742,0,0,1,.937-2.2l1.119.357q-3.215,20.754-6.468,41.5c-.049.31-.7.524-1.069.782Z"/>
      <path class="cls-1" d="M147.6,81.244c-.746,5-1.478,10-2.24,15-1.279,8.388-2.56,16.776-3.9,25.155a8.583,8.583,0,0,1-1,2.135l-1-.349c.309-2.1.61-4.2.928-6.291,1.707-11.269,3.4-22.54,5.158-33.8a9.782,9.782,0,0,1,1.058-2.362Z"/>
      <path class="cls-1" d="M158.064,121.133c.746-4.983,1.481-9.967,2.239-14.948,1.251-8.223,2.5-16.447,3.805-24.661a13.319,13.319,0,0,1,1.059-2.7l.821.276a12.74,12.74,0,0,1-.012,1.895q-2.926,19.242-5.924,38.473a7,7,0,0,1-1.135,2.045Z"/>
      <path class="cls-1" d="M135.666,124.255c.52-3.574.916-6.422,1.35-9.264q2.409-15.79,4.864-31.574a10.118,10.118,0,0,1,.9-2.19l1.184.353q-3.272,20.853-6.578,41.7C137.344,123.512,136.754,123.654,135.666,124.255Z"/>
      <path class="cls-1" d="M290.17,126.938c1.839-9.721,3.58-18.953,5.334-28.181.606-3.185,1.2-6.372,1.9-9.537.129-.585.727-1.065,1.108-1.594.2.653.683,1.356.573,1.951q-3.414,18.382-6.986,36.737c-.125.643-.8,1.178-1.222,1.763Z"/>
      <path class="cls-1" d="M320.735,124.523c-.986-1.053-1.9-1.577-2.075-2.284-2.592-10.4-5.09-20.834-7.589-31.262a7.238,7.238,0,0,1,.312-1.75c.949,1.028,1.85,1.555,2.025,2.262,2.576,10.4,5.057,20.832,7.542,31.259A8.245,8.245,0,0,1,320.735,124.523Z"/>
      <path class="cls-1" d="M292.281,86.794q-2.226,11.751-4.453,23.5c-.931,4.9-1.837,9.809-2.845,14.695-.134.65-.808,1.189-1.232,1.779a5.677,5.677,0,0,1-.508-2.122q3.369-18.154,6.895-36.281a7.8,7.8,0,0,1,1.247-2.162Z"/>
      <path class="cls-1" d="M288.014,85.591a7.77,7.77,0,0,1,.352,2.434c-1.8,9.659-3.665,19.3-5.514,28.951-.454,2.371-.826,4.76-1.391,7.1a6.814,6.814,0,0,1-1.316,1.941,6.242,6.242,0,0,1-.41-2.16q3.151-16.944,6.421-33.868c.276-1.446.607-2.882.912-4.322Z"/>
      <path class="cls-1" d="M21.831,109.9c1.3.351,2.332.32,2.869.822,7.879,7.373,15.694,14.816,23.514,22.252a7.045,7.045,0,0,1,.634,1.366c-1.2-.158-2.26.032-2.731-.409C38.123,126.438,30.2,118.867,22.271,111.3,22.168,111.206,22.168,111,21.831,109.9Z"/>
      <path class="cls-1" d="M295.685,88.1c-1.141,6.107-2.194,11.823-3.28,17.533-1.257,6.612-2.516,13.224-3.855,19.819-.145.713-.831,1.316-1.265,1.97a7.565,7.565,0,0,1-.362-2.4q3.309-18.015,6.774-36c.137-.706.867-1.3,1.322-1.942Z"/>
      <path class="cls-1" d="M194.364,99.338c0,6.059.025,12.119-.035,18.178a6.424,6.424,0,0,1-.768,2.026c-.337-.627-.949-1.246-.97-1.885q-.63-18.8-1.1-37.6c-.013-.524.451-1.06.692-1.59.352.649,1,1.3,1.011,1.949.077,6.307.046,12.616.046,18.925Z"/>
      <path class="cls-1" d="M185.485,119.823c-.134-2.7-.315-5.4-.4-8.1q-.464-15.591-.841-31.184a5.511,5.511,0,0,1,.687-1.849c.365.616,1.03,1.222,1.051,1.85q.638,18.831,1.105,37.669c.015.589-.482,1.19-.74,1.786Z"/>
      <path class="cls-1" d="M189.034,78.421a13.6,13.6,0,0,1,.644,2.721c.339,11.476.623,22.954.93,34.431a14.669,14.669,0,0,1,.128,2.48,5.481,5.481,0,0,1-.906,1.656c-.283-.507-.785-1-.814-1.524-.207-3.736-.347-7.478-.452-11.219q-.374-13.224-.689-26.451c-.016-.629.078-1.261.121-1.892Z"/>
      <path class="cls-1" d="M58,108.967c.288.654.627,1.292.857,1.967q4.34,12.766,8.65,25.545c.08.236.239.5.193.715-.147.694-.372,1.371-.567,2.055-.475-.441-1.179-.795-1.386-1.338-1.07-2.8-2.025-5.642-2.995-8.479-1.8-5.277-3.663-10.537-5.336-15.855a20.292,20.292,0,0,1-.389-4.463Z"/>
      <path class="cls-1" d="M342.232,107.99c-.547,2.311-1.068,4.628-1.647,6.93-1.807,7.182-3.6,14.366-5.51,21.521-.19.712-1.115,1.229-1.7,1.836a6.619,6.619,0,0,1-.355-2.379c1.978-8.086,3.985-16.167,6.141-24.207.391-1.458,1.487-2.727,2.257-4.084Z"/>
      <path class="cls-1" d="M25.173,120.125c.839,1.1,2.017,2.084,2.461,3.327,2.88,8.07,5.621,16.19,8.328,24.321.2.612-.213,1.432-.342,2.155-.55-.441-1.409-.775-1.6-1.34-3.125-8.958-6.166-17.945-9.217-26.928a8.562,8.562,0,0,1-.223-1.148Z"/>
      <path class="cls-1" d="M204.424,86.55c.435,1.54.98,2.531.949,3.5q-.43,13.726-1.07,27.445c-.026.575-.624,1.123-.957,1.683-.279-.508-.818-1.024-.8-1.521.361-9.98.786-19.958,1.209-29.936C203.76,87.584,203.9,87.45,204.424,86.55Z"/>
      <path class="cls-1" d="M54.423,100.042,49.992,127.66l-.761.271c-.361-.863-1.135-1.786-1.02-2.579q1.73-11.93,3.769-23.814c.124-.732,1.049-1.327,1.6-1.986Z"/>
      <path class="cls-1" d="M344.02,98.573q-9.306,10.359-18.611,20.72l-.845-.227c.144-.854-.007-1.968.479-2.522q7.989-9.093,16.189-18c.5-.549,1.555-.594,2.352-.872Z"/>
      <path class="cls-1" d="M234.808,111.28a16.7,16.7,0,0,1-.709-3.679c.274-8.879.641-17.754,1.037-26.628a5.471,5.471,0,0,1,.811-1.787c.329.452.959.914.944,1.355-.339,10.181-.748,20.359-1.144,30.538Z"/>
      <path class="cls-1" d="M308.879,99.582a20.109,20.109,0,0,1-.052,4.678c-1.961,7.983-4.065,15.932-6.2,23.87-.181.672-.974,1.178-1.483,1.761a6.869,6.869,0,0,1-.215-2.2c2.119-8.885,4.3-17.755,6.482-26.625a10.584,10.584,0,0,1,.635-1.53Z"/>
      <path class="cls-1" d="M380.654,343.889l.8.5v3.093c-3.058,1.862-4.074,1.379-5.424-3,2.987-.14,4.045-3.268,7.209-4.039,3.249-.792,5.712.31,8.811.371l-.917,1.868-3.792-1.173.894,1.592c-2.382,2.082-5.02-.22-7.456.16Z"/>
      <path class="cls-1" d="M121.052,83.479c.527.46,1.316.817,1.541,1.394q4.965,12.787,9.755,25.641a9.166,9.166,0,0,1,.044,3l-.632.111L120.391,84.063Z"/>
      <path class="cls-1" d="M56.749,116.464c.384.949.815,1.882,1.145,2.849,2.088,6.124,4.19,12.243,6.183,18.4a6.993,6.993,0,0,1-.22,2.587c-.6-.591-1.512-1.075-1.768-1.791-2-5.625-3.963-11.269-5.753-16.965a23.209,23.209,0,0,1-.474-4.9Z"/>
      <path class="cls-1" d="M45.744,124.8c-.263-.873-.856-1.794-.739-2.613q1.375-9.612,3.033-19.183c.141-.81,1.013-1.493,1.547-2.234l.915.421-3.664,23.371Z"/>
      <path class="cls-1" d="M30.837,125.436c.842,1.132,2.008,2.145,2.469,3.415,2.094,5.768,4.026,11.6,5.906,17.438.237.738-.18,1.686-.294,2.537-.558-.563-1.4-1.028-1.633-1.7-2.463-7.026-4.83-14.086-7.224-21.137Z"/>
      <path class="cls-1" d="M337.138,113.814c-1.742,6.908-3.434,13.83-5.28,20.71-.28,1.043.247,3.018-1.856,2.729a6.745,6.745,0,0,1-.135-3.2c1.268-5.507,2.595-11,4.085-16.455a21.568,21.568,0,0,1,2.193-4.193Z"/>
      <path class="cls-1" d="M340.14,97.5l-15.78,17.484-.828-.184c.107-.847-.1-1.968.371-2.5q6.581-7.514,13.4-14.817c.5-.538,1.569-.547,2.374-.8Z"/>
      <path class="cls-1" d="M192.98,161.432c.6-4.193,3.7-5.347,6.334-6.565,3.286-1.52,8.76,1.227,9.823,4.654.235.757-.243,1.734-.392,2.61-.695-.4-1.75-.63-2.025-1.223-1.594-3.438-4.527-3.644-7.58-3.133-1.209.2-2.27,1.29-3.4,1.976C194.953,160.23,194.166,160.711,192.98,161.432Z"/>
      <path class="cls-1" d="M279.2,86.072c-8.309-1.056-16.139-2.036-23.959-3.089-.463-.062-.846-.717-1.266-1.1.531-.235,1.093-.727,1.588-.666q11.745,1.433,23.47,3.026c.518.071.967.643,1.449.982Z"/>
      <path class="cls-1" d="M254.676,84.73c8.3,1.037,16.054,1.984,23.8,3.016.561.075,1.04.761,1.557,1.163-.626.233-1.284.732-1.871.659q-11.751-1.446-23.481-3.066c-.421-.058-.777-.6-1.163-.91Z"/>
      <path class="cls-1" d="M231.652,105.55a16.86,16.86,0,0,1-.912-3.895c.188-6.986.493-13.969.838-20.95.028-.565.653-1.1,1-1.65.285.5.834,1.013.816,1.5-.3,8.063-.668,16.124-1.034,24.184C232.355,104.857,232.175,104.963,231.652,105.55Z"/>
      <path class="cls-1" d="M207.816,93.006a11.244,11.244,0,0,1,.891,3.175q-.262,10.565-.8,21.121c-.034.7-.739,1.364-1.133,2.045a7.472,7.472,0,0,1-.6-2.142c.265-8.014.6-16.026.91-24.038Z"/>
      <path class="cls-1" d="M310.336,107.021c.217,1.148.835,2.393.586,3.43-1.554,6.455-3.284,12.87-5.025,19.278-.122.446-.811.737-1.237,1.1-.185-.4-.6-.852-.521-1.185,1.845-7.531,3.744-15.049,5.634-22.569Z"/>
      <path class="cls-1" d="M133.058,106.549a14,14,0,0,1-.887-1.652c-2.456-6.443-4.911-12.887-7.3-19.357a6.833,6.833,0,0,1-.04-2.223c.559.557,1.37,1.013,1.636,1.686q3.483,8.808,6.761,17.7a17.181,17.181,0,0,1,.511,3.693Z"/>
      <path class="cls-1" d="M55.682,124.28c.813,2.3,1.643,4.6,2.433,6.912.963,2.819,1.946,5.633,2.787,8.489.15.51-.352,1.211-.553,1.823-.478-.334-1.233-.569-1.393-1.017-1.5-4.21-2.972-8.433-4.257-12.711-.3-1.008.132-2.238.228-3.365Z"/>
      <path class="cls-1" d="M36.292,130.762c.834.957,2.009,1.782,2.441,2.9,1.532,3.945,2.846,7.977,4.141,12.008.174.539-.229,1.263-.365,1.9-.548-.34-1.423-.563-1.594-1.039-1.818-5.066-3.523-10.173-5.26-15.269Z"/>
      <path class="cls-1" d="M383.364,339.627l-6.219-.451c.193,1.055.385,2.1.571,3.119-3.966,1.59-2.694,1.846-5.693-1.818a13.79,13.79,0,0,1,8.985-3.719c.88-.057,1.838,1.113,2.76,1.72Z"/>
      <path class="cls-1" d="M331.953,119.519c-1.317,5.311-2.608,10.628-3.995,15.92-.117.447-.871.727-1.33,1.085-.247-.518-.8-1.106-.7-1.542,1.025-4.376,2.076-8.75,3.319-13.067.291-1.012,1.334-1.807,2.032-2.7Z"/>
      <path class="cls-1" d="M328.456,357.95l-7.3-18.466C324.688,341.288,330.035,354.661,328.456,357.95Z"/>
      <path class="cls-1" d="M211.258,99.175a13.945,13.945,0,0,1,.778,3.352c-.094,5.072-.314,10.142-.566,15.209-.03.589-.538,1.155-.824,1.732-.291-.622-.846-1.25-.832-1.866.126-5.488.346-10.975.559-16.461a17.7,17.7,0,0,1,.263-1.864Z"/>
      <path class="cls-1" d="M228.561,99.453c-.383-.774-1.107-1.553-1.095-2.32.1-6.033.335-12.064.529-18.095l.807-.23c.3.561.872,1.129.858,1.683-.157,6.28-.4,12.558-.628,18.836Z"/>
      <path class="cls-1" d="M312.469,114.953c.816,5.778-2.252,10.895-3.329,16.348-.04.2-.912.245-1.78.454l4.085-17Z"/>
      <path class="cls-1" d="M127.754,83.1c2.756.223,7.694,13.375,6.312,16.507C131.914,93.978,129.893,88.694,127.754,83.1Z"/>
      <path class="cls-1" d="M387.944,345.574c.146-.179.433-.9.854-.989,2.042-.433,3.855-.708,5.235-2.854.987-1.533,5.013.2,7.124,3.315-2.218-.245-3.91-.36-5.577-.633-2.178-.357-3.362.636-2.836,2.285Z"/>
      <path class="cls-1" d="M383.22,349.948l1.547,4.655-2.259,1.511c-.878-1.607-1.8-3.036-2.457-4.578-.552-1.3.053-2.093,1.528-1.94A11.144,11.144,0,0,1,383.22,349.948Z"/>
      <path class="cls-1" d="M254.95,307.352l6.509,2.96-2.116,3.484L254.477,308Z"/>
      <path class="cls-1" d="M200.146,250.237c1.487,3.327-1.406,8.344,4.1,10.286h-7.141C202.166,258.225,198.991,253.606,200.146,250.237Z"/>
      <path class="cls-1" d="M398.1,349.669v-3.185c3.012-1,3.393,1.393,4.677,3.625Z"/>
      <path class="cls-1" d="M385.809,363.692a47.494,47.494,0,0,1-2.237-4.889c-.725-2.175.781-2.06,1.7-1.961.532,1.8,1.044,3.307,1.4,4.854a7.6,7.6,0,0,1-.071,2.011Z"/>
      <path class="cls-1" d="M387.677,365.113c.528,2.332.992,4.377,1.517,6.7C385.962,369.634,385.334,366.928,387.677,365.113Z"/>
      <path class="cls-1" d="M279.23,328.638q.969,5.4,1.939,10.806l-.765.141q-1-5.41-2.011-10.821Z"/>
      <path class="cls-1" d="M251.278,312.1l-5.256-1.423C247.843,309.176,249.563,309.576,251.278,312.1Z"/>
      <path class="cls-1" d="M136.822,350.385c.421-.5.894-1.522,1.354-1.516,2.38.032,2.994-1.755,3.613-3.368.609-1.584,1.5-1.91,3.073-1.661a3,3,0,0,0,2.249-.882c3.651-3.855,7.224-7.784,10.771-11.735a8.012,8.012,0,0,0,1.115-2.1c.13-.288,0-.721.168-.96,1.664-2.366,3.113-4.962,5.141-6.971,1.562-1.548,3.82-2.448,5.886-3.373.306-.137,1.858,1.219,1.821,1.822a16.008,16.008,0,0,1-3.373,9.3,8.468,8.468,0,0,0-1.815,2.9c-.249.98.18,2.132.31,3.209a21.234,21.234,0,0,0,3.172-.78c1.306-.533,2.521-1.289,3.856-1.763-3.52,5.428-5.773,6.443-9.433,4.672l-8.577,9.134a20.229,20.229,0,0,1,1.2,2.991c.416,1.659-.745,2.251-2.015,1.851-2.307-.728-4.1.017-6.212.912-2.647,1.124-5.644,1.42-9.035,2.2l.938-2.989Z"/>
      <path class="cls-1" d="M322.1,254.027l1-1.744c-3.062-2.768-2.858-4.295-.069-7.271,1.507-1.608,2.169-3.991,3.3-5.973a12.546,12.546,0,0,1,1.615-1.877c.583.794,1.565,1.539,1.67,2.392a58.631,58.631,0,0,1,.08,6.733l7.472-4.951.5.424a12.721,12.721,0,0,1-1.357,2.321c-1.885,2.084-3.88,4.069-5.807,6.117-.554.59-.957,1.33-1.544,1.879a5.156,5.156,0,0,1-2.044,1.4A40.179,40.179,0,0,1,322.1,254.027Z"/>
      <path class="cls-1" d="M195.17,285.24l4.9-2.919c1.152.157.426,1.592-.343,2.795C198.7,286.732,197.272,286.255,195.17,285.24Z"/>
      <path class="cls-1" d="M16.649,314.008c-.992.753-1.976,1.518-3.013,2.2-.033.021-.609-.78-.931-1.2l3.119-1.973Z"/>
      <path class="cls-1" d="M150.972,85.131c2.124,5.76,5.988,10.941,5.985,17.407C154.683,96.828,150.789,91.656,150.972,85.131Z"/>
      <path class="cls-1" d="M154.439,117.062c-1.839-5.874-5.968-10.956-5.907-17.417C151.743,103.882,155.431,114.636,154.439,117.062Z"/>
      <path class="cls-1" d="M149.829,92.553c2.328,5.6,5.874,10.767,6.064,17.068C153.475,104.059,149.873,98.916,149.829,92.553Z"/>
      <path class="cls-1" d="M92.559,90.79a20.911,20.911,0,0,1,20.658,20.742c-.1,11.484-9.644,20.955-20.912,20.753-11.35-.2-20.8-9.792-20.553-20.853C72.01,99.979,81.368,90.7,92.559,90.79Zm-.122,1.715a19.14,19.14,0,0,0-19.3,18.883c-.142,10.184,8.764,19.1,19.136,19.147a19.015,19.015,0,1,0,.169-38.03Z"/>
      <path class="cls-1" d="M20.7,240.31c5.105-3,7.481-3.117,10.473,0Z"/>
      <path class="cls-1" d="M92.437,92.505a19.015,19.015,0,1,1-.169,38.03c-10.372-.051-19.278-8.963-19.136-19.147A19.14,19.14,0,0,1,92.437,92.505Zm.1,1.94a17.073,17.073,0,0,0-17.057,16.963,16.827,16.827,0,0,0,17.21,17.271A17.083,17.083,0,0,0,109.5,111.7,16.888,16.888,0,0,0,92.534,94.445Z"/>
      <path class="cls-1" d="M92.534,94.445A16.888,16.888,0,0,1,109.5,111.7a17.083,17.083,0,0,1-16.814,16.982,16.827,16.827,0,0,1-17.21-17.271A17.073,17.073,0,0,1,92.534,94.445ZM76.877,111.32a15.721,15.721,0,0,0,15.313,15.6,15.471,15.471,0,0,0,15.556-15.265A15.228,15.228,0,0,0,92.721,96.231C82.858,96.116,77.366,103.113,76.877,111.32Z"/>
      <path class="cls-1" d="M76.877,111.32c.489-8.207,5.981-15.2,15.844-15.089a15.228,15.228,0,0,1,15.025,15.425A15.471,15.471,0,0,1,92.19,126.921,15.721,15.721,0,0,1,76.877,111.32Zm15.49,13.685a13.5,13.5,0,0,0,.241-27A13.762,13.762,0,0,0,78.86,111.3,13.477,13.477,0,0,0,92.367,125.005Z"/>
      <path class="cls-1" d="M92.367,125.005A13.477,13.477,0,0,1,78.86,111.3,13.762,13.762,0,0,1,92.608,98.009a13.5,13.5,0,0,1-.241,27Zm11.711-13.4A11.612,11.612,0,0,0,92.416,99.8a11.439,11.439,0,0,0-11.68,11.715,11.671,11.671,0,1,0,23.342.09Z"/>
      <path class="cls-1" d="M104.078,111.608a11.671,11.671,0,1,1-23.342-.09A11.439,11.439,0,0,1,92.416,99.8,11.612,11.612,0,0,1,104.078,111.608ZM82.5,111.431a9.741,9.741,0,0,0,9.935,9.96,9.882,9.882,0,1,0-9.935-9.96Z"/>
      <path class="cls-1" d="M82.5,111.431a9.82,9.82,0,0,1,9.853-9.8,9.882,9.882,0,1,1,.082,19.763A9.741,9.741,0,0,1,82.5,111.431Z"/>
      <g>
        <path class="cls-1" d="M55.214,409.134H45.23a.8.8,0,0,1-.936-.935V391.35a.8.8,0,0,1,.936-.935h8.294a6.008,6.008,0,0,1,3.77.974,3.613,3.613,0,0,1,1.222,3v1.248a3.694,3.694,0,0,1-.377,1.781,2.328,2.328,0,0,1-1.157,1.028,3.44,3.44,0,0,1,2.47,1.143,4.477,4.477,0,0,1,.806,2.886v2.393a3.98,3.98,0,0,1-1.235,3.223A5.824,5.824,0,0,1,55.214,409.134Zm-5.07-14.3v2.808h2.21a.974.974,0,0,0,.741-.26,1.092,1.092,0,0,0,.247-.78v-.728a1.1,1.1,0,0,0-.247-.78.978.978,0,0,0-.741-.26Zm0,6.812v3.068h3.38a.982.982,0,0,0,.741-.259,1.1,1.1,0,0,0,.247-.781v-1.013a1.047,1.047,0,0,0-.247-.768,1.01,1.01,0,0,0-.741-.247Z"/>
        <path class="cls-1" d="M71.048,408.2a.8.8,0,0,1-.936.935H66.29a.8.8,0,0,1-.936-.935v-6.865a7.674,7.674,0,0,1,.247-1.794,19.7,19.7,0,0,1,.767-2.366l2.262-5.9a1.215,1.215,0,0,1,.481-.649,1.54,1.54,0,0,1,.845-.208H76.95a1.491,1.491,0,0,1,.819.208,1.22,1.22,0,0,1,.481.649l2.262,5.9a20.065,20.065,0,0,1,.767,2.366,7.728,7.728,0,0,1,.247,1.794V408.2a.8.8,0,0,1-.936.935H76.664a1.131,1.131,0,0,1-.768-.22.92.92,0,0,1-.246-.715v-3.641h-4.6Zm1.482-12.325-1.222,3.953H75.39l-1.223-3.953a.975.975,0,0,0-.22-.337.4.4,0,0,0-.273-.1h-.65a.4.4,0,0,0-.274.1A.989.989,0,0,0,72.53,395.874Z"/>
        <path class="cls-1" d="M99.777,409.134H93.434a7.464,7.464,0,0,1-4.823-1.3,4.894,4.894,0,0,1-1.573-4v-8.086a4.937,4.937,0,0,1,1.573-4.018,7.42,7.42,0,0,1,4.823-1.312h6.343a.8.8,0,0,1,.936.935V394.5a.8.8,0,0,1-.936.935H94.552a1.842,1.842,0,0,0-1.2.325,1.2,1.2,0,0,0-.389.975v6.188a1.124,1.124,0,0,0,.389.95,1.964,1.964,0,0,0,1.2.3h5.225a.8.8,0,0,1,.936.936v3.1a.8.8,0,0,1-.936.935Z"/>
        <path class="cls-1" d="M111.217,409.134h-4.029a.8.8,0,0,1-.937-.935V391.35a.8.8,0,0,1,.937-.935h4.029a.8.8,0,0,1,.936.935v5.981h1.04l2.678-6.059a1.306,1.306,0,0,1,.494-.663,1.5,1.5,0,0,1,.806-.194h4a.688.688,0,0,1,.6.22.644.644,0,0,1-.026.637l-2.652,6.059a3.256,3.256,0,0,1,2.327,1.026,3.567,3.567,0,0,1,.871,2.51V408.2a.8.8,0,0,1-.936.935h-4a.8.8,0,0,1-.937-.935v-5.071a.943.943,0,0,0-.208-.65.8.8,0,0,0-.624-.233h-3.432V408.2a.8.8,0,0,1-.936.935Z"/>
        <path class="cls-1" d="M137.218,409.134h-4.212a.8.8,0,0,1-.937-.935v-3.328l-3.977-5.331a5.129,5.129,0,0,1-.793-1.4,6.168,6.168,0,0,1-.2-1.794V391.35a.8.8,0,0,1,.936-.935h4a.8.8,0,0,1,.935.935v4.265q0,.26.027.546a1.1,1.1,0,0,0,.208.545l1.195,1.873a1.027,1.027,0,0,0,.274.337.572.572,0,0,0,.35.1h.261a.579.579,0,0,0,.351-.1,1.052,1.052,0,0,0,.273-.337l1.195-1.873a1.114,1.114,0,0,0,.208-.545q.027-.286.027-.546V391.35a.8.8,0,0,1,.935-.935h3.874a.8.8,0,0,1,.937.935v4.992a5.823,5.823,0,0,1-.208,1.794,5.893,5.893,0,0,1-.781,1.4l-3.952,5.356v3.3a.8.8,0,0,1-.935.935Z"/>
        <path class="cls-1" d="M153.311,408.2a.8.8,0,0,1-.936.935h-3.822a.8.8,0,0,1-.936-.935v-6.865a7.674,7.674,0,0,1,.247-1.794,19.7,19.7,0,0,1,.767-2.366l2.262-5.9a1.215,1.215,0,0,1,.481-.649,1.542,1.542,0,0,1,.845-.208h6.994a1.491,1.491,0,0,1,.819.208,1.22,1.22,0,0,1,.481.649l2.261,5.9a19.905,19.905,0,0,1,.768,2.366,7.728,7.728,0,0,1,.247,1.794V408.2a.8.8,0,0,1-.936.935h-3.926a1.126,1.126,0,0,1-.767-.22.916.916,0,0,1-.247-.715v-3.641h-4.6Zm1.482-12.325-1.222,3.953h4.082l-1.222-3.953a.99.99,0,0,0-.221-.337.4.4,0,0,0-.273-.1h-.65a.4.4,0,0,0-.273.1A.975.975,0,0,0,154.793,395.874Z"/>
        <path class="cls-1" d="M174.527,409.134h-4a.8.8,0,0,1-.936-.935V391.35a.8.8,0,0,1,.936-.935h8.658q2.912,0,4.017,1.208a4.463,4.463,0,0,1,1.1,3.133v1.2a4.768,4.768,0,0,1-.325,1.858,2.023,2.023,0,0,1-1.131,1.105,3.424,3.424,0,0,1,2.275,1.144,3.83,3.83,0,0,1,.871,2.626V408.2a.8.8,0,0,1-.936.935h-4.03a.8.8,0,0,1-.936-.935V404.22a1.334,1.334,0,0,0-.221-.845.936.936,0,0,0-.767-.273h-3.64v5.1a.8.8,0,0,1-.936.935Zm.936-14.04v3.328h1.95a1.021,1.021,0,0,0,.91-.351,1.534,1.534,0,0,0,.234-.87v-.885a1.538,1.538,0,0,0-.234-.871,1.021,1.021,0,0,0-.91-.351Z"/>
        <path class="cls-1" d="M201.2,409.134h-8.762a.8.8,0,0,1-.936-.935V391.35a.8.8,0,0,1,.936-.935H201.2a7.478,7.478,0,0,1,4.823,1.3,4.9,4.9,0,0,1,1.573,4v8.113a4.9,4.9,0,0,1-1.573,4A7.466,7.466,0,0,1,201.2,409.134Zm-3.8-13.754v8.84H200.5a1.224,1.224,0,0,0,.923-.311,1.352,1.352,0,0,0,.3-.963v-6.318a1.3,1.3,0,0,0-.3-.949,1.259,1.259,0,0,0-.923-.3Z"/>
        <path class="cls-1" d="M226.916,409.134h-4.029a.8.8,0,0,1-.937-.935V391.35a.8.8,0,0,1,.937-.935h7.955q3.535,0,4.837,1.4a5.184,5.184,0,0,1,1.3,3.666v3.328a5.184,5.184,0,0,1-1.3,3.666q-1.3,1.406-4.837,1.4h-2.989V408.2a.8.8,0,0,1-.937.935Zm.884-13.858V399.2h2.341a1.061,1.061,0,0,0,.987-.391,1.685,1.685,0,0,0,.234-.884V396.55a1.685,1.685,0,0,0-.234-.884,1.065,1.065,0,0,0-.987-.39Z"/>
        <path class="cls-1" d="M242.8,409.134a.8.8,0,0,1-.937-.935v-3.1a.8.8,0,0,1,.937-.936h2.573v-8.736H242.8a.8.8,0,0,1-.937-.935V391.35a.8.8,0,0,1,.937-.935h11.075a.8.8,0,0,1,.936.935V394.5a.8.8,0,0,1-.936.935h-2.522v8.736h2.522a.8.8,0,0,1,.936.936v3.1a.8.8,0,0,1-.936.935Z"/>
        <path class="cls-1" d="M274.782,409.134H261.549a.8.8,0,0,1-.937-.935V391.35a.8.8,0,0,1,.937-.935h4.029a.8.8,0,0,1,.937.935v12.87h3.561v-4.212a.8.8,0,0,1,.937-.935h3.769a.8.8,0,0,1,.937.935V408.2a.8.8,0,0,1-.937.935Z"/>
        <path class="cls-1" d="M289.966,409.134H281.75a.8.8,0,0,1-.936-.935v-3.042a.8.8,0,0,1,.936-.937h6.994a.6.6,0,0,0,.507-.221.849.849,0,0,0,.169-.533,1.024,1.024,0,0,0-.169-.65.689.689,0,0,0-.507-.234l-3.9-.545a5.669,5.669,0,0,1-2.926-1.2,3.89,3.89,0,0,1-1.1-3.12v-2.729a4.156,4.156,0,0,1,1.43-3.394,6.026,6.026,0,0,1,3.952-1.182h7.281a.8.8,0,0,1,.935.935v3.094a.8.8,0,0,1-.935.936h-6.059a.639.639,0,0,0-.52.221.848.848,0,0,0-.182.56.9.9,0,0,0,.182.571.7.7,0,0,0,.52.261l3.874.519a5.748,5.748,0,0,1,2.938,1.2,3.863,3.863,0,0,1,1.119,3.121v2.729a4.139,4.139,0,0,1-1.444,3.394A6.037,6.037,0,0,1,289.966,409.134Z"/>
        <path class="cls-1" d="M305.617,409.134h-3.9a.8.8,0,0,1-.937-.935V391.35a.8.8,0,0,1,.937-.935h2.7a2.082,2.082,0,0,1,.846.155,2.035,2.035,0,0,1,.688.547L311,396.888V391.35a.8.8,0,0,1,.937-.935h3.9a.8.8,0,0,1,.936.935V408.2a.8.8,0,0,1-.936.935h-3.9A.8.8,0,0,1,311,408.2V405l-4.445-5.381v8.58a.8.8,0,0,1-.937.935Z"/>
        <path class="cls-1" d="M335.959,409.134H323.9a.8.8,0,0,1-.937-.935V391.35a.8.8,0,0,1,.937-.935h12.063a.8.8,0,0,1,.937.935v3.042a.8.8,0,0,1-.937.937h-7.176v2h5.071a.8.8,0,0,1,.935.935v2.782a.8.8,0,0,1-.935.936h-5.071v2.236h7.176a.8.8,0,0,1,.937.937V408.2a.8.8,0,0,1-.937.935Z"/>
        <path class="cls-1" d="M347.5,409.134h-4a.8.8,0,0,1-.937-.935V391.35a.8.8,0,0,1,.937-.935h8.657q2.913,0,4.018,1.208a4.467,4.467,0,0,1,1.1,3.133v1.2a4.75,4.75,0,0,1-.325,1.858,2.023,2.023,0,0,1-1.131,1.105,3.424,3.424,0,0,1,2.276,1.144,3.83,3.83,0,0,1,.871,2.626V408.2a.8.8,0,0,1-.937.935H354a.8.8,0,0,1-.937-.935V404.22a1.341,1.341,0,0,0-.22-.845.94.94,0,0,0-.768-.273h-3.64v5.1a.8.8,0,0,1-.935.935Zm.935-14.04v3.328h1.951a1.021,1.021,0,0,0,.91-.351,1.542,1.542,0,0,0,.233-.87v-.885a1.545,1.545,0,0,0-.233-.871,1.021,1.021,0,0,0-.91-.351Z"/>
      </g>
    </g>
  </g>
</svg>
