<svg xmlns="http://www.w3.org/2000/svg" viewBox="0 0 436.754 420.959">
  <defs>
    <style>
      .cls-1 {
        fill: none;
        stroke: #fff;
        stroke-miterlimit: 10;
      }
    </style>
  </defs>
  <g id="Layer_2" data-name="Layer 2">
    <g id="Layer_1-2" data-name="Layer 1">
      <g>
        <path class="cls-1" d="M234.872.5c.887,8.856,1.551,17.741,2.706,26.562,2.551,19.477,5.383,38.916,8.011,58.383.466,3.457.465,6.974.754,10.457A16.464,16.464,0,0,0,247,98.556l.692-.1-.64-14.518,1.014-.14c.86,4.55,1.719,9.1,2.516,13.321,1.439-.087,2.972-.477,3.153-.14a32.257,32.257,0,0,1,1.8,4.854l-.759.517-2.684-1.076c.187,2.077.356,4,.538,5.914.015.159.082.428.173.45,4.577,1.129,2.769,5.925,4.823,8.352,1.962,2.316.871,3.862,0,6.019-.669,1.662-.287,3.761-.315,5.666-.154,10.656-.466,21.314-.316,31.966.04,2.865,1.418,5.736,2.334,8.555.942,2.9,2.224,5.7,3.032,8.633.287,1.042-.384,2.348-.661,3.75l-2.785-.706c-.378,2.116-2.51,3.016-5.454,1.907.456,1.271.785,2.3,1.195,3.3,1.131,2.754-.06,5.072-1.2,7.481a7.585,7.585,0,0,0-.2,2.922c-.026,1.349-.007,2.7-.007,4.048l-.8.082a6.817,6.817,0,0,0-.686-1.406c-.325-.405-.8-.918-1.243-.959-1.283-.118-3.628,2.766-3.607,4.079.112,6.986.144,13.973.252,20.959.055,3.579.248,7.155.3,10.734a20.469,20.469,0,0,1-.384,3.005l-.993.272-2.781-5.338.531-.129c0,4.464-.01,8.929,0,13.394.007,2.274-.188,4.334-2.942,5.107-.435.123-.819,1.408-.769,2.124.467,6.808,1.043,13.608,1.566,20.412.211,2.738.285,5.49.575,8.219a53,53,0,0,0,1.507,8.217V280.69l.708-.087c.582,5.27,1.174,10.539,1.743,15.81.58,5.38,1.3,10.751,1.659,16.146.355,5.323.337,10.671.482,16.008l.956-.037-.42-5.878.677-.215a35.56,35.56,0,0,1,1.2,3.847c.277,1.381.42,2.61,2.305,2.64.412.006.99.916,1.166,1.506a8.072,8.072,0,0,1,.06,2.236q0,41.742,0,83.485c0,3.3,0,3.3-3.219,3.307-2.25,0-4.5.02-6.749,0-4.29-.045-4.085.64-4.087-3.968,0-11.664-.064-23.329.048-34.993.022-2.382-.609-3.3-3.065-3.076a42.639,42.639,0,0,1-6.743.006c-2.034-.139-2.528.678-2.516,2.6.074,11.914.039,23.829.038,35.744,0,3.692,0,3.693-3.589,3.7q-3.5,0-7,0c-3.306,0-3.309-.006-3.308-3.188,0-17.5-.088-34.994.077-52.49a15.618,15.618,0,0,0-3.006-9.748c-3.3-4.6-6.4-9.338-9.617-14a8.993,8.993,0,0,0-2.706-2.662,25.254,25.254,0,0,1,.8,3.5c.531,5.958,1.032,11.92,1.372,17.891a2.506,2.506,0,0,1-1.668,1.808c-3.239.185-6.494.075-9.743.1-1.443.009-1.85-.8-1.842-2.075.017-2.916.05-5.833-.024-8.748a32.926,32.926,0,0,0-.461-5.215c-.593-3.157-2.159-4.536-4.953-4.67-3.28-.156-5.078.947-5.987,4.085a21.812,21.812,0,0,0-.947,5.888q-.092,23.994.048,47.988a29.994,29.994,0,0,0,1.066,6.624,4.747,4.747,0,0,0,4.9,3.842c2.6.091,4.707-.948,5.5-3.447a31.876,31.876,0,0,0,1.617-8.021c.245-5.48.073-10.978.073-16.916-1.609,0-3.319-.05-5.023.016-1.379.054-1.985-.5-1.958-1.887.04-2.082.045-4.167-.006-6.248-.036-1.476.57-2.095,2.073-2.082q7.747.069,15.5,0c1.389-.009,1.977.568,1.932,1.937-.047,1.415-.031,2.832-.031,4.248,0,13.581-.032,27.162.036,40.743.01,1.948-.351,2.886-2.576,2.772-4.66-.24-3.725.584-4.828-3.786-.281-1.115-.584-2.225-.939-3.573-.426.356-.763.5-.858.737-3.79,9.555-20.176,10.69-26.544-.148a32.942,32.942,0,0,1-4.193-16.77c-.127-15-.156-30,.038-44.99a36.794,36.794,0,0,1,1.806-10.53c3-9.413,10.086-13.282,20.433-12.653,3.324.2,6.588,1.386,9.9,2.125-3.175-4.129-6.532-8.414-9.8-12.765-5.7-7.587-11.345-15.225-17.04-22.82-2.088-2.784-4.242-5.519-6.4-8.25a2.825,2.825,0,0,0-1.327-1.1c-4.227-.886-5.481-4.991-8.194-7.5a1.946,1.946,0,0,1-.52-1.583c.6-2.334-.686-3.8-1.954-5.538-4.95-6.79-9.836-13.636-14.486-20.634q-8.97-13.5-17.5-27.286c-2.363-3.81-5.686-6.524-8.95-9.405a81.966,81.966,0,0,1-6.421-6.506c-1.109-1.226-.759-1.8,2.1-3.547a8.7,8.7,0,0,0-2.213-.75c-.814-.016-1.7.534-2.432.351a4.183,4.183,0,0,1-2.293-1.528c-.246-.36.222-1.684.726-2,2.733-1.726,1.983-3.546.586-5.717-1.482-2.3-2.711-4.774-3.974-7.211a15.41,15.41,0,0,1-.807-2.484l.635-.333,5.916,8.273.456-.3c-1.486-3.408-3.41-6.7-4.356-10.251-1.434-5.383-5.17-9.1-8.376-13.227q-11.722-15.1-23.57-30.094c-11.022-13.919-22.221-27.7-33.118-41.715-3.977-5.115-7.411-10.668-10.872-16.16-1.2-1.9-1.727-4.217-2.562-6.344l.7-.374,6.6,8.524c.114-5.586-6.089-8.084-6.539-13.254l.9-.654,8.182,8.156-.887-2.716.62-.538,1.725,3.133.7-.639-17.55-28.47.313-.339,1.948,1.1.344-.241a33.987,33.987,0,0,1-2.4-3.154,23.026,23.026,0,0,1-1.343-3.171l1.195-.816,1.807,3.212.569-.969c.582.09,1.411-.035,1.706.3,1.525,1.759,2.893,3.653,4.361,5.463.64.79,1.386,1.493,2.084,2.235l.566-.47c-2.638-3.753-5.32-7.478-7.888-11.279a18.562,18.562,0,0,1-1.592-3.494c-.3-.75-.394-1.591-.739-2.315-3.153-6.61-6.49-13.137-9.443-19.834C1.457,10.381,1.218,7.49.583,4.774l.639-.267L7.787,17.265l.811-.376L5.117,8.329l2.44,1.623L3.389.5h2.5c.738,4.717,4.859,7.131,7.471,10.637a35.913,35.913,0,0,0-1.752-4.993C10.855,4.268,10.127,2.382,9.388.5h1.5l6.873,12.988.6-.278L13.888.5h2.5l3.344,7.587.858-.354L17.888.5h2.5l6.4,14.467,1.581-2.4,5.805,9.146a59.883,59.883,0,0,0-3.155-9.485Q28.7,6.365,26.387.5h56.5c1.522,7.791,3.087,15.569,6.234,22.914a23.665,23.665,0,0,0-.614-3.937Q86.445,9.988,84.383.5ZM212.4,141.555l-.487,1.975,3.793.2-1.6,1.773,2.748.318c.4-.536.972-1.309,1.511-2.033l-3.468-1.844.469-.461c.8.088,1.855-.116,2.365.317,1.748,1.484,3.255-.568,3.345-.954.652-2.815,2.716-2.7,4.767-2.632.569-3.721,1.09-3.809,5-4.323,3.248-.426,6.713.4,9.79-1.531.6-.378,1.788.177,2.157.227l-.651,3.656-1.946,1.515c4.537,2.239,4.675,6.4,4.764,10.589,6.145-3.639,4.918-9.252,5.344-13.967l-5.8-3.034,2.744-1.327c-5.37-4.256-5.529-4.32-9.526-.7-.1-.873-.444-1.691-.187-1.99,4.646-5.4,1.451-10.428-.555-15.816-1.291,1.261-2.606,1.877-1.741,4.048a24.841,24.841,0,0,1,1.26,7c.069.8-.747,1.661-1.125,2.509-.192.431-.308.9-.458,1.344l-.525.153-1.419-5.218-6.169-1.222-1.969-2.155a2.539,2.539,0,0,0,.958-.189c1.876-1.315,3.641-2.479,4.782.836.1.3,1.439.17,2.2.24a6.715,6.715,0,0,0-.283-1.986,25.887,25.887,0,0,0-1.678-2.739l-2.575.622c.558-.951,1.465-1.907,1.27-2.269a30.761,30.761,0,0,0-2.915-3.924c1.771-1.256,2.594,1.334,4.53,1.007l-5.5-4.434a9.764,9.764,0,0,1-1.619.84c-.15.05-.491-.472-.745-.731,1.6-.918-.278-1.294-.454-1.689a14.51,14.51,0,0,0-2.343-3.008c-.648-.78-1.243-2.134-1.96-2.2-1.033-.1-2.155.738-3.24,1.175l.305,1.036,2.165-.235c-.16,2.176,1.829,2.789,2.935,3.959,1.275,1.348,2.6,2.647,3.688,3.744l-2.161,2.363.526.461,1.66-1.271c0,1.455-.417,2.924.1,3.911.817,1.574,1.265,2.943.436,4.567-1.543,1.094-2.1,2.351-1.056,4.187a3.347,3.347,0,0,1,0,2.281c-.452,1.623-1.636,3.237-1.526,4.783.263,3.677-1.158,6.812-2.547,10.133-.368-1.291-.736-2.583-1.119-3.93,2.71-.369,1.265-3.47,2.756-4.842-2.454-1.848-4.712-3.633-8.111-3.239a48.809,48.809,0,0,0-1.386,6.759,45.981,45.981,0,0,0,.466,6.732Zm22.974,223.386-.047-.054c-.19.534-.38,1.068-.661,1.856,2.273-.262,4.1-2.234,6.463-.514l-2.009,1.488.1.228,7.293-3.1a6.4,6.4,0,0,0,.81-4.738c-.716-2.212.547-5.11-2.119-6.67a50.409,50.409,0,0,0-3.848-14.194,7.9,7.9,0,0,0-1.243-1.627l-.747.336c-.788-6.1-1.519-12.218-2.389-18.311-.369-2.583-1.015-5.128-1.566-7.683a71.764,71.764,0,0,0-1.674-7.17,25.316,25.316,0,0,0-2.362-4.282c.119-.276.777-1.039.623-1.563-1.778-6.055-3.44-12.162-5.612-18.078-2.444-6.658-2.819-13.015-.13-19.77,1.856-4.661,3.585-9.729,3.675-14.646.1-5.6-1.682-11.233-2.766-17.553.974-.647,2.622-1.782,4.309-2.856,3.794-2.416,7.053-5.169,6.593-10.118-.689-.424-1.3-.886-1.366-1.416-.13-1.03.3-2.166.044-3.138-.631-2.381-2.156-4.7-2.146-7.034a11.363,11.363,0,0,0-2.787-7.18c-1.189-1.575-.79-2.263.776-2.587-.715-1.74-2.147-3.488-1.823-4.8.658-2.67-.679-3.715-2.4-4.949-1.512-1.084-2.916-2.317-4.368-3.485l.465-.6,2.574,1.115c.264-1.414.264-1.414-3.284-4.385,2.743-.36,4.614.994,6.129,2.718,3.18,3.619,4.5,8.163,5.869,12.658.178.587.428,1.153.646,1.728l.485-.194q-.45-2.637-.9-5.274c1.29.853,2.483,2.122,3.895,2.447,1.581.365,3.359-.125,5.179-.253l-.341-2.445c-1.6.546-2.991,1.377-4.4,1.4-1.435.026-2.884-.738-4.327-1.157-1.176-1.242-.6-2.395.492-3.091,2.075-1.327,1.434-2.89.66-4.5-1.037-2.156-4.56-2.386-4.365-5.568.01-.16-.673-.4-1.058-.54q-5.562-2-11.143-3.98c-.392-2.768-.794-5.6-1.195-8.442l-.691.078q.286,3.805.571,7.612a3.727,3.727,0,0,1-1.862-2.527c-.045-3.753-1.873-6.862-3.208-10.173a4.277,4.277,0,0,1-.114-3.291c.507-.832,1.95-1.093,3.019-1.621.542,2.889.976,5.2,1.409,7.507l.5-.173c.216-1.516.433-3.033.722-5.06a20.082,20.082,0,0,1,1.934,2.581,22.67,22.67,0,0,1,.8,2.568c.963,2.765,2.2,3.392,4.454,2.317.1-.046.285.093.6.208.045.578.1,1.223.146,1.859l6.977.784c-1.691-1.524-3.723-2.5-4.294-4.033-1.592-4.256-6.542-5.521-8.046-9.693-.045-.125-.244-.214-.389-.278q-2.568-1.143-5.143-2.271l.194-.681-1.948,1.551,2.251,1.9-.21.581c-3.2-.609-6.075-.144-8.315,2.518l3.631-1.1.4.432-6.81,11.042c-1.526-2.738-.5-7.107,1.835-9.465-1.86-2.879.663-5.029.919-7.063l-3.054-2.37c-2.5,1.352-5.253.049-7.94-.789-1.764-.55-2.407-3.387-1.236-4.2l2.154.587v-3.425c-1.495-.155-3.308-.927-4.351-.338-2.731,1.542-2.928-.838-3.947-1.642l2.559-3.348,1.1,1.407V130.4c-6.229,4.887-10.341,9.792-10.323,12.22l1.666.815-1.261,1.914,1.461,1.823c1.31-1.582,2.606-3.1,3.84-4.664.42-.533.586-1.283,1.046-1.765a2.527,2.527,0,0,1,1.6-.842,6.783,6.783,0,0,1,2,.6c-2.092,3.205-4.142,6.343-6.241,9.558,5.56,1.771,4.562,9.642-.233,12.6-1.219-.832-2.494-1.779-3.841-2.606q-5.658-3.476-11.375-6.856a4.16,4.16,0,0,0-1.144-.207c-3.947-.9-7.967-1.579-11.812-2.805a34.852,34.852,0,0,1-7.292-3.708c-3.357-2.046-6.387-1.22-9.364.687-.707.452-1.7,1.122-1.754,1.757-.062.777.73,1.624,1.152,2.44l.4-.271c-.136-.749-.271-1.5-.387-2.137l4.726.838-1.617,1.952,2.661.326c.747,3.723-1.744,9.831-6.615,15.538,2.425-3.6-2.615-3.1-2.294-5.482-2.87.26-4.11-1.408-3.541-4.506-2.469-1.324-2.438-4.247-3.987-6.222-2.184-2.785-1.616-5.146.735-8.062l.468,1.513a15.785,15.785,0,0,0,1.2-2.391,19.854,19.854,0,0,0,.38-2.611,3.179,3.179,0,0,1,4.079-2.513,1.882,1.882,0,0,0,1.114-.209c1.656-.761,3.294-1.562,4.885-2.324-.383-1.341-.7-2.436-1.187-4.152-.093,1.517-.143,2.327-.192,3.137l-.636.019c-.221-1.021-.443-2.042-.618-2.847l-2.618-1.173,2.946-1.688-.44-.73-3.729,2.149,1.979-3.787-1.536-1.106-2.173,3.134-.433-.261,3.679-5.928-2.061,1.279-.3-.27,1.54-2.873-2.3,1.873c-.215-.5-.362-.85-.278-.653l-4.73,2.258-.363-.614a12.947,12.947,0,0,0,1.841-1.541c1.713-2.06,5.381-2.138,5.7-5.7.037-.4,1.468-.921,2.265-.944a7.979,7.979,0,0,1,2.517.819c-2.747,2.539-2.747,2.539-1.341,4.712-1.791-3.275,1.241-3.073,2.6-3.767,2.724-1.39,2.049,1.938,3.45,2.81l1.219-1.346c1.656,2.126,3.77,1.912,5.606,1.245.866,1.458,1.606,2.842,2.479,4.136.907,1.344,1.149,2.486-.356,3.584-2.8,2.045-5.57,4.14-8.487,6.315.161.219.532.948.692.905,3.387-.926,6.75-1.939,9.673-2.8-.865.9-2.133,2.133-3.283,3.472-.186.217.141,1.282.248,1.284,2.9.076,5.829,1.784,8.718-.161.306-.206,1.149.1,1.572.4,1.816,1.311,3.569,2.711,5.488,4.189.392-.725.646-.992.678-1.284.438-3.991,3.432-6.605,5.45-9.677,1.347-2.051,3.724-3.426,5.641-5.1l-.386-1c-2.432-.285-5.027-.126-7.267-.941-6.235-2.269-6.177-2.428-6.447-3.68l4.48-2.069c-1.305-1.354-1.305-1.354-2.931-.534-3.455,1.743-5.28,1.733-6.672-.036,4.7-.035,4.756-.051,6.041-1.685-3.629.53-7.263-1.894-7.455-4.672a10.206,10.206,0,0,0,3.138.247,22.645,22.645,0,0,0,4.284-1.73c.3-.14.414-.653.649-.968,1.367-1.825-.206-3.139-.853-4.561a31.821,31.821,0,0,0-2.218-3.863c-.738-1.157-1.655-2.2-2.351-3.382-.918-1.558-1.714-3.19-2.521-4.811a4.709,4.709,0,0,1-.245-1.182c.443.192,1.068.26,1.3.6,1.3,1.9,2.413,3.918,3.762,5.773,1.152,1.584,2.534,3,3.815,4.49l.848-.558q-3.2-6.054-6.4-12.108l.342-.489,7.761,4.78V89.068l.742-.149a31.621,31.621,0,0,1,1.3,4.751c.233,1.942-.182,3.975.146,5.89a62.618,62.618,0,0,0,2.062,7.838c.55,1.781.371,2.625-1.808,2.542a37.069,37.069,0,0,0-6.6.4,13.754,13.754,0,0,0-3.208,1.317l.268.873c1.247-.166,2.49-.387,3.742-.488,2.754-.222,5.817-1.213,8.187-.344,2.587.947,4.492,3.691,6.774,5.554,1.787,1.46,3.279,3.246,6.293,2.308,1.237-.385,4.095-.2,4.439,2.659.057.472.667.932,1.105,1.3,1.95,1.62,5.112,1.848,5.734,5.014.023.12.438.168.673.242,2.29.719,4.581,1.437,7.374,2.312.145-1.736.289-3.459.432-5.182l-.63-.019,2.887-2.42a75.722,75.722,0,0,0-3.1-26.246,46.012,46.012,0,0,1-4.5,1.734c-1,.276-2.716.592-3.065.119-1.582-2.145-4.316-.955-6.268-2.533-1.044-.844-2.682-1.217-3.572-2.67-1.281-2.09-2.729-4.076-4.042-6.148-.212-.335-.088-.882-.126-1.435L188.113,87c-2.569-2.212-4.849-4.3-7.262-6.218-2.472-1.967-5.1-3.748-5.649-7.389a49.882,49.882,0,0,0-7.306,1.076c-2.2.648-4.684,1.492-6.221,3.057-4.335,4.412-5.438,10.5-6.994,16.19-.9,3.281-.6,6.892-.8,10.357-.068,1.177-.011,2.361-.011,3.542l-.542.007-.695-2.739c-5.277,2.229-10.4,4.376-15.508,6.556-5.358,2.285-9.088,6.544-12.972,11.419-.31-1.126-.721-1.9-.542-2.077,1.909-1.881.277-3.546-.21-5.282-.512-1.823-1.458-1.65-2.672-.723,1.622,3.546,1.607,3.546,1.668,7.613.007.459.365.9.426,1.373a3.732,3.732,0,0,1,.02,2c-2.111,3.911-3.879,7.874-3.245,12.616q-2.5-5.758-5.011-11.516l-.632.262a5.5,5.5,0,0,0,.2,1.182c1.97,4.839,4.016,9.648,5.923,14.511a54.3,54.3,0,0,1,2.085,6.635c.567,2.268.6,4.705,1.385,6.877,2.157,5.938,4.673,11.745,6.869,17.669.783,2.113,1.6,3.266,3.758,1.651,1.835,2.543,1.616,3.358-.973,4.259-.738.256-1.446.6-2.169.9l.275.637,6.443-1.684-1.569,3.17c-1.551-2.637-3.307-.737-4.435-.072-1.05.618-2.326,2.869-1.956,3.516,1.28,2.237-.741,2.542-1.575,3.59l.647-1.993-.806-.3c-.448,1.224-1.26,2.443-1.277,3.673-.053,3.921.163,7.847.324,11.768.144,3.486,2.921,4.9,5.424,6.209,3.854,2.021,7.858,4.294,12.2.872.3-.238.915-.082,1.073-.091,1.871,4.962,3.772,9.674,5.427,14.472,2.489,7.218,4.99,14.442,7.132,21.767a92.011,92.011,0,0,0,5.449,14.531c1.15,2.363,2.071,5.166,3.946,6.785,5.228,4.515,10.784,8.681,16.441,12.657a17.132,17.132,0,0,1,6.756,9.3c1.551,4.939,2.962,9.949,4.928,14.724,2.841,6.9,6.088,13.636,9.237,20.407,2.359,5.075,4.8,10.112,7.272,15.136,1.907,3.881,3.91,7.715,5.71,11.254-.733,1-1.709,1.806-1.565,2.232.635,1.887,1.61,3.658,2.426,5.486.451,1.011,1.355,2.174,1.149,3.057-.661,2.84,1.591,8.118,4.5,8.392,3.511.33,7.119-.376,10.465-.618l-1.575-3.715-4.156,3.865c.127-.839,0-1.663.356-2.078C231.169,366.047,232.946,364.8,235.369,364.941ZM185.375,55.64c3.19-5.277,5.179-11.045,11.009-14.174l-6.121-6.14-4,1.271-.486-.446c.36-.5.631-1.311,1.095-1.442,2.092-.59,4.239-.987,6.269-1.433-1.627-.427-3.305-.924-5.01-1.3-2.21-.492-3.252-2.332-4.554-3.851a6.964,6.964,0,0,1-1.226-2.235,3.981,3.981,0,0,1,.146-1.571l-2.01.418v-4.07l2.118.638.367-2.358-1.753,1.018-.491-.451,2-2.712c-.849-1.973-1.763-4.1-2.676-6.222l-.791.153c.12,1.11.263,2.218.355,3.33a43.585,43.585,0,0,1,.373,5.527c-.234,5.219-5.074,9.917-1.764,15.553-1.122,3.323,1.29,4.752,3.479,6.087a5.785,5.785,0,0,1,3.091,4.947C184.957,49.293,185.172,52.41,185.375,55.64ZM125.328,184.979c-2.325.3-3.578-3.235-5.494-.848-1.128,1.405-1.248,3.621-1.81,5.475-.047.153.032.342-.012.5-.358,1.221-.446,2.644-1.152,3.614-2.225,3.058-2.969,6.6-3.283,10.152a48.39,48.39,0,0,0,.488,8.678c.218,2.326,1.81,3.161,4.017,2.266-.909-1.009-2.257-1.875-2.657-3.061-1.5-4.452-1.033-9.044,2.005-12.509C121.076,195.083,122.024,189.743,125.328,184.979Zm110.864-20.731c.5-1.273,1.2-2.2,1.107-3.037-.13-1.159-1.187-2.23-1.26-3.376a25.606,25.606,0,0,1,.317-6.635c.272-1.353,1.084-2.464-.291-3.662-.376-.327-.344-1.081-.619-1.572-.8-1.432-1.664-2.829-2.5-4.24.336,3.167,1.316,6.01,1.326,8.856.012,3.209-2.836,4.745-5.256,6.108Zm-4.131-62.736.947-.757c-.644-.132-.922-.2-1.2-.244s-.575-.06-.831-.085c-.229-2.748-.229-2.748-2.111-2.579l3.623,10.287h3.181c-2.635,1.1-2.805,1.641-1.116,3.664,3.739-1.842,1.074-4.252.562-6.547h-1.1C233.273,103.832,232.688,102.711,232.061,101.512Zm-24.2-26.825c-3.118-2.868-4.686-3.121-7.451-1.669.457.81.929,1.63,1.384,2.46a5.108,5.108,0,0,0,.618,1.206C204.139,78.4,206.233,77.665,207.859,74.687ZM96.286,62.007l.614-.092c-.135-.536-.256-1.077-.408-1.609-1.612-5.655-3.178-11.324-4.875-16.954a44.777,44.777,0,0,0-2.091-4.857l-.765.292Zm21.96,141.709a29.88,29.88,0,0,0,3.238,2.027c.412.2,1.145-.253,1.731-.407-.157-.466-.333-.926-.468-1.4-.411-1.435-.9-2.857-1.173-4.32a16.89,16.89,0,0,1-.034-3.02l-.376.048C120.28,198.787,119.4,200.927,118.246,203.716Zm123.4-35.507c1.269,2.021,2.841.569,3.889.061,2.868-1.389,2.511-4.026,1.864-6.565a9.185,9.185,0,0,0-.922-1.823C247.4,165.54,246.983,166.325,241.65,168.209ZM214.114,80.5l.494-.739c-1.118-.76-2.221-1.544-3.357-2.276-2.21-1.423-2.625-1.569-3.548-.9Zm-22.93-16.555c.588.826.794,1.452,1.184,1.6,1.292.5,2.649.818,4.437,1.34a7.833,7.833,0,0,0,.182-2.051c-.048-.429-.679-.791-1.046-1.184C194.777,65.464,193.265,64.224,191.184,63.947Zm23.457-5.872c-.24-.546-.334-1.381-.744-1.588-2.11-1.064-3.737-3.852-6.392-2.469Zm-40.535,88.981-.55.887,5.309,4.348.683-.865Zm25.425-92.818c-2.415-.659-4.063.883-4.23,4.51Zm-.473,12.791h5.774C202.69,65.22,201.083,64.956,199.058,67.029ZM118.073,204.713l-.913.146c0,.643.048,1.291-.013,1.928s-.232,1.242-.355,1.862c.611-.522,1.535-.943,1.744-1.594S118.257,205.5,118.073,204.713Zm120.289-4.589-.711.088q.385,3.752.773,7.5l.585-.055Z"/>
        <path class="cls-1" d="M26.387.5Q28.7,6.364,31.021,12.227a59.883,59.883,0,0,1,3.155,9.485l-5.805-9.146-1.581,2.4L20.387.5Z"/>
        <path class="cls-1" d="M84.383.5q2.06,9.489,4.12,18.977a23.665,23.665,0,0,1,.614,3.937C85.97,16.069,84.405,8.291,82.883.5Z"/>
        <path class="cls-1" d="M9.388.5c.739,1.882,1.467,3.768,2.219,5.644a35.913,35.913,0,0,1,1.752,4.993C10.747,7.631,6.626,5.217,5.888.5Z"/>
        <path class="cls-1" d="M13.888.5,18.36,13.21l-.6.278L10.888.5Z"/>
        <path class="cls-1" d="M17.888.5l2.7,7.233-.858.354L16.388.5Z"/>
        <path class="cls-1" d="M348.043,419.313v-3.124q0-41.979,0-83.96c0-3.415.012-3.42,3.4-3.421q8.5,0,16.993,0c10.886.02,16.851,5.114,18.553,15.932a43.565,43.565,0,0,1,.61,6.708c.013,15.241.05,30.483-.175,45.722a40.572,40.572,0,0,1-1.754,10.293c-2,7.058-6.825,11.347-14.171,11.753C363.872,419.641,356.2,419.313,348.043,419.313ZM361.978,374.2q0,9.123,0,18.245c0,4.666-.044,9.332.062,13.995.016.712.6,1.87,1.157,2.037,4.931,1.48,9.061-1.118,10.007-6.178a16.422,16.422,0,0,0,.231-2.983q.017-24.615-.014-49.23a18.191,18.191,0,0,0-.4-3.714c-1.118-5.261-2.631-6.454-7.914-6.867-2.332-.183-3.219.428-3.187,2.955C362.054,353.04,361.979,363.621,361.978,374.2Z"/>
        <path class="cls-1" d="M299.544,371.341c4.718,2.209,6.3,5.8,6.649,9.816.606,7.041.936,14.113,1.166,21.179.18,5.566.036,11.144.036,17.1-4.133,0-8.35.071-12.556-.1-.456-.019-1.194-1.429-1.225-2.217-.216-5.407-.317-10.82-.377-16.232-.055-4.915,0-9.83-.02-14.746a22.64,22.64,0,0,0-.2-3.486c-.652-4.069-2.161-5.538-6.282-5.655-5.5-.156-4.925-.937-4.938,4.5-.027,11.579,0,23.16-.012,34.74,0,3.221-.014,3.223-3.322,3.225-2.749,0-5.5-.108-8.246.037-1.9.1-2.406-.579-2.388-2.421.085-8.5.035-17,.035-25.492,0-19.911.039-39.822-.052-59.733-.011-2.4.64-3.147,3.065-3.093,6.828.153,13.662.025,20.494.062,9.1.049,13.756,4.027,15.048,12.988a67.016,67.016,0,0,1,.116,19.645C305.9,365.655,304.22,369.262,299.544,371.341Zm-17.557-18.669c0,3.574.083,7.149-.034,10.719-.062,1.9.677,2.565,2.478,2.376a22.345,22.345,0,0,1,2.242-.011c4.064-.02,5.554-1.013,6-5.054a98.277,98.277,0,0,0,.47-12.922c-.163-7.042-1.931-8.491-9.021-8.3-1.65.045-2.177.649-2.149,2.22C282.035,345.359,281.99,349.016,281.987,352.672Z"/>
        <path class="cls-1" d="M3.726,393.363c0-1.917.066-3.836-.02-5.749-.069-1.54.6-2.058,2.065-2.03,3,.057,6,.083,9-.011,1.805-.056,2.254.765,2.265,2.412.031,4.328.167,8.656.343,12.98a14.474,14.474,0,0,0,.61,3.426c.885,3.038,2.612,4.2,5.742,3.994,2.6-.17,4.08-1.5,4.568-4.436,1.4-8.4,0-16.1-6.018-22.528-3.468-3.71-7.016-7.346-10.458-11.08-8.437-9.152-9.845-19.9-6.725-31.472,1.926-7.142,7.236-10.747,15.913-11.183a31.025,31.025,0,0,1,6.959.439c5.105.91,8.788,3.657,10.695,8.686,2.489,6.565,2.424,13.386,2.273,20.218-.011.482-.988,1.326-1.542,1.348-3.244.128-6.5.155-9.742-.021a2.492,2.492,0,0,1-1.619-1.779c-.2-2.485,0-5-.113-7.492a33.477,33.477,0,0,0-.678-5.68,4.184,4.184,0,0,0-4.356-3.676c-2.577-.05-4.553.945-5.261,3.349-1.337,4.535-1.562,9.234,1.527,13.138,3.712,4.692,7.847,9.052,11.85,13.51,5.254,5.852,9.607,12.2,10.755,20.194a42.716,42.716,0,0,1-1.722,20.456c-2.37,6.765-7.66,9.611-14.417,10.021a35.766,35.766,0,0,1-8.437-.506c-6.51-1.177-10.1-5.692-11.6-11.721-1.192-4.81-1.608-9.812-2.369-14.729Z"/>
        <path class="cls-1" d="M399.892,374.256q0-21.106,0-42.214c0-3.223.008-3.23,3.331-3.232,8.161,0,16.322.069,24.481-.05,2.242-.032,2.945.726,2.8,2.884a63.437,63.437,0,0,0-.011,6.991c.073,1.721-.568,2.38-2.306,2.346-4-.079-8,.034-11.99-.046-1.693-.034-2.373.51-2.356,2.281q.1,10.74,0,21.482c-.015,1.709.524,2.364,2.293,2.314,3.744-.108,7.5.031,11.24-.06,1.674-.041,2.454.434,2.38,2.233-.1,2.494-.094,5,0,7.492.061,1.628-.554,2.2-2.174,2.17-3.746-.079-7.5.055-11.24-.049-1.8-.05-2.522.459-2.5,2.377q.125,11.988,0,23.979c-.015,1.791.7,2.288,2.375,2.254,4.078-.083,8.161.046,12.239-.056,1.885-.047,2.769.456,2.643,2.519-.151,2.488-.112,5-.017,7.49.064,1.66-.606,2.134-2.2,2.124-8.826-.057-17.654-.082-26.479.016-1.97.022-2.56-.555-2.547-2.531.081-11.823.038-23.646.037-35.47Q399.89,377.879,399.892,374.256Z"/>
        <path class="cls-1" d="M91.327,419.45v-3.064c0-28.144.038-56.288-.058-84.431-.009-2.552.669-3.249,3.191-3.2,8.241.152,16.487.108,24.73.02,2.028-.022,2.887.571,2.755,2.683a50.7,50.7,0,0,0,.005,6.74c.161,2.266-.8,2.873-2.918,2.8-3.826-.132-7.661.029-11.49-.06-1.762-.041-2.313.656-2.3,2.35q.09,10.742,0,21.482c-.018,1.8.691,2.279,2.37,2.238,3.745-.091,7.495.022,11.241-.047,1.536-.028,2.309.379,2.26,2.085-.089,3.141-.025,6.287-.025,9.782-4.448,0-8.594.121-12.729-.047-2.35-.1-3.2.563-3.146,3.038.15,7.574.119,15.154.016,22.73-.029,2.127.533,2.975,2.8,2.88,3.99-.167,7.994.014,11.989-.071,1.766-.037,2.608.463,2.519,2.39-.124,2.659.056,5.333-.109,7.988-.038.6-.958,1.638-1.48,1.643C111.216,419.476,101.485,419.45,91.327,419.45Z"/>
        <path class="cls-1" d="M52.407,374.069c0-14.16.045-28.32-.047-42.479-.014-2.2.627-2.957,2.828-2.822a67.639,67.639,0,0,0,8.241,0c2.283-.14,3.024.626,3.006,2.952-.1,12.409-.046,24.82-.046,37.231q0,17.616,0,35.233c0,3.336.007,3.338,3.446,3.34,4,0,8,.051,11.995-.021,1.617-.029,2.237.557,2.181,2.185-.092,2.662-.056,5.33-.021,8,.016,1.25-.455,1.788-1.76,1.784-9.33-.03-18.659-.052-27.988.017-1.959.015-1.843-1.136-1.841-2.437q.017-11.994.005-23.988Q52.406,383.564,52.407,374.069Z"/>
        <path class="cls-1" d="M148.454,374.17q0,20.726,0,41.451c0,4.431.173,3.8-3.952,3.833-2.747.024-5.5-.039-8.241.022-1.364.03-2.041-.449-1.939-1.865.036-.5,0-1,0-1.5q0-41.95,0-83.9c0-3.4.01-3.4,3.445-3.4,2.663,0,5.332.105,7.989-.032,2.05-.105,2.754.606,2.737,2.693-.084,10.07-.036,20.142-.034,30.214Z"/>
        <path class="cls-1" d="M334.249,374.256c0,14.065-.054,28.13.051,42.194.019,2.408-.672,3.222-3.081,3.054a64.914,64.914,0,0,0-8.484,0c-2.16.132-2.692-.723-2.631-2.727.126-4.074.038-8.154.038-12.232q0-36.2,0-72.4c0-3.314.012-3.318,3.257-3.327q3.746-.011,7.491,0c3.329,0,3.348.007,3.35,3.252q.014,18.351.006,36.7Z"/>
        <path class="cls-1" d="M321.5,51.418c0,5.99-.045,11.98.028,17.969.02,1.713-.305,2.589-2.305,2.577-1.868-.012-2.414-.589-2.4-2.448.081-10.23.039-20.46.039-31.12a39.34,39.34,0,0,1,5.524.094c.547.08,1.188,1.23,1.345,1.982,1.292,6.188,2.479,12.4,3.7,18.6.062.312.181.613.827,1.01.526-2.577,1.093-5.147,1.569-7.733.709-3.845,1.337-7.706,2.033-11.553.468-2.587,1.043-2.747,5.34-2.465,2.267.149,1.633,1.722,1.638,2.894.045,9.326.006,18.652.049,27.977.008,1.729-.21,2.757-2.4,2.781-2.281.024-2.318-1.124-2.3-2.789.051-5.573.019-11.147-.348-16.794-.675,3.374-1.361,6.745-2.02,10.122-.478,2.451-.969,4.9-1.357,7.366a1.982,1.982,0,0,1-2.354,1.924c-1.385-.032-2.337-.214-2.65-1.889-1.158-6.2-2.45-12.369-3.693-18.551Z"/>
        <path class="cls-1" d="M384.641,92.261c2.894,5.646,1.751,11.592,2.119,17.665-1.14.087-2.016.119-2.884.227-1.923.239-2.7-.51-2.625-2.509.121-3.158.045-6.325.01-9.488-.007-.737.082-1.751-.336-2.146a5.617,5.617,0,0,0-2.691-1.232c-.211-.042-.968,1.189-.981,1.843-.09,4.393-.047,8.789-.047,13.355h-5.129c-.065-.8-.175-1.524-.176-2.248-.01-9.49.049-18.981-.047-28.47-.021-2.072.6-2.84,2.68-2.676,2.319.184,4.661.065,6.984.21a4.654,4.654,0,0,1,4.429,3.431C387.142,83.805,386.517,89.379,384.641,92.261Zm-7.432-6.483a9.825,9.825,0,0,0,.047,2.483c.2.734.952,1.988,1.171,1.929.919-.247,2.369-.8,2.463-1.422a24.091,24.091,0,0,0,.05-6.41c-.065-.547-1.44-1.223-2.254-1.281-.447-.032-1.227,1.033-1.409,1.722A12.405,12.405,0,0,0,377.209,85.778Z"/>
        <path class="cls-1" d="M367.748,93.387c0,3.326.188,6.666-.045,9.976-.329,4.687-2.847,7.106-7.014,7.187-4.342.084-7.141-1.993-7.379-6.677a212.389,212.389,0,0,1,.074-21.648c.2-3.85,3.17-5.909,7.063-5.942,4.018-.033,6.337,1.876,7.136,5.891a7.939,7.939,0,0,1,.193,1.482c.017,3.244.008,6.487.008,9.731Zm-5.374,0h.054c0-3.243.148-6.5-.094-9.72-.069-.923-1.269-1.762-1.951-2.639-.661.906-1.872,1.8-1.895,2.72q-.246,9.729.009,19.464c.023.893,1.26,1.754,1.935,2.63.647-.827,1.795-1.621,1.853-2.487C362.505,100.046,362.374,96.713,362.374,93.388Z"/>
        <path class="cls-1" d="M420.159,109.975c0-9.352,0-18.42,0-27.488,0-5.884,0-5.884,5.886-5.874,7.258.011,8.79,1.472,8.631,8.823-.05,2.306-.771,4.6-1.335,7.726,2.389,4.285,1.462,10.014,1.514,15.594.021,2.212-1.941,1.2-3.077,1.368-1.3.193-2.31-.137-2.3-1.794.026-3.247,0-6.494-.019-9.741,0-.747.188-1.734-.2-2.186a11.3,11.3,0,0,0-2.595-1.756c-.406.665-1.138,1.318-1.162,2-.121,3.409-.053,6.825-.059,10.239-.006,3.34-.01,3.346-3.253,3.264C421.626,110.132,421.063,110.053,420.159,109.975Zm9.366-24.227c-.073-1.132.169-2.305-.285-3.056a4.934,4.934,0,0,0-2.511-1.633c-.177-.066-1.149,1.144-1.216,1.819a28.709,28.709,0,0,0-.007,5.437c.065.694.933,1.943,1.148,1.885a4.183,4.183,0,0,0,2.474-1.443C429.614,87.909,429.431,86.678,429.525,85.748Z"/>
        <path class="cls-1" d="M376.964,71.69V38.7c3.634,0,7.171-.163,10.676.1a4.544,4.544,0,0,1,2.79,2.187c1.868,3.1,1.19,10.177-.695,12.6a48.8,48.8,0,0,1,1.607,6.636c.312,3.137.123,6.32.325,9.472.134,2.1-.967,2.246-2.6,2.236-1.682-.01-2.949-.114-2.869-2.334.111-3.076.05-6.159.009-9.239-.012-.9.092-2.05-.4-2.644a4.594,4.594,0,0,0-2.644-1.215c-.237-.043-.993,1.156-1.013,1.8-.106,3.41-.052,6.824-.057,10.237,0,3.485-.007,3.49-3.431,3.352C378.187,71.877,377.706,71.782,376.964,71.69Zm5.147-24.372a11.391,11.391,0,0,0,.051,2.718c.181.712.842,1.866,1.234,1.844.819-.047,2.215-.653,2.292-1.186a26.681,26.681,0,0,0,.163-6.6c-.06-.562-1.535-1.182-2.435-1.335-.324-.055-1.071,1.129-1.259,1.844A10.745,10.745,0,0,0,382.111,47.318Z"/>
        <path class="cls-1" d="M404.476,71.543c.738-5.385,1.445-10.638,2.181-15.886.7-5.017,1.5-10.022,2.123-15.049.222-1.8.976-2.311,2.732-2.291,4.358.051,4.442-.046,5.146,4.344,1.434,8.938,2.774,17.891,4.131,26.841a13.065,13.065,0,0,1,.012,1.938c-3.858,1.18-4.551.815-5.012-2.961-.23-1.888-1.1-2.464-2.947-2.428-1.752.034-2.746.359-2.964,2.362C409.454,72.319,409.221,72.393,404.476,71.543Zm8.559-23.285-.587.016c-.492,3.891-1.047,7.775-1.4,11.678-.045.5.932,1.477,1.513,1.542.624.071,1.953-.73,1.923-1.054C414.114,56.369,413.55,52.316,413.035,48.258Z"/>
        <path class="cls-1" d="M343.42,38.552c3.424,0,6.5-.173,9.541.056a4.484,4.484,0,0,1,4.424,4.086,58.082,58.082,0,0,1,.058,11.348c-.379,3.307-2.456,4.715-6.035,4.735-2.114.013-2.745.755-2.655,2.776.13,2.909.038,5.829,0,8.744-.027,2.225-1.751,1.521-2.941,1.588-1.136.064-2.413.255-2.408-1.608C343.435,59.8,343.42,49.313,343.42,38.552Zm5.395,15.624.663.574c.937-.545,2.631-1.024,2.684-1.645a62.316,62.316,0,0,0-.012-9.327c-.027-.417-1.393-.906-2.192-1.037-.3-.05-1.079.8-1.092,1.262C348.771,47.392,348.815,50.784,348.815,54.176Z"/>
        <path class="cls-1" d="M340.74,109.724a5.584,5.584,0,0,1-.9.358c-4.454.428-4.455.427-4.455-3.967,0-8.993.053-17.987-.038-26.979-.02-1.963.556-2.711,2.542-2.551,2.236.181,4.5.029,6.732.247a5.155,5.155,0,0,1,4.784,4.1,22.187,22.187,0,0,1,.027,11.6c-.827,3.072-2.54,4.564-5.768,4.481-2.582-.066-3.074,1.006-2.965,3.256C340.855,103.409,340.74,106.565,340.74,109.724Zm.007-22.947a29.353,29.353,0,0,0,.053,3.982c.091.652.759,1.741,1.137,1.728.774-.025,2.162-.62,2.189-1.05a77.695,77.695,0,0,0,.008-9.32c-.025-.419-1.4-1.032-2.149-1.029-.413,0-1.085,1.059-1.177,1.707A29.178,29.178,0,0,0,340.747,86.777Z"/>
        <path class="cls-1" d="M60.451,306.861c3.048,3.738,2.731,7.745,1.636,11.782a4.486,4.486,0,0,1-4.265,3.311,36.978,36.978,0,0,1-5.981.02,2.1,2.1,0,0,1-1.459-1.416q-.139-12.23,0-24.461a2.332,2.332,0,0,1,1.526-1.678,27.186,27.186,0,0,1,5.725.013c2.772.3,4.141,1.694,4.5,4.513C62.5,301.7,62.49,304.452,60.451,306.861Zm-5.7,6.634h-.008a22.672,22.672,0,0,0,.042,3.237,6.08,6.08,0,0,0,.928,1.778c.731-.414,2.05-.773,2.094-1.25a42.312,42.312,0,0,0,.015-7.146c-.033-.432-1.2-1.007-1.883-1.062-.355-.028-1.022.888-1.135,1.459A15.526,15.526,0,0,0,54.753,313.5Zm-.015-12.063a6.132,6.132,0,0,0,.044,1.981,9.466,9.466,0,0,0,1.281,1.938c.573-.594,1.413-1.1,1.653-1.805a8.781,8.781,0,0,0,.143-2.966c-.036-1.293-.2-2.763-1.9-2.533-.5.068-.852,1.539-1.2,2.395A2.816,2.816,0,0,0,54.738,301.432Z"/>
        <path class="cls-1" d="M361.484,71.89V38.607h10.835c1.091,3.8.733,4.421-3.081,4.383-1.973-.02-2.748.69-2.57,2.62.084.908.013,1.83.016,2.745.012,3.755.009,3.845,3.83,3.993,1.815.071,1.966,1.039,1.966,2.433,0,1.36-.3,2.312-1.931,2.185-.5-.039-1,.043-1.5-.009-1.672-.174-2.476.444-2.388,2.234.1,1.992.095,4,0,5.989-.08,1.763.662,2.42,2.369,2.227.739-.084,1.5.038,2.244-.016,1.5-.108,1.854.74,1.805,2.01-.044,1.156.192,2.48-1.6,2.486C368.256,71.9,365.026,71.89,361.484,71.89Z"/>
        <path class="cls-1" d="M91.487,307.325c1.793,2.921,2.413,9.187,1.484,14.406-4,.834-4.19.691-4.2-3.174-.006-2.165.025-4.331-.057-6.494a3.535,3.535,0,0,0-.6-2.082,2.737,2.737,0,0,0-1.957-.733c-.281.008-.747.993-.762,1.543-.079,3-.115,6-.022,8.992.053,1.715-.53,2.313-2.291,2.325-1.838.012-2.239-.747-2.228-2.387q.081-11.49,0-22.981c-.016-1.859.688-2.554,2.506-2.443,1.743.107,3.584-.282,5.218.156a6.855,6.855,0,0,1,3.891,2.531C94.031,299.562,93.322,304.672,91.487,307.325Zm-6.124-9.091c0,1.77-.1,3.644.054,5.5.052.633.732,1.214,1.126,1.819.662-.491,1.729-.871,1.9-1.5a13.771,13.771,0,0,0,.216-3.909C88.618,298.183,87.6,297.517,85.363,298.234Z"/>
        <path class="cls-1" d="M404.822,110.15v-33.5c3.431,0,6.738-.053,10.039.072.381.014.917.975,1.041,1.568a16.488,16.488,0,0,1,.045,3.024c-1.423,0-2.573.066-3.712-.015-1.762-.125-2.427.67-2.269,2.365.069.743.009,1.5.009,2.248,0,4.264-.007,4.333,4.124,4.742,1.551.154,1.685,1,1.657,2.19s.06,2.277-1.686,2.454c-4.1.417-4.095.491-4.095,4.716v1.249c0,4.206,0,4.29,4.174,4.359,1.789.03,2.263.724,2.252,2.4-.01,1.632-.587,2.2-2.2,2.154C411.144,110.086,408.085,110.15,404.822,110.15Z"/>
        <path class="cls-1" d="M46.238,308.114c0,2.663.149,5.335-.032,7.985-.337,4.932-3.918,7.357-8.456,5.949a5.142,5.142,0,0,1-3.779-5.055c-.188-5.9-.243-11.808,0-17.7.135-3.325,2.542-5.167,5.865-5.246,3.492-.084,5.442,1.435,6.216,4.849a4.672,4.672,0,0,1,.162.982c.012,2.746.007,5.491.007,8.236Zm-7.927.155h.01c0,2.663-.116,5.335.075,7.985.054.743,1.013,1.421,1.557,2.129.587-.682,1.663-1.35,1.682-2.047q.225-8.1.031-16.215c-.017-.727-1.033-1.431-1.586-2.145-.59.768-1.622,1.5-1.688,2.31C38.175,302.931,38.311,305.605,38.311,308.269Z"/>
        <path class="cls-1" d="M30.778,308.187c0,2.66.162,5.331-.035,7.976-.366,4.912-3.7,7.2-8.222,5.919a5.237,5.237,0,0,1-3.975-5.172c-.2-5.889-.236-11.8.016-17.682.14-3.261,2.645-5.131,5.932-5.18,3.49-.052,5.654,1.47,6.049,4.936a81.594,81.594,0,0,1,.072,9.2Zm-7.9-.029c0,2.662-.114,5.332.071,7.981.054.773.96,1.487,1.475,2.229.621-.728,1.757-1.439,1.779-2.185q.244-7.974.025-15.958c-.02-.762-1.115-1.5-1.713-2.242-.548.813-1.5,1.593-1.568,2.445C22.734,302.99,22.868,305.579,22.875,308.158Z"/>
        <path class="cls-1" d="M78.234,321.691c-3.836.714-3.925.73-4.511-2.626-.278-1.586-1-1.968-2.5-1.989-1.623-.023-2.251.576-2.314,2.136a17.032,17.032,0,0,1-.518,2.658H64.245c.4-2.907.754-5.6,1.141-8.28.821-5.683,1.68-11.36,2.474-17.047.2-1.435.713-2.451,2.34-2.2,1.457.222,3.631-1,4.048,1.6C75.617,304.467,76.9,313.014,78.234,321.691ZM71.32,302.246l-.317.017c-.393,3.122-.862,6.238-1.106,9.371-.044.558.845,1.189,1.3,1.786.5-.551,1.476-1.149,1.427-1.646C72.317,308.586,71.782,305.419,71.32,302.246Z"/>
        <path class="cls-1" d="M429.776,38.365v3.368q0,10.857,0,21.712c0,4.738-.009,4.02,3.835,3.9,2.156-.067,3,.779,2.51,2.729-.175.7-1.077,1.695-1.7,1.739a59.4,59.4,0,0,1-8.224,0,2.451,2.451,0,0,1-1.673-1.7c-.106-9.981-.067-19.964-.091-29.946,0-1.218.351-1.893,1.7-1.814C427.191,38.415,428.263,38.365,429.776,38.365Z"/>
        <path class="cls-1" d="M398.028,109.932c-5.286.569-5.287.569-5.287-4.219,0-7.153-.03-14.307.024-21.46.013-1.763-.053-3.142-2.42-3-1.835.112-1.461-1.394-1.514-2.5-.056-1.194.137-2.156,1.694-2.139,3.16.035,6.322.047,9.482-.011,1.469-.027,1.925.683,1.794,2-.114,1.132.5,2.786-1.566,2.673-2.048-.111-2.24,1.009-2.229,2.65.054,7.652.023,15.305.022,22.957Z"/>
        <path class="cls-1" d="M311.876,55.243c0,4.735-.1,9.474.049,14.2.076,2.343-1.116,2.477-2.919,2.5-1.852.023-2.647-.424-2.624-2.507q.159-14.328,0-28.66c-.022-2.091.811-2.481,2.636-2.472s2.974.143,2.9,2.48C311.765,45.6,311.873,50.424,311.876,55.243Z"/>
        <path class="cls-1" d="M401.531,55.223c0,4.657-.078,9.315.034,13.969.048,2.011-.536,2.811-2.668,2.773-1.951-.034-2.818-.453-2.8-2.63q.147-14.218-.007-28.439c-.025-2.2.843-2.573,2.784-2.6,2.072-.028,2.749.641,2.694,2.708C401.447,45.74,401.533,50.483,401.531,55.223Z"/>
        <path class="cls-1" d="M10.763,321.7c-4.411.83-4.56.717-4.562-3.175,0-7.165.058-14.332-.035-21.5-.027-2.061.663-2.878,2.73-2.737,1.825.123,3.666.072,5.5.021,1.5-.042,1.784.783,1.783,2.056,0,1.3-.565,1.695-1.814,1.766-1.155.067-3.175.3-3.278.778a17.18,17.18,0,0,0-.029,5.662c.043.343,1.532.7,2.353.7,1.5,0,2.3.325,2.329,2.063.037,1.869-.991,2.079-2.37,1.935-2.177-.228-2.7.872-2.633,2.82C10.839,315.315,10.763,318.546,10.763,321.7Z"/>
        <path class="cls-1" d="M224.833,117.97l1.968,2.154,6.169,1.222,1.419,5.218.525-.153c.15-.449.266-.913.458-1.344.378-.848,1.194-1.712,1.125-2.509a24.841,24.841,0,0,0-1.26-7c-.865-2.171.45-2.787,1.741-4.048,2.006,5.388,5.2,10.413.555,15.816-.257.3.088,1.117.187,1.99,4-3.617,4.156-3.553,9.526.7L244.5,131.35l5.8,3.034c-.426,4.715.8,10.328-5.344,13.967-.089-4.19-.227-8.35-4.764-10.589l1.946-1.515.651-3.656c-.369-.05-1.555-.605-2.157-.227-3.077,1.93-6.542,1.1-9.79,1.531-3.915.514-4.436.6-5,4.323-2.051-.066-4.115-.183-4.767,2.632-.09.386-1.6,2.438-3.345.954-.51-.433-1.562-.229-2.365-.317l.958-4.735-1.122-.318-1.543,4.9-1.257-.417a45.981,45.981,0,0,1-.466-6.732,48.809,48.809,0,0,1,1.386-6.759c3.4-.394,5.657,1.391,8.111,3.239-1.491,1.372-.046,4.473-2.756,4.842.383,1.347.751,2.639,1.119,3.93,1.389-3.321,2.81-6.456,2.547-10.133-.11-1.546,1.074-3.16,1.526-4.783a3.347,3.347,0,0,0,0-2.281c-1.048-1.836-.487-3.093,1.056-4.187Z"/>
        <path class="cls-1" d="M185.375,55.64c-.2-3.23-.418-6.347-.588-9.466a5.785,5.785,0,0,0-3.091-4.947c-2.189-1.335-4.6-2.764-3.479-6.087-3.31-5.636,1.53-10.334,1.764-15.553a43.585,43.585,0,0,0-.373-5.527c-.092-1.112-.235-2.22-.355-3.33l.791-.153c.913,2.124,1.827,4.249,2.676,6.222l-2,2.712.491.451,1.753-1.018L182.6,21.3l-2.118-.638v4.07l2.01-.418a3.981,3.981,0,0,0-.146,1.571,6.964,6.964,0,0,0,1.226,2.235c1.3,1.519,2.344,3.359,4.554,3.851,1.705.379,3.383.876,5.01,1.3-2.03.446-4.177.843-6.269,1.433-.464.131-.735.943-1.095,1.442l.486.446,4-1.271,6.121,6.14C190.554,44.6,188.565,50.363,185.375,55.64Z"/>
        <path class="cls-1" d="M125.328,184.979c-3.3,4.764-4.252,10.1-7.9,14.262-3.038,3.465-3.507,8.057-2.005,12.509.4,1.186,1.748,2.052,2.657,3.061-2.207.895-3.8.06-4.017-2.266a48.39,48.39,0,0,1-.488-8.678c.314-3.556,1.058-7.094,3.283-10.152.706-.97.794-2.393,1.152-3.614.044-.153-.035-.342.012-.5.562-1.854.682-4.07,1.81-5.475C121.75,181.744,123,185.279,125.328,184.979Z"/>
        <path class="cls-1" d="M224.916,118.053c.829-1.624.381-2.993-.436-4.567-.513-.987-.1-2.456-.1-3.911l-1.66,1.271-.526-.461,2.161-2.363c-1.085-1.1-2.413-2.4-3.688-3.744-1.106-1.17-3.095-1.783-2.935-3.959l-2.165.235-.305-1.036c1.085-.437,2.207-1.273,3.24-1.175.717.068,1.312,1.422,1.96,2.2a14.51,14.51,0,0,1,2.343,3.008c.176.395,2.053.771.454,1.689.254.259.595.781.745.731a9.764,9.764,0,0,0,1.619-.84l5.5,4.434c-1.936.327-2.759-2.263-4.53-1.007a30.761,30.761,0,0,1,2.915,3.924c.2.362-.712,1.318-1.27,2.269l2.575-.622a25.887,25.887,0,0,1,1.678,2.739,6.715,6.715,0,0,1,.283,1.986c-.764-.07-2.1.058-2.2-.24-1.141-3.315-2.906-2.151-4.782-.836a2.539,2.539,0,0,1-.958.189Z"/>
        <path class="cls-1" d="M236.192,164.248l-7.178-7.558c2.42-1.363,5.268-2.9,5.256-6.108-.01-2.846-.99-5.689-1.326-8.856.838,1.411,1.7,2.808,2.5,4.24.275.491.243,1.245.619,1.572,1.375,1.2.563,2.309.291,3.662a25.606,25.606,0,0,0-.317,6.635c.073,1.146,1.13,2.217,1.26,3.376C237.393,162.049,236.69,162.975,236.192,164.248Z"/>
        <path class="cls-1" d="M232.061,101.512c.627,1.2,1.212,2.32,1.953,3.739h1.1c.512,2.3,3.177,4.7-.562,6.547-1.689-2.023-1.519-2.566,1.116-3.664h-3.181l-3.623-10.287c1.882-.169,1.882-.169,2.111,2.579.256.025.545.042.831.085s.56.112,1.2.244Z"/>
        <path class="cls-1" d="M207.859,74.687c-1.626,2.978-3.72,3.717-5.449,2a5.108,5.108,0,0,1-.618-1.206c-.455-.83-.927-1.65-1.384-2.46C203.173,71.566,204.741,71.819,207.859,74.687Z"/>
        <path class="cls-1" d="M118.246,203.716c1.151-2.789,2.034-4.929,2.918-7.069l.376-.048a16.89,16.89,0,0,0,.034,3.02c.27,1.463.762,2.885,1.173,4.32.135.471.311.931.468,1.4-.586.154-1.319.609-1.731.407A29.88,29.88,0,0,1,118.246,203.716Z"/>
        <path class="cls-1" d="M235.985,189.093c1.443.419,2.892,1.183,4.327,1.157,1.408-.026,2.8-.857,4.4-1.4l.341,2.445c-1.82.128-3.6.618-5.179.253-1.412-.325-2.6-1.594-3.9-2.447Z"/>
        <path class="cls-1" d="M214.89,141.948l3.468,1.844c-.539.724-1.113,1.5-1.511,2.033l-2.748-.318,1.6-1.773-3.793-.2c.054-.216.27-1.095.487-1.975Z"/>
        <path class="cls-1" d="M191.184,63.947c2.081.277,3.593,1.517,4.757-.294.367.393,1,.755,1.046,1.184a7.833,7.833,0,0,1-.182,2.051c-1.788-.522-3.145-.845-4.437-1.34C191.978,65.4,191.772,64.773,191.184,63.947Z"/>
        <path class="cls-1" d="M214.641,58.075l-7.136-4.057c2.655-1.383,4.282,1.405,6.392,2.469C214.307,56.694,214.4,57.529,214.641,58.075Z"/>
        <path class="cls-1" d="M214.89,141.948l-2.495-.393v-.638l1.257.417,1.543-4.9,1.122.318-.958,4.735Z"/>
        <path class="cls-1" d="M199.531,54.238l-4.23,4.51C195.468,55.121,197.116,53.579,199.531,54.238Z"/>
        <path class="cls-1" d="M199.058,67.029c2.025-2.073,3.632-1.809,5.774,0Z"/>
        <path class="cls-1" d="M118.073,204.713c.184.79.675,1.679.463,2.342s-1.133,1.072-1.744,1.594c.123-.62.294-1.236.355-1.862s.013-1.285.013-1.928Z"/>
        <path class="cls-1" d="M238.362,200.124l.647,7.537-.585.055q-.387-3.752-.773-7.5Z"/>
        <path class="cls-1" d="M361.979,374.2c0-10.58.075-21.161-.055-31.74-.032-2.527.855-3.138,3.187-2.955,5.283.413,6.8,1.606,7.914,6.867a18.191,18.191,0,0,1,.4,3.714q.042,24.615.014,49.23a16.422,16.422,0,0,1-.231,2.983c-.946,5.06-5.076,7.658-10.007,6.178-.557-.167-1.141-1.325-1.157-2.037-.106-4.663-.061-9.329-.062-13.995Q361.976,383.325,361.979,374.2Z"/>
        <path class="cls-1" d="M281.989,352.672c0-3.656.046-7.313-.02-10.968-.028-1.571.5-2.175,2.149-2.22,7.09-.195,8.858,1.254,9.021,8.3a98.277,98.277,0,0,1-.47,12.922c-.442,4.041-1.932,5.034-6,5.054a22.345,22.345,0,0,0-2.242.011c-1.8.189-2.54-.479-2.478-2.376C282.07,359.821,281.987,356.246,281.989,352.672Z"/>
        <path class="cls-1" d="M377.213,85.778a12.206,12.206,0,0,1,.064-2.979c.182-.689.962-1.754,1.409-1.722.814.058,2.189.734,2.254,1.281a24.091,24.091,0,0,1-.05,6.41c-.094.619-1.544,1.175-2.463,1.422-.219.059-.974-1.195-1.171-1.929A9.646,9.646,0,0,1,377.213,85.778Z"/>
        <path class="cls-1" d="M362.374,93.388c0,3.325.131,6.658-.089,9.968-.058.866-1.206,1.66-1.853,2.487-.675-.876-1.912-1.737-1.935-2.63q-.255-9.727-.009-19.464c.023-.922,1.234-1.814,1.895-2.72.682.877,1.882,1.716,1.951,2.639.242,3.224.094,6.477.094,9.72Z"/>
        <path class="cls-1" d="M429.525,85.748c-.094.93.089,2.161-.4,3.009a4.183,4.183,0,0,1-2.474,1.443c-.215.058-1.083-1.191-1.148-1.885a28.709,28.709,0,0,1,.007-5.437c.067-.675,1.039-1.885,1.216-1.819a4.934,4.934,0,0,1,2.511,1.633C429.694,83.443,429.452,84.616,429.525,85.748Z"/>
        <path class="cls-1" d="M382.108,47.318a10.883,10.883,0,0,1,.049-2.717c.188-.715.935-1.9,1.259-1.844.9.153,2.375.773,2.435,1.335a26.681,26.681,0,0,1-.163,6.6c-.077.533-1.473,1.139-2.292,1.186-.392.022-1.053-1.132-1.234-1.844A11.547,11.547,0,0,1,382.108,47.318Z"/>
        <path class="cls-1" d="M413.035,48.258c.515,4.058,1.079,8.111,1.452,12.182.03.324-1.3,1.125-1.923,1.054-.581-.065-1.558-1.042-1.513-1.542.35-3.9.905-7.787,1.4-11.678Z"/>
        <path class="cls-1" d="M348.815,54.176c0-3.392-.044-6.784.051-10.173.013-.458.789-1.312,1.092-1.262.8.131,2.165.62,2.192,1.037a62.316,62.316,0,0,1,.012,9.327c-.053.621-1.747,1.1-2.684,1.645Z"/>
        <path class="cls-1" d="M340.75,86.777a28.707,28.707,0,0,1,.058-3.982c.092-.648.764-1.706,1.177-1.707.748,0,2.124.61,2.149,1.029a77.695,77.695,0,0,1-.008,9.32c-.027.43-1.415,1.025-2.189,1.05-.378.013-1.046-1.076-1.137-1.728A28.875,28.875,0,0,1,340.75,86.777Z"/>
        <path class="cls-1" d="M54.753,313.5a15.526,15.526,0,0,1,.053-2.984c.113-.571.78-1.487,1.135-1.459.681.055,1.85.63,1.883,1.062a42.312,42.312,0,0,1-.015,7.146c-.044.477-1.363.836-2.094,1.25a6.08,6.08,0,0,1-.928-1.778,22.672,22.672,0,0,1-.042-3.237Z"/>
        <path class="cls-1" d="M54.738,301.432a2.816,2.816,0,0,1,.018-.99c.35-.856.7-2.327,1.2-2.395,1.7-.23,1.865,1.24,1.9,2.533a8.781,8.781,0,0,1-.143,2.966c-.24.707-1.08,1.211-1.653,1.805a9.466,9.466,0,0,1-1.281-1.938A6.132,6.132,0,0,1,54.738,301.432Z"/>
        <path class="cls-1" d="M85.363,298.234c2.233-.717,3.255-.051,3.3,1.91a13.771,13.771,0,0,1-.216,3.909c-.173.627-1.24,1.007-1.9,1.5-.394-.6-1.074-1.186-1.126-1.819C85.265,301.878,85.363,300,85.363,298.234Z"/>
        <path class="cls-1" d="M38.311,308.269c0-2.664-.136-5.338.081-7.983.066-.811,1.1-1.542,1.688-2.31.553.714,1.569,1.418,1.586,2.145q.191,8.1-.031,16.215c-.019.7-1.095,1.365-1.682,2.047-.544-.708-1.5-1.386-1.557-2.129-.191-2.65-.075-5.322-.075-7.985Z"/>
        <path class="cls-1" d="M22.872,308.158c0-2.579-.138-5.168.072-7.73.069-.852,1.02-1.632,1.568-2.445.6.746,1.693,1.48,1.713,2.242q.216,7.975-.025,15.958c-.022.746-1.158,1.457-1.779,2.185-.515-.742-1.421-1.456-1.475-2.229C22.761,313.49,22.875,310.82,22.872,308.158Z"/>
        <path class="cls-1" d="M71.32,302.246c.462,3.173,1,6.34,1.308,9.528.049.5-.926,1.1-1.427,1.646-.459-.6-1.348-1.228-1.3-1.786.244-3.133.713-6.249,1.106-9.371Z"/>
        <path class="cls-1" d="M197.618,169.666l3.37-7.082-.459-.321-4.266,6.721-8.223-4.526c3.707-2.422,3.7-6.38,4.8-9.624,1.036-.434,1.908-.86,2.821-1.16a18.687,18.687,0,0,1,2.221-.46c-.113.777-.213,1.557-.343,2.332-.064.381-.184.752-.363,1.466L195.1,155.3c-.822,1.147-.822,1.147,3.538,3.5l1.657-4.585c.882-.7,1.855-1.484,2.831-2.261q1.269-1.011,2.544-2.018l.567.4c-.359,1.949-.688,3.9-1.083,5.845-.746,3.668-1.546,7.325-2.291,10.993C202.165,170.619,202.484,171.155,197.618,169.666Z"/>
        <path class="cls-1" d="M225.087,369.749l-4.183-6.087,3.489-2.387c-.264-2.13,2.593-1.81,3.789-3.092.291-.312,1.305.05,2.048.107.4-1.6,1.228-1.984,7.254-3.049,1.267,4.583,1.267,4.583,2.567,4.311a16.573,16.573,0,0,1-1.539-3.792c-.057-.342,1.6-.969,2.544-1.5.428,1.657.732,2.993,1.133,4.3a9.149,9.149,0,0,0,1.14,1.69c.543-2.387-3.167-3.741-.551-5.888l1.5,1.431,1.2-.821a25.378,25.378,0,0,1,.926,2.446c.891,3.4-.017,4.372-3.515,4.594a33.94,33.94,0,0,0-16.586,5.763C225.762,368.122,225.547,368.971,225.087,369.749Z"/>
        <path class="cls-1" d="M223.568,305.4c.49-1.207-1.731-2.487.083-3.34-.873-2.032-1.881-3.991-2.562-6.058a68.166,68.166,0,0,1-2.112-8.06,2.41,2.41,0,0,1,1.188-2.011,2.257,2.257,0,0,1,2.022.962c1.781,5.54,3.431,11.124,5,16.729.108.385-.65,1.251-1.191,1.516A7.7,7.7,0,0,1,223.568,305.4Z"/>
        <path class="cls-1" d="M217.684,283.457c-.955-2.946-1.883-5.808-2.812-8.671-.422-1.3-.425-2.67,1.145-2.906,1.265-.189,2.674-.108,2.829,2.06.161,2.243,1.035,4.429,1.509,6.658a31.711,31.711,0,0,1,.353,3.318Z"/>
        <path class="cls-1" d="M185.376,277.711c-2.438-1.09-3.245-4.736-1.7-6.5.187-.214.712-.446.82-.357a2.8,2.8,0,0,1,.819,1.114,3.694,3.694,0,0,1,.056,1.236C185.378,274.666,185.376,276.126,185.376,277.711Z"/>
        <path class="cls-1" d="M235.369,364.941a5.213,5.213,0,0,1,7.946-.349l-1.355,1.634a5.217,5.217,0,0,1-.079-.9c.222-1.343-.272-1.529-1.529-1.215-1.639.41-3.349.533-5.029.779Z"/>
        <polygon class="cls-1" points="228.202 193.252 228.042 193.298 228.066 193.157 228.202 193.252"/>
        <path class="cls-1" d="M220.044,265.926c-3.929-3.062-7.009-7.4-12.822-7.217-5.391.17-10.049,1.464-14.153,5.313-3.929,3.683-5.456,7.78-4.2,13.212l7.016-3.2.259.455-7.657,4.8a12.31,12.31,0,0,1-1.178-3.269c-.384-8.416,5.019-14.914,13.376-17.234a20.647,20.647,0,0,1,11.259.1A11.521,11.521,0,0,1,220.044,265.926Z"/>
        <path class="cls-1" d="M219.813,268.388c-7.91.222-15.3,2.536-22.48,5.688l-.3-.916c5.194-1.826,10.325-3.873,15.611-5.374,2.219-.63,4.765-.105,7.163-.105Z"/>
      </g>
    </g>
  </g>
</svg>
