<svg xmlns="http://www.w3.org/2000/svg" viewBox="0 0 246.385 486.085">
  <defs>
    <style>
      .cls-1 {
        fill: none;
        stroke: #000;
      }

      .cls-1, .cls-2 {
        stroke-miterlimit: 10;
        stroke-width: 6px;
      }

      .cls-2 {
        stroke: #f7931e;
      }
    </style>
  </defs>
  <g id="Layer_2" data-name="Layer 2">
    <g id="Layer_1-2" data-name="Layer 1">
      <g id="Layer_2-2" data-name="Layer 2">
        <g id="Layer_1-2-2" data-name="Layer 1-2">
          <path class="cls-1" d="M222.706,483.085l20.667-330.667s-8.667-66-50.667-82S148.04,59.085,148.04,59.085s6.666-4.667,6.666-28,14-4.667,14-4.667,11.334-8.667,4.667-16S154.706-4.249,148.04,17.085s-2,40-14,37.333-16,12-16,12l-19.334,2-16,7.333-25.333-.666L52.04,52.418l-6.334-5.333L34.04,24.418l-18.667,4,16,28-2,16.667L8.04,82.418s-14,18,4.666,25.333,23.334-2,14,21.334-12,74.666-12,74.666h14s8-51.333,17-60.666,7-34.667,23-34.667,88,5.333,104.667,51.333.667,296.667,2.667,323.334Z"/>
        </g>
        <line class="cls-2" x1="20.262" y1="214.445" x2="10.379" y2="309"/>
      </g>
    </g>
  </g>
</svg>
