<?xml version="1.0" encoding="utf-8"?>
<!-- Generator: Adobe Illustrator 24.1.2, SVG Export Plug-In . SVG Version: 6.00 Build 0)  -->
<svg version="1.1" id="Layer_1" xmlns="http://www.w3.org/2000/svg" xmlns:xlink="http://www.w3.org/1999/xlink" x="0px" y="0px"
	 viewBox="0 0 472 497.9" style="enable-background:new 0 0 472 497.9;" xml:space="preserve">
<style type="text/css">
	.st0{fill:none;stroke:#000000;stroke-width:6;stroke-miterlimit:10;}
</style>
<g id="Layer_2_1_">
	<g id="Layer_1-2">
		<path class="st0" d="M265.3,469.3"/>
		<path class="st0" d="M448.3,483.1L469,152.4c0,0-8.7-66-50.7-82s-44.7-11.3-44.7-11.3s6.7-4.7,6.7-28c0-23.3,14-4.7,14-4.7
			s11.3-8.7,4.7-16s-18.7-14.7-25.3,6.7c-6.7,21.3-2,40-14,37.3s-16,12-16,12l-19.3,2l-16,7.3L283,75.1l-5.3-22.7l-6.3-5.3
			l-11.7-22.7l-18.7,4l16,28l-2,16.7l-21.3,9.3c0,0-14,18,4.7,25.3c18.7,7.3,23.3-2,14,21.3s-12,74.7-12,74.7h14c0,0,8-51.3,17-60.7
			s7-34.7,23-34.7s88,5.3,104.7,51.3c0,0,1.3,266.9,2,316.6s-134.9-8.7-134.9-8.7s-90.4-13-114.3,14c0,0-27.9,1.4-50.2-32.8
			c0,0,65.3-22.1,83.5-41.2c0,0,9.3-7.8,35,2.7c0,0,38.2,7.3,54.6,6.3c16.3-1,10.7,22-8,21c-18.7-1-46.3-1-46.7,2.3
			s47.3,7.3,55.7,3.7c8.3-3.7,24.6-7,19.9-25.7c0,0,33.7-11.7,43.1-11.7c9.3,0,41.3,2.7,3.7,20c-36.2,21.4-45.5,26.8-77.6,41.1
			c-8.4,3.7-196.4,53.9-215-2.4S4.3,371.4,9,429.3c5.3,65.7,127.8,19.6,3.3-196"/>
	</g>
</g>
<path class="st0" d="M497,403"/>
<path class="st0" d="M18,683"/>
<image style="overflow:visible;" width="254" height="198" xlink:href="2F3EADF1.jpg"  transform="matrix(-1 0 0 1 -172.3732 366.0425)">
</image>
</svg>
