<svg xmlns="http://www.w3.org/2000/svg" viewBox="0 0 466.457 499.365">
  <defs>
    <style>
      .cls-1 {
        fill: none;
        stroke: #000;
        stroke-miterlimit: 10;
        stroke-width: 6px;
      }
    </style>
  </defs>
  <g id="Layer_2" data-name="Layer 2">
    <g id="Layer_1-2" data-name="Layer 1">
      <g id="Layer_2-2" data-name="Layer 2">
        <g id="Layer_1-2-2" data-name="Layer 1-2">
          <path class="cls-1" d="M259.778,469.333"/>
          <path class="cls-1" d="M442.778,483.085l20.667-330.667s-8.667-66-50.667-82-44.666-11.333-44.666-11.333,6.666-4.667,6.666-28,14-4.667,14-4.667,11.334-8.667,4.667-16-18.667-14.667-25.333,6.667-2,40-14,37.333-16,12-16,12l-19.334,2-16,7.333-25.333-.666-5.333-22.667-6.334-5.333L254.112,24.418l-18.667,4,16,28-2,16.667-21.333,9.333s-14,18,4.666,25.333,23.334-2,14,21.334-12,74.666-12,74.666h14s8-51.333,17-60.666,7-34.667,23-34.667,88,5.333,104.667,51.333c0,0,1.333,266.916,2,316.582s-134.889-8.666-134.889-8.666-90.444-13-114.333,14c0,0-27.858,1.444-50.151-32.778,0,0,65.262-22.111,83.484-41.222,0,0,9.333-7.778,35,2.666,0,0,38.222,7.334,54.556,6.334s10.666,22-8,21-46.334-1-46.667,2.333,47.333,7.333,55.667,3.667,24.611-7,19.944-25.668c0,0,33.722-11.666,43.056-11.666s41.333,2.667,3.666,20c-36.179,21.411-45.477,26.812-77.62,41.145-8.372,3.733-262.681,25.543-239.269-29.033,94-219.124-25.074,207.72-16.437-9.112,13.925-349.583,256.9-424.311,3.326-196"/>
        </g>
      </g>
    </g>
  </g>
</svg>
