<svg xmlns="http://www.w3.org/2000/svg" viewBox="0 0 375.009 484.675">
  <defs>
    <style>
      .cls-1 {
        fill: none;
        stroke: #000;
        stroke-miterlimit: 10;
        stroke-width: 6px;
      }
    </style>
  </defs>
  <g id="Layer_2" data-name="Layer 2">
    <g id="Layer_1-2" data-name="Layer 1">
      <g id="Layer_2-2" data-name="Layer 2">
        <g id="Layer_1-2-2" data-name="Layer 1-2">
          <path class="cls-1" d="M351.33,483.085,372,152.418s-8.667-66-50.667-82-44.666-11.333-44.666-11.333,6.666-4.667,6.666-28,14-4.667,14-4.667,11.334-8.667,4.667-16S283.33-4.249,276.664,17.085s-2,40-14,37.333-16,12-16,12l-19.335,2-16,7.333L186,75.085l-5.333-22.667-6.334-5.333L162.664,24.418l-18.667,4,16,28-2,16.667-21.333,9.333s-14,18,4.666,25.333,23.334-2,14,21.334-12,74.666-12,74.666h14s8-51.333,17-60.666,7-34.667,23-34.667,88,5.333,104.667,51.333c0,0,4.666,150.249,2,316.582l-134.889-8.666s-90.445-13-114.334,14c0,0-27.857,1.444-50.151-32.778,0,0,65.262-22.111,83.485-41.222,0,0,9.333-7.778,35,2.666,0,0,38.222,7.334,54.555,6.334s10.667,22-8,21S123.33,436.667,123,440s47.333,7.333,55.666,3.667,24.611-7,19.945-25.668c0,0,33.722-11.666,43.055-11.666s41.334,2.667,3.667,20-77,43-77,43"/>
        </g>
      </g>
    </g>
  </g>
</svg>
