<svg xmlns="http://www.w3.org/2000/svg" viewBox="0 0 472.012 497.937">
  <defs>
    <style>
      .cls-1 {
        fill: none;
        stroke: #000;
        stroke-miterlimit: 10;
        stroke-width: 6px;
      }
    </style>
  </defs>
  <g id="Layer_2" data-name="Layer 2">
    <g id="Layer_1-2" data-name="Layer 1">
      <path class="cls-1" d="M448.333,483.085,469,152.418s-8.667-66-50.667-82-44.666-11.333-44.666-11.333,6.666-4.667,6.666-28,14-4.667,14-4.667,11.334-8.667,4.667-16-18.667-14.667-25.333,6.667-2,40-14,37.333-16,12-16,12l-19.334,2-16,7.333L283,75.085l-5.333-22.667-6.334-5.333L259.667,24.418l-18.667,4,16,28-2,16.667-21.333,9.333s-14,18,4.666,25.333,23.334-2,14,21.334-12,74.666-12,74.666h14s8-51.333,17-60.666,7-34.667,23-34.667,88,5.333,104.667,51.333.667,296.667,2.667,323.334-272.667,0-272.667,0-65.333-13.334-63.333-27.334,48.666-14,48.666-14,44-6.666,32.667-56-36.667-44-25.333-128,60.666-105.333,60.666-105.333,78.334,10,89.5,35.333-37.5,170-63.5,174.667-47.333,86-47.333,86,4.724,28.538,23.333,34.667-4.666-50.667-4.666-50.667S201,465.085,117,455.751,3,374.418,3,360.418s51.333-19.333,51.333-19.333,26.667-22.667,60-22.667,110,10.667,114.667,36.667-21.333,16.666-21.333,16.666,14,21.334-6.667,28,12.651,8.586-7.333,30.667"/>
    </g>
  </g>
</svg>
